<svg xmlns="http://www.w3.org/2000/svg" xmlns:xlink="http://www.w3.org/1999/xlink" width="711" height="522" viewBox="0 0 711 522"><defs><style>.a{fill:#fff;}.b{fill:#20222b;font-size:30px;opacity:0.5;}.b,.c{font-family:OpenSans-Regular, Open Sans;}.c{fill:#00613c;font-size:45px;letter-spacing:0.03em;}.d{filter:url(#e);}.e{filter:url(#c);}.f{filter:url(#a);}</style><filter id="a" x="86" y="410" width="538" height="112" filterUnits="userSpaceOnUse"><feOffset dy="3" input="SourceAlpha"/><feGaussianBlur stdDeviation="3" result="b"/><feFlood flood-opacity="0.161"/><feComposite operator="in" in2="b"/><feComposite in="SourceGraphic"/></filter><filter id="c" x="86" y="279" width="538" height="112" filterUnits="userSpaceOnUse"><feOffset dy="3" input="SourceAlpha"/><feGaussianBlur stdDeviation="3" result="d"/><feFlood flood-opacity="0.161"/><feComposite operator="in" in2="d"/><feComposite in="SourceGraphic"/></filter><filter id="e" x="86" y="148" width="538" height="112" filterUnits="userSpaceOnUse"><feOffset dy="3" input="SourceAlpha"/><feGaussianBlur stdDeviation="3" result="f"/><feFlood flood-opacity="0.161"/><feComposite operator="in" in2="f"/><feComposite in="SourceGraphic"/></filter></defs><g transform="translate(-599 -306)"><g class="f" transform="matrix(1, 0, 0, 1, 599, 306)"><rect class="a" width="520" height="94" rx="10" transform="translate(95 416)"/></g><text class="b" transform="translate(728 781)"><tspan x="0" y="0">celular (com DDD)</tspan></text><g transform="translate(0 -25)"><g class="e" transform="matrix(1, 0, 0, 1, 599, 331)"><rect class="a" width="520" height="94" rx="10" transform="translate(95 285)"/></g><text class="b" transform="translate(728 675)"><tspan x="0" y="0">email</tspan></text></g><g transform="translate(0 -50)"><g class="d" transform="matrix(1, 0, 0, 1, 599, 356)"><rect class="a" width="520" height="94" rx="10" transform="translate(95 154)"/></g><text class="b" transform="translate(728 569)"><tspan x="0" y="0">nome completo</tspan></text></g><text class="c" transform="translate(599 354)"><tspan x="0" y="0">Cadastre o seu estabelecimento</tspan></text></g></svg>