<svg xmlns="http://www.w3.org/2000/svg" width="159.999" height="349" viewBox="0 0 159.999 349"><defs><style>.a{fill:#fff;}.b{fill:#ff9669;}.c{fill:#01304b;}.d{fill:#1d535f;}.e{fill:#e8e2e3;}.f{fill:#60ab7d;}.g{fill:#68325f;}.h{fill:#40836f;}.i{fill:#ffb118;}.j{fill:#ea5a3d;}.k{fill:#20222b;font-size:30px;font-family:OpenSans-Light, Open Sans;font-weight:300;letter-spacing:0.03em;}</style></defs><g transform="translate(-64.668 -32.289)"><path class="a" d="M111.175,118.306a1.251,1.251,0,0,1-.226-.021,1.221,1.221,0,0,1-.976-1.425c.381-2.039,9.551-49.978,28.93-53.059a1.222,1.222,0,1,1,.385,2.413c-17.691,2.812-26.824,50.612-26.914,51.094A1.221,1.221,0,0,1,111.175,118.306Z"/><g transform="translate(0 4)"><path class="b" d="M201.517,270.558c.037,2.494-1.7,2.909-6.557,2.533a33.9,33.9,0,0,1-9.12-2.6c-3.636-1.483-6.934,1.582-8.978-1.715-1.287-2.075-.266-3.7-.173-6.355a81.272,81.272,0,0,0-.235-10.787,10.89,10.89,0,0,0,7.608.418l.413,3.365c-.21,1.68-.51,4.152.647,5.389,2.2,2.349,9.205,6.545,10.831,7.313C200.046,270.058,201.49,268.755,201.517,270.558Z"/><path class="c" d="M202.011,270.558c.748,2.38-2.2,2.909-7.051,2.533-2.913-.225-6.1-.708-8.867-1.108-4.93-.713-10.481,1.988-11.724-2.016-.813-2.618,1.177-8.009,2.32-7.543,1.583,5.374,12.552-2.583,12.552,1.125a56.579,56.579,0,0,0,6.929,4.249C198.4,268.64,201.377,268.538,202.011,270.558Z"/><path class="c" d="M68.634,222.639c-2.494-.055-1.857-2.4-1.3-7.239a28.569,28.569,0,0,1,1.945-8.425c1.616-3.578-1.324-6.987,2.047-8.908,2.121-1.209,3.708-.128,6.356.062a81.238,81.238,0,0,0,10.788.165,10.892,10.892,0,0,0-.7,7.588l-3.378.288c-1.671-.273-4.13-.664-5.409.447-2.429,2.11-6.881,8.957-7.71,10.552C69.188,221.188,70.436,222.68,68.634,222.639Z"/><path class="c" d="M69.4,223.225c-2.407.659-3.611-2.4-3.055-7.232.333-2.9.933-6.067,1.435-8.82.9-4.9-.849-10.254,2.551-11.079,2.663-.647,7.859.911,7.35,2.035-5.429,1.384,1.972,11.862-1.589,12.5a56.713,56.713,0,0,0-4.5,6.768C70.666,219.594,71.441,222.666,69.4,223.225Z"/><path class="d" d="M81.856,197.921s25.544-3.278,39.915,1.008c.275-2.807,3.143-28.236,3.486-35.951.8-18.008,4.376-21.721,7.122-27.234a35.27,35.27,0,0,0,3.717-11.979c1.522-11.305,14.214-21.3,20.632-17.675,4.851-5.873,14.481,10.572,17.25,20.368.579,2.046-.869,6.551,1.244,11.571,9.191,21.835,13.4,61.194,14.413,65.82,1.577,7.184-.768,49.11-3.881,55.173-.464.854-8.765,1.474-9.52-.443-1.274-1.774-9.646-31.634-3.6-47.6-8.26-10.452-18.074-34.641-19.464-47.834,8.143-4.118-10.956,43.475-18.007,50.671-10.385,10.6-45.047-4.581-54.308-6.941C79.116,205.659,79.792,198.7,81.856,197.921Z"/><path class="e" d="M127.625,203.462a.331.331,0,0,0,.275-.517l-.088-.132c-.6-.908-2.176-3.317-6.985-4.493a.331.331,0,1,0-.157.643c4.555,1.115,6.032,3.366,6.587,4.213l.093.141A.329.329,0,0,0,127.625,203.462Z"/><path class="e" d="M172.073,212.974a.331.331,0,0,0,.294-.177,6.651,6.651,0,0,1,5.281-3.88.333.333,0,0,0,.32-.342.341.341,0,0,0-.341-.321,7.3,7.3,0,0,0-5.847,4.235.331.331,0,0,0,.293.485Z"/><path class="e" d="M150.185,184.57a.305.305,0,0,0,.281-.188c1.719-4.208,6.237-18.669,7.213-24.851a.3.3,0,0,0-.6-.1c-.97,6.147-5.464,20.53-7.175,24.717a.3.3,0,0,0,.166.4A.286.286,0,0,0,150.185,184.57Z"/><path class="d" d="M144.352,66.008c2.739,6.834,28.322,18.731,28.322,2.623,0-5.141,16.378-7.536,4.776-17.206-3.778-3.149,6.225-15.914-7.659-17.627-5.136-.634-11.833-10.912-16.958,4.616C150.788,44.61,144.352,66.008,144.352,66.008Z"/><path class="f" d="M171.459,88.316c1.032,4.817,9.662,43.063,3.041,45.861-19.259,7.766-22.552-5.947-41.354-1.794-8.4,1.856-2.68-24.762-1.562-41.06.71-10.342,13.619-16.378,13.092-23.1C162.069,68.227,167.882,71.614,171.459,88.316Z"/><path class="b" d="M82.1,88.4c-1.7-1.02-3.976-1.313-4.9-1.945-2.063-1.413-3.1-2.123-3.553-1.887-1.841.954,3.842,4.12,3.3,5.448-.491.434-2.482.234-3.855-.058-1.646-.35-6.068-2.622-6.325-1.65-.216.816,2.968,2.564,4.112,2.957-1.193-.4-6.2-2.734-6.215-1.321-.012,1.035,5.9,3.174,6.695,3.437-.389-.11-5.99-2.363-5.928-1.317.073,1.212,5.256,2.837,6.05,3.1-.494-.134-5.245-2.216-5.108-.911.084.808,4.7,2.787,5.494,3.052,3.5,1.166,13.331.143,14.507-.1l1.754-4.589s-1.956-1.56-2.969-2.174C83.9,89.679,82.732,88.786,82.1,88.4Z"/><path class="f" d="M85.338,98.84c12.52,6.014,15.834,11.639,32.248,9.421,29.056-3.925,37.1-12.662,37.6-40.038l-6.424-3.54c-23.763-2.648-23.5,17.662-35.149,21.653-9.4,3.22-12.214,3.113-26.659,3.291C84.805,89.654,83.644,98.026,85.338,98.84Z"/><path class="b" d="M214.154,114.5c1.85-.705,5.6.935,5.891,2.337a3.347,3.347,0,0,0,2.749,1c1.682-.054-1.138,6.15-1.92,6.445-4.018,1.518-11.317-1.209-12.432-1.654l-1.431-5.08a11.689,11.689,0,0,0,3.819-1.363A19.01,19.01,0,0,1,214.154,114.5Z"/><path class="g" d="M203.593,152.933c-.336,3.546,13.978,5.683,14.8,2.217,1.581-6.666,2.86-17.391,3.607-24.588.249-2.395-2.528-3.869-2.408-4.661.218-1.434.518-6.82.518-6.82l-7.909-1.635s-.885,5.42-1.178,6.958c-.192,1.013-3.25,1.571-3.6,3.776C206.144,136.253,204.193,146.588,203.593,152.933Z"/><path class="d" d="M220.666,120.57s1.021-2.765.117-3.456c-1.174-.9-5.807-1.466-8.48-1.249-.886.073-1.358,2.932-.97,3.843.273.639,1.861.541,4.166,1C217.7,121.147,220.373,121.184,220.666,120.57Z"/><path class="d" d="M219.854,118.751a.615.615,0,0,1-.587-.784c.006-.023.664-2.325-.258-3.755a2.6,2.6,0,0,0-1.956-1.116,2.9,2.9,0,0,0-2.312.481c-1.116.9-1.244,2.753-1.292,3.449l-.615.046-.61-.044c.065-.927.219-3.161,1.749-4.4a4.066,4.066,0,0,1,3.251-.741,3.8,3.8,0,0,1,2.815,1.669c1.223,1.9.434,4.642.4,4.758A.611.611,0,0,1,219.854,118.751Z"/><path class="b" d="M214.523,114.4a18.754,18.754,0,0,1,6.186-.131c2.462.435,3.75,0,3.91.489.518,1.575-3.263,1.5-5.129,1.8C218.772,116.22,213.57,114.608,214.523,114.4Z"/><path class="b" d="M221.947,123.674a1.1,1.1,0,0,0,.78-2.012c-.062-.045-.123-.1-.042-.1a1.127,1.127,0,0,0,.584-2.086c-.066-.037-.01-.141.06-.172.82-.36,1.358-2.216-.59-2.305-3.553-.162-6.237.712-3.487,1.739-2.55.034-3.544.992-.368,1.915-2.01-.153-3.067,1.037-.569,1.764-.814.069-2.927.457.438,2.023a6.215,6.215,0,0,0,2.1.559C222.495,125.044,222.018,123.673,221.947,123.674Z"/><path class="f" d="M208.331,123.979C198,123.93,158.833,126.362,159.1,98.7c.287-29.942-6.324-33.325-6.324-33.325,30.782-1.369,27.075,27.964,34.5,32.695,7.3,4.649,13.947,16.177,21.869,17.616C211.065,116.037,209.792,123.986,208.331,123.979Z"/><path class="d" d="M142.08,113.3a1.351,1.351,0,0,1,.357.264c.472.627,1.532,2.286,1.559,1.705.035-.756-1.145-1.629-1.145-1.629s3.016.5,2.676-.178c-.295-.59-2.707-.435-2.707-.435s1.562-.615,1.539-.962-1.376.641-2.01.865c.349-.479.655-.9.9-1.235.255-.672,4.257-.1,3.9-.828-.3-.608-3.169-.174-3.169-.174s3.665-2.433,3.588-3.714c-.089-1.481-3.784,3.033-3.784,3.033s1.144-2.62.35-3.863c-.609-.954-.786,2.877-.973,4.395a1.632,1.632,0,0,1-.4.882c-1.462,1.658-7.969,9.036-8.2,9.317-.275.337.414,1.384.983,1.12C135.937,121.682,139.765,116.481,142.08,113.3Z"/><path class="h" d="M137.827,106.4c.433-1.409,1.711,2.445,1.711,2.445s-.893-2.824.551-4.085-.067,4.09-.067,4.09,1.716-1.974,2.2-1.615-2.362,2.59-2.362,2.59a6.024,6.024,0,0,0-.083.954.682.682,0,0,0,.264-.088c.533-.369,1.8-1.4,1.663-.927-.178.614-1.324.981-1.324.981s2.46.442,2.014.891c-.386.389-2.2-.41-2.2-.41s1.037.928.926,1.2-.928-.957-1.347-1.277c-.255,1.839-.351,4.778.188,4.93a41.63,41.63,0,0,1,5.334-2.364c-.014-.334-.895-1.063-.578-1.144.276-.071.7.936.7.936s0-1.832.432-2.166c.5-.385-.086,2.153-.086,2.153s.667-1.161,1.28-1.246c.47-.065-.71,1.068-1.146,1.556-.064.072-.215.158-.247.248l1.451-.55v0c.005-.064.137-3.122,1.139-3.348.961-.217-.458,3.191-.458,3.191s4.448-1.158,4.33.1c-.129,1.379-4.331.473-4.331.473s2.994,2.4,1.707,2.986c-.862.392-1.864-3.048-2.262-2.937a9.385,9.385,0,0,0-1.751.387c.394.149,2.505.978,1.721,1.268-.5.185-1.481-.867-1.481-.867s.817,2,.244,2.077c-.389.054-.739-1.947-.739-1.947a1.964,1.964,0,0,1-1.15,1.443c-.949.516.447-1.284.837-1.773-2.441.951-3.739,2.581-4.781,2.463a3.41,3.41,0,0,1-2.157-1.285c-.266-.434,1-4.921,1.264-5.914C139.227,109.819,137.393,107.811,137.827,106.4Z"/><path class="i" d="M141.445,120.65c-3.093,4.5-7.008,6.8-11.3,11.5-.618.677-6.681,4.692-5.978,2.992.42-1.016,1.532-4.357,1.934-5.436.648-1.74,4.421-5.489,5.274-7.137,1.6-3.09,1.957-4.776,4.721-7,1.314-1.055,2.889-1.713,4.215-.431C141.893,116.666,142.625,118.743,141.445,120.65Z"/><path class="j" d="M138.84,119.795a8.04,8.04,0,0,0-.732-1.043,4.6,4.6,0,0,0-.5-.436c-.111-.087-.257-.161-.267-.312-.009-.131.277-.125.349-.117a2.369,2.369,0,0,1,1.722,1.829c.025.184-.495.193-.573.079Z"/><path class="j" d="M137.978,122.02a3.473,3.473,0,0,1-.941-.83,3.7,3.7,0,0,0-.439-.391c-.143-.1-.323-.141-.459-.247-.2-.154.256-.224.334-.225q-.471.123-.237.032a.629.629,0,0,1,.154-.031.953.953,0,0,1,.349.025,1.6,1.6,0,0,1,.628.356,4.376,4.376,0,0,1,.5.548c.15.181.433.435.429.68,0,.109-.248.112-.315.083Z"/><path class="j" d="M135.6,121.971a6.055,6.055,0,0,1-1.074-.693,4.318,4.318,0,0,0-.452-.282c-.13-.068-.291-.09-.387-.206s.215-.169.255-.174a1.584,1.584,0,0,1,1.087.353,2.774,2.774,0,0,1,.891.893c.059.127-.258.135-.32.109Z"/><path class="j" d="M134.49,125.632c-.28-.267-.522-.567-.8-.836a3.547,3.547,0,0,1-.755-.748c-.068-.126.264-.13.32-.108a2.627,2.627,0,0,1,.917.66,3.5,3.5,0,0,1,.74.948c.072.155-.343.157-.421.084Z"/><path class="j" d="M132.021,126.142c.149.031.175.04.079.028a.173.173,0,0,1-.062-.02,1.325,1.325,0,0,1-.188-.142,4.613,4.613,0,0,0-.454-.305,4.529,4.529,0,0,0-.456-.217c-.1-.042-.26-.064-.3-.181-.018-.055.111-.089.14-.1a1.709,1.709,0,0,1,1.622.83c.079.131-.318.158-.385.1Z"/><path class="j" d="M131.236,128.611a4.534,4.534,0,0,0-1.349-.832c-.03-.012-.087-.038-.088-.08v-.026c0-.06.1-.087.14-.095a1.518,1.518,0,0,1,1,.233,1.686,1.686,0,0,1,.652.729c.066.128-.289.131-.354.071Z"/><path class="j" d="M129.182,129.418c-.13-.1-.252-.22-.385-.317s-.27-.151-.4-.232c-.077-.046-.025-.111.031-.144a.479.479,0,0,1,.32-.043c-.229.013-.274.011-.135-.005a.555.555,0,0,1,.135.005.856.856,0,0,1,.158.043,1.654,1.654,0,0,1,.281.144,1.011,1.011,0,0,1,.432.434c.07.163-.353.179-.433.115Z"/><path class="d" d="M121.293,151.847c3.277-2.005,7.985-12.188,4.116-15.243-3.545-2.8-5.055-2.417-8.757-2.169-2.582.173-9.289,1.209-8.519,7.331s2.752,10.126,6.144,10.594C116.64,152.686,119.221,153.115,121.293,151.847Z"/><path class="f" d="M119.686,152.273a77.079,77.079,0,0,0,.033-13.494c-.1-.864-.275-2.677-.972-3.312-.157-.144.093-.393.124-.364a5.245,5.245,0,0,1,1.072,2.556,27.778,27.778,0,0,1,.3,3.953c.107,2.99.075,5.505-.062,8.493-.033.715-.181,1.111-.227,1.826-.034.518-.278.517-.267.342Z"/><path class="f" d="M117.629,135.536a7.22,7.22,0,0,0-1,2.354,30.94,30.94,0,0,0-.977,3.863,31.846,31.846,0,0,0-.381,10.541c.045.294-.231.119-.273-.262a35.277,35.277,0,0,1,.4-10.4,33.568,33.568,0,0,1,1.017-4.222,5.632,5.632,0,0,1,1-2.218c.04-.039.458,0,.31.147Z"/><path class="f" d="M117.138,135.207a7.287,7.287,0,0,0-5.06,4.5c-1.287,2.937-1.325,7.6-.627,10.768.039.176-.086.342-.2-.163-.713-3.239-1-6.611.16-9.691a10.285,10.285,0,0,1,1.676-3.389A8.722,8.722,0,0,1,117,134.923C117.119,134.912,117.138,135.207,117.138,135.207Z"/><path class="f" d="M119.261,134.922a7.144,7.144,0,0,1,2.691,1.608,10.972,10.972,0,0,1,2.463,6.085c.206,2.339-.25,3.869-.559,6.192-.046.351-.291.378-.266.237.91-5.131.822-8.224-1.319-11.526a7.03,7.03,0,0,0-3-2.278C119.075,135.186,119.261,134.922,119.261,134.922Z"/><path class="f" d="M117.059,135.072c-1.379-.545-6.615,1.6-7.295,2.035-.258.166-.179-.015.033-.157a17.556,17.556,0,0,1,7.265-2.195C117.242,134.789,117.059,135.072,117.059,135.072Z"/><path class="f" d="M119.252,134.546c2.91.335,6.945,2.373,7.4,4.078.037.138.221,1,.1.658-.886-2.575-4.87-3.948-7.31-4.445C119.26,134.8,119.252,134.546,119.252,134.546Z"/><path class="h" d="M118.989,132.963c.036.585.877,1.148.423,2.305-.21.537-2.138.844-2.5-.061-.335-.845.548-.712.557-1.485s-.1-1.146.146-1.208C118.261,132.35,118.933,132.059,118.989,132.963Z"/><path class="f" d="M119.23,134.189a.061.061,0,0,0,.048-.1,3.425,3.425,0,0,1-.494-1.23.062.062,0,1,0-.12-.032,3.227,3.227,0,0,0,.509,1.328A.061.061,0,0,0,119.23,134.189Z"/><path class="f" d="M117.484,134.718a.064.064,0,0,0,.041-.018,1.107,1.107,0,0,0,.235-1.38c-.016-.026-.041-.067-.089-.052l.04.118-.021-.058-.047.04a.969.969,0,0,1-.207,1.244.062.062,0,0,0,0,.088A.061.061,0,0,0,117.484,134.718Z"/><path class="f" d="M117.816,135.379a.057.057,0,0,0,.037-.016c.363-.317.334-1.713.332-1.772a.062.062,0,1,0-.124,0c.009.387-.024,1.444-.29,1.676a.062.062,0,0,0-.005.087A.06.06,0,0,0,117.816,135.379Z"/><path class="f" d="M118.508,135.461a.07.07,0,0,0,.033-.012.064.064,0,0,0,.013-.088,4.261,4.261,0,0,1-.092-1.635.062.062,0,0,0-.124-.011,4.323,4.323,0,0,0,.116,1.721A.064.064,0,0,0,118.508,135.461Z"/><path class="f" d="M118.949,135.371a.064.064,0,0,0,.056-.044,4.782,4.782,0,0,0-.541-2.341.062.062,0,0,0-.112.054,4.818,4.818,0,0,1,.534,2.251.061.061,0,0,0,.041.077A.058.058,0,0,0,118.949,135.371Z"/><path class="i" d="M134.123,131.787c-2.363-1.38-8.451-.723-10.834,5.99a23.689,23.689,0,0,1-5.373,9.037c-1.861,2.251-11.761,2.85-10.38,12.347,1.147,7.893,13.672,15.882,20.078,10.933,6.763-5.224,5.171-8.943,5.242-17.213S147.908,139.836,134.123,131.787Z"/><path class="h" d="M132.469,132.26c-1.683-.344-4.619,2.88-6.507,6.9-1.626,3.455-2.281,8.406-5.642,10.78-2.274,1.606-4.555,1.831-6.9,3.351-2.76,1.789-4.613,3.425-5.615,6.589-.154.487.219.37.281.174,1.1-3.462,4.234-5.566,7.314-7.143,2.013-1.031,4.288-1.786,5.964-3.36,4.33-4.068,4.356-11.76,8.8-15.615a5.466,5.466,0,0,1,2.457-1.3C133.272,132.425,132.615,132.29,132.469,132.26Z"/><path class="h" d="M133.183,134.737c-.94.682-2.122,2.934-3.038,4.7a69.156,69.156,0,0,0-3.449,8.036,49.129,49.129,0,0,1-1.926,4.848,56.015,56.015,0,0,1-4.519,7.615,22.345,22.345,0,0,1-7.283,6.956c-.738.392.145.611.167.6,2.409-1.038,3.647-2.635,5.277-4.629a53.53,53.53,0,0,0,5.152-7.2,42.911,42.911,0,0,0,2.623-5.8c.8-2.062,1.479-4.163,2.324-6.21a48.076,48.076,0,0,1,2.406-4.845,23.943,23.943,0,0,1,2.6-3.821C133.855,134.634,133.566,134.458,133.183,134.737Z"/><path class="h" d="M136.312,135.34c1.031,1.767-.607,4.627-1.451,6.213-1.16,2.178-2.387,4.123-3.728,6.191a24.566,24.566,0,0,0-2.575,5.133c-.727,2.085-.557,4.544-.838,6.72-.583,4.526-2.187,8.476-5.738,11.49-.191.163-.128.582.633.033,2.2-1.589,3.532-4.132,4.63-7.387,1.048-3.1,1.212-6.35,1.546-9.582.251-2.431,1.56-4.274,2.873-6.285a69.426,69.426,0,0,0,4.213-6.925c.851-1.712,1.854-4.213.771-6.07C136.445,134.668,135.938,134.967,136.312,135.34Z"/><path class="h" d="M137.141,127.839c-.863.438-6.328,3.177-4.346,5.607a3.194,3.194,0,0,0,3.537,1.156c1.705-.775,1.49-3.485,2.736-5.88C139.331,128.217,137.6,127.6,137.141,127.839Z"/><path class="f" d="M137.42,129.022a.931.931,0,0,1-.417-.493.09.09,0,0,1,.171-.053.764.764,0,0,0,.368.409,1.155,1.155,0,0,0,.909-.029.09.09,0,0,1,.062.168,1.322,1.322,0,0,1-1.052.02C137.447,129.037,137.433,129.03,137.42,129.022Z"/><path class="f" d="M135.546,134.4a.094.094,0,0,1-.044-.057.09.09,0,0,1,.066-.108c.9-.22,1.674-2.439,1.966-3.275a3.594,3.594,0,0,1,.139-.372.09.09,0,0,1,.122-.034.089.089,0,0,1,.034.121c-.018.033-.068.177-.127.344-.329.942-1.1,3.146-2.092,3.39A.089.089,0,0,1,135.546,134.4Z"/><path class="f" d="M132.816,132.6a.09.09,0,0,1-.044-.092c.232-1.447,3.194-3.792,3.32-3.891a.089.089,0,1,1,.111.14c-.03.024-3.034,2.4-3.255,3.779a.089.089,0,0,1-.1.074A.1.1,0,0,1,132.816,132.6Z"/><path class="f" d="M135.759,133.022a.107.107,0,0,1-.023-.02.089.089,0,0,1,.008-.126,8.09,8.09,0,0,0,1.365-2.938.089.089,0,1,1,.173.045,8.054,8.054,0,0,1-1.42,3.028A.093.093,0,0,1,135.759,133.022Z"/><path class="f" d="M133.913,133.866a.09.09,0,0,1-.045-.075c-.047-1.362,2.17-3.971,2.265-4.081a.088.088,0,0,1,.125-.01.089.089,0,0,1,.01.126c-.022.027-2.266,2.666-2.222,3.959a.089.089,0,0,1-.086.092A.084.084,0,0,1,133.913,133.866Z"/><path class="f" d="M134.79,133.741a.087.087,0,0,1-.045-.091,9.526,9.526,0,0,1,1.383-2.672.087.087,0,0,1,.124-.021.089.089,0,0,1,.022.124,9.621,9.621,0,0,0-1.353,2.6.089.089,0,0,1-.1.076A.078.078,0,0,1,134.79,133.741Z"/><path class="f" d="M111.389,123.11a2.136,2.136,0,0,0-2.664,1.4,2.789,2.789,0,0,0-3.151-.892,3,3,0,0,0-1.912,2.578c-.569-.521-2.594-.893-3.167.335-1.563,3.349,2.59,10.319,4.4,10.971a2.687,2.687,0,0,0,3.071-1.368c.439.808,3.015.015,2.979-.863.779.979,2.711.6,3.431-.515C115.787,132.569,114.048,123.676,111.389,123.11Z"/><path class="d" d="M107.525,124.631a1.191,1.191,0,0,1-.441-.015c-.075-.172-.186-.3-.335-.249a.965.965,0,0,1-.923-.016,4.182,4.182,0,0,1-.372-.371,2.421,2.421,0,0,1-.255-3.117c.253-.387-.4-1.617-.621-1.273a4.5,4.5,0,0,0,.6,5.246,1.416,1.416,0,0,1-.238.088c-.07.018-.082.123-.091.176a.587.587,0,0,1-.331.428c-.244.147,0,.8.241.853s.356.435.445.639c.066.153.209.19.207-.009,0-.049-.006-.1-.01-.146.716.439,2-.085,2.625-.388.251-.121.125-.6-.07-.89C108.094,125.328,107.847,124.567,107.525,124.631Z"/><path class="f" d="M106.166,125.174c-4.638,1.175-1.421,7.68.6,11.165,1.784,3.069,5.214,1.643,5.019-1.777C111.562,130.58,111,123.948,106.166,125.174Z"/><path class="j" d="M124.574,133.65a1.144,1.144,0,0,0,.181-.051c1.771-.5,3.653-1.908,4.027-3.79a4.2,4.2,0,0,0-3.221-4.783c-1.733-.306-1.157,1.056-3.169.71-4.038-.694-5.431,3.314-4.14,5.927.99,2.005,4.07,2.383,6.157,2.018A1.277,1.277,0,0,0,124.574,133.65Z"/><path class="j" d="M115.451,126.027a.75.75,0,0,0,.169-.085c1.551-.793,3-2.809,2.323-4.808a5.021,5.021,0,0,0-1.751-1.951c-.662-1.517.137-2.625-2.414-3.675a3.909,3.909,0,0,0-4.477,1.251,5.523,5.523,0,0,0-.08,6.435c1.419,2.231,3.916,3.583,6.061,2.891A.788.788,0,0,0,115.451,126.027Z"/><path class="d" d="M124.065,125.645c.857-1.108,3.36-.977,3.36-.977s-.065-.049-.188-.126a3.112,3.112,0,0,0-.542-.282c-.12-.047-.253-.1-.4-.141s-.31-.067-.481-.094a4.506,4.506,0,0,0-.551-.014,2.91,2.91,0,0,0-.6.109,2.518,2.518,0,0,0-1.032.587,2.6,2.6,0,0,0-.217.234c-.449-1.5-1.3-2.845-1.826-4.319,1.43-2.076,2.953-4.038,2.719-5.568a54.2,54.2,0,0,1-.4-6.145c-.048-.826-.868.424-.843.858.146,2.5-.448,3.2.164,5.631-.265.987-.6,1.076-1.251,1.94-.809.666-4.779.772-5.535,1,.034-.052.205-.33.238-.387a2.813,2.813,0,0,0,.387-1.347,2.494,2.494,0,0,0-.41-1.441,4.453,4.453,0,0,0-1.61-1,2.28,2.28,0,0,0-.273-.018c1.56,1.341.84,4.685.411,4.37a2.054,2.054,0,0,1-.33-.194,2.944,2.944,0,0,1-.306-.278c-.2-.213-.408-.485-.727-.824a3.827,3.827,0,0,0-1.225-.9,2.127,2.127,0,0,0-1.407-.122,2.085,2.085,0,0,0-.765.4,2.994,2.994,0,0,0-.22.211s.111.025.291.058a3.189,3.189,0,0,1,.673.219c.511.242.709.653,1.364,1.364a3.6,3.6,0,0,0,1.265.9,2.1,2.1,0,0,0,1,.147,3.807,3.807,0,0,0-.432,1.287,3.284,3.284,0,0,0,.5,2.286,1.884,1.884,0,0,0,.544.534,1.143,1.143,0,0,0,.182.094l.065.026c-.777-1.957.843-3.281.658-4.512a9.112,9.112,0,0,1,2.656-.394,21.379,21.379,0,0,0,3.067-.317,15.993,15.993,0,0,0-1.018,1.631c-.14.22-.415.732-.277,1.012a.353.353,0,0,0,.013.077c.524,1.7,1.376,2.752,1.83,4.441a4.336,4.336,0,0,0-4.428-.062c2.262.136,3.327,1.677,4.831.738,1.434.664,1.871,2.428,3.481,2.665C125.89,128.292,126.674,125.577,124.065,125.645Z"/><path class="i" d="M97.285,142.954c-1.787,2.01-.877,5.224,1.272,6.8,2.421,1.775,3.9,2.412,6.045,1.8,2.739-.78,2.541-5.331.928-7C101.926,140.834,99.557,140.4,97.285,142.954Z"/><path class="j" d="M101.839,143.178c-.036.146.24.338.615.429s.709.046.744-.1-.241-.338-.616-.429S101.874,143.032,101.839,143.178Z"/><path class="j" d="M102.273,147.333c-.059.243.18.51.535.6s.689-.043.748-.286-.18-.51-.535-.6S102.332,147.089,102.273,147.333Z"/><path class="j" d="M98.362,144.336c-.036.146.2.328.53.408s.622.025.657-.121-.2-.329-.53-.408S98.4,144.19,98.362,144.336Z"/><path class="i" d="M103.019,138.1c-2.42,2.907.726,6.136,2.4,6.972,4.639,2.314,6.293,1.583,7.239.243,1.208-1.711,1.205-5.119-2.049-7.443C108.858,136.625,104.506,136.32,103.019,138.1Z"/><path class="j" d="M108.151,143.836c.023-.169-.243-.344-.594-.392s-.655.048-.678.217.243.344.594.392S108.128,144,108.151,143.836Z"/><path class="j" d="M105.458,138.553c.024-.169-.242-.345-.594-.393s-.655.049-.678.218.243.344.594.392S105.435,138.721,105.458,138.553Z"/><path class="j" d="M111.12,141.319c.023-.184-.351-.383-.836-.443s-.9.041-.919.226.352.382.836.442S111.1,141.5,111.12,141.319Z"/><path class="j" d="M110.3,154.491c-1.026-2.634-6.917-7.667-12.72-2.012-4.272,4.164-4.816,9.184-2.545,11.612a7.837,7.837,0,0,0,7.321,2.508,11.714,11.714,0,0,0,6.679-3.473A8.355,8.355,0,0,0,110.3,154.491Z"/><path class="h" d="M101.923,156.6a4.785,4.785,0,0,1,2.16-.175,17.479,17.479,0,0,1,6.642,2.52c.057.035-.029.2-.172.118a15.294,15.294,0,0,0-6.332-2.379,4.764,4.764,0,0,0-2.043.076c-.1.038-.266-.156-.255-.16Z"/><path class="h" d="M101.014,157.085a5.089,5.089,0,0,0-1.471,1.588,18.928,18.928,0,0,0-2.079,6.942c0,.034-.2.375-.2-.115a15.688,15.688,0,0,1,2.066-6.824,5.044,5.044,0,0,1,1.411-1.753c.082-.045.154.051.148.045Z"/><path class="h" d="M100.878,156.778a6.792,6.792,0,0,0-2.856,1.02,10.574,10.574,0,0,0-3.68,4.041c-.013.027-.254.083-.071-.266a10.439,10.439,0,0,1,3.763-4.007,6.325,6.325,0,0,1,2.618-.9.356.356,0,0,1,.226.109Z"/><path class="h" d="M101.961,156.3a6.793,6.793,0,0,1,2.659-2.712,8.11,8.11,0,0,1,3.73-1.254c.465-.039.329.208.312.209a7.527,7.527,0,0,0-4.027,1.274,6.884,6.884,0,0,0-2.482,2.7c-.01.024-.23-.131-.192-.217Z"/><path class="h" d="M101.959,157.094a36.855,36.855,0,0,0,6.769,6.134c.067.049.021.265-.175.121a40.535,40.535,0,0,1-6.724-6.126c-.159-.185-.04-.282.021-.227Z"/><path class="h" d="M101.247,157.294a10.957,10.957,0,0,0,.22,2.985,11.857,11.857,0,0,0,2.375,5.637c.206.285-.125.215-.245.047a13.566,13.566,0,0,1-2.406-5.786,10.125,10.125,0,0,1-.113-3.1c0-.009.192.031.121.178Z"/><path class="h" d="M101.718,156.1c-.306-1.923-.406-4.353.872-6.044.2-.271.357-.059.314-.013-1.435,1.553-1.358,4.183-1.051,6.11,0,.009-.118.052-.135-.053Z"/><path class="h" d="M100.921,156.526c-1.259-.825-3.558-2.243-5.08-1.483-.087.043-.3-.038.006-.182,1.6-.752,3.74.618,5.045,1.473.071.046.3.32.1.187Z"/><path class="h" d="M101.386,156.216a37.661,37.661,0,0,1-2.982-4.207c-.034-.056-.093-.385.2.06a47.583,47.583,0,0,0,3.04,4.2c.155.189-.143-.013-.2-.077Z"/><path class="h" d="M102.213,157.041c.087-.1.192-.213.206-.882.027-1.352-1.5-.9-2.1-.091-.478.641.308,1.142.9,1.5C101.417,157.691,102,157.276,102.213,157.041Z"/><path class="f" d="M101.855,155.719a.838.838,0,0,0-1.042.32c-.042.062-.147.01-.105-.052a.958.958,0,0,1,1.2-.373c.069.032.016.136-.053.1Z"/><path class="f" d="M102.115,155.832a.062.062,0,0,0-.01-.041.058.058,0,0,0-.082-.014c-.353.248-1.336.838-1.648.586a.059.059,0,0,0-.082.009.058.058,0,0,0,.008.082c.437.354,1.652-.485,1.789-.581A.06.06,0,0,0,102.115,155.832Z"/><path class="f" d="M102.271,156.771a2.736,2.736,0,0,0-.015-.57l0-.05a.059.059,0,0,0-.062-.056.058.058,0,0,0-.055.062c0,.009,0,.029,0,.056.051.505.009.631-.021.661a.059.059,0,1,0,.084.082A.325.325,0,0,0,102.271,156.771Z"/><path class="f" d="M101.445,157.362a.059.059,0,0,0-.039-.063,1.705,1.705,0,0,1-.475-.367.059.059,0,0,0-.093.071,1.756,1.756,0,0,0,.529.406.059.059,0,0,0,.075-.035Z"/><path class="f" d="M101.953,156.778s-.053-.26-.084-.381a.059.059,0,0,0-.114.029c.031.12.083.375.083.375Z"/><path class="f" d="M101.9,157.214h0c-.021-.013-.034-.086-.066-.09-.084-.011-.288-.278-.352-.362-.028-.037-.053-.07-.062-.079a.06.06,0,0,0-.085,0,.058.058,0,0,0,0,.082.7.7,0,0,1,.049.061c.147.191.315.4.438.419C101.85,157.245,101.919,157.227,101.9,157.214Z"/><path class="a" d="M95.38,144.847c2.168-8.567,3.881-17.268,6.328-25.762.346-1.2.6-2.791.848-3.5a45.449,45.449,0,0,1,6.142-.11,136.2,136.2,0,0,1,20.194,3.486c3.159.824,6.311,1.721,9.381,2.837a16.973,16.973,0,0,1,5.356,2.577c.961.834,1.062,1.332,1.062,1.332-.455,2.732-1.7,7.009-2.358,9.7-1.627,6.658-3.419,13.273-5.115,19.913-1.272,4.979-1.562,10.68-4.691,14.932-1.856,2.523-4.085,2.895-7.013,2.613-3.8-.365-7.573-.99-11.334-1.611a96.326,96.326,0,0,1-10.547-2.414c-2.208-.625-4.412-1.277-6.587-2.01a5.9,5.9,0,0,1-3.01-1.824c-1.748-2.206-1.646-5.52-1.391-8.157a52.106,52.106,0,0,1,1.992-9.466c.246-.845.52-1.683.743-2.535a.276.276,0,0,1,.537.13c-1.353,5.16-3.35,10.459-2.763,15.888a6.922,6.922,0,0,0,1.573,4.1c1.125,1.181,2.986,1.519,4.49,1.99a113.394,113.394,0,0,0,11.976,3.228c3,.588,6.036,1.025,9.057,1.464,1.857.27,3.72.534,5.59.7a7.07,7.07,0,0,0,3.986-.381c3.221-1.636,4.453-6.088,5.226-9.318.433-1.807.686-3.647,1.126-5.453,1.381-5.666,2.936-11.292,4.375-16.944.768-3.018,1.527-6.04,2.215-9.078.264-1.164.522-2.331.736-3.5a6.282,6.282,0,0,0,.276-2.106c-.266-1.191-2.334-1.88-3.327-2.312a65.7,65.7,0,0,0-7.943-2.72,163.552,163.552,0,0,0-18.986-4.294,53.541,53.541,0,0,0-7.508-.852c-1.645-.034-2.821-.585-3.178,1.105-.646,3.064-1.655,6.637-2.414,9.737-1.06,4.329-2.064,8.671-3.1,13.006-.459,1.919-.923,3.836-1.407,5.748A.276.276,0,0,1,95.38,144.847Z"/><path class="a" d="M136.075,160.221a122.612,122.612,0,0,0-11.607,12.209c-.228.274-.625-.11-.4-.383a122.611,122.611,0,0,1,11.607-12.209c.261-.238.662.142.4.383Z"/><path class="a" d="M137.624,153.239c-7.7,5.551-14.411,12.377-21.937,18.149-.282.216-.568-.257-.288-.472,7.526-5.771,14.232-12.6,21.937-18.149.289-.208.575.265.288.472Z"/><path class="a" d="M140.007,143.926a187.531,187.531,0,0,1-15.628,12.989c-5.447,3.946-11.121,7.756-15.251,13.159-.215.282-.612-.1-.4-.383,3.9-5.1,9.175-8.793,14.332-12.5a192.279,192.279,0,0,0,16.547-13.643c.262-.237.663.144.4.383Z"/><path class="a" d="M142.306,135.337c-1.362,1.968-3.8,3.465-5.668,4.9-3.23,2.495-6.525,4.906-9.832,7.3-2.108,1.524-4.243,3.011-6.349,4.536a106.424,106.424,0,0,0-8.377,7.281c-3.359,3.017-6.736,6.434-10.641,8.753a.276.276,0,0,1-.288-.471c3.477-2.065,6.5-5.054,9.5-7.737,2.895-2.588,5.7-5.335,8.761-7.729,4.815-3.764,9.97-7.12,14.851-10.8,1.644-1.241,3.282-2.492,4.873-3.8a13.794,13.794,0,0,0,2.691-2.5c.2-.289.686-.025.484.268Z"/><path class="a" d="M143.991,127.812a67.485,67.485,0,0,1-10.2,7.871c-3.1,2.124-6.266,4.143-9.436,6.162a63.161,63.161,0,0,0-5.9,4.587q-5.6,4.588-11.082,9.332c-3.818,3.3-7.641,6.625-11.212,10.2-.251.251-.651-.131-.4-.383,6.566-6.566,13.8-12.526,20.96-18.431,2.214-1.827,4.407-3.787,6.78-5.411,2.538-1.736,5.2-3.3,7.762-5.009,4.222-2.822,8.751-5.659,12.329-9.3.249-.253.648.129.4.383Z"/><path class="a" d="M141.348,123.588a103.839,103.839,0,0,1-13.077,8.683c-4.483,2.688-8.16,6.64-12.331,9.789s-8.466,6.115-12.309,9.649c-3.64,3.347-6.37,7.659-10.43,10.534-.293.208-.567-.26-.287-.471l.54-.408c.284-.214.569.259.288.471l-.541.408-.287-.471c4.257-3.016,7.125-7.612,11.008-11.071,3.544-3.156,7.435-5.888,11.225-8.732,2.076-1.558,4.127-3.15,6.076-4.864a49.943,49.943,0,0,1,5.624-4.6c4.77-3.1,9.683-5.654,14.1-9.3.271-.224.672.156.4.383Z"/><path class="a" d="M136.071,121.572c-8.142,2.88-15.257,8.36-22.053,13.556a160.47,160.47,0,0,0-20.343,18.248c-.242.261-.64-.122-.4-.383a161.248,161.248,0,0,1,20.453-18.336c6.84-5.23,13.987-10.715,22.183-13.614.336-.119.493.411.158.529Z"/><path class="a" d="M128.717,119.4c-5.307,3.643-11.362,5.945-16.84,9.3A70.82,70.82,0,0,0,96.852,141.03c-.241.261-.639-.121-.4-.383a71.5,71.5,0,0,1,14.579-12.077c5.63-3.523,11.91-5.875,17.4-9.641.294-.2.58.271.288.471Z"/><path class="a" d="M122.163,117.885c-4.022,1.958-7.949,4.094-11.833,6.312-3.726,2.127-7.6,4.157-11.115,6.617-.292.2-.579-.269-.288-.472,3.52-2.459,7.389-4.489,11.116-6.617,3.883-2.217,7.81-4.354,11.832-6.311.317-.155.608.315.288.471Z"/><path class="a" d="M113.326,116.154c-2,.534-3.595,1.993-5.515,2.758a53.321,53.321,0,0,0-6.386,3.018c-.309.174-.6-.3-.287-.471a46.144,46.144,0,0,1,5.935-2.862c2.119-.818,3.453-2.194,5.647-2.778.344-.092.95.244.606.335Z"/><path class="a" d="M104.81,169.051c-4.317-4.127-8.659-8.261-11.984-13.26-.2-.3.274-.583.471-.288,3.3,4.961,7.613,9.055,11.9,13.15a.276.276,0,0,1-.383.4Z"/><path class="a" d="M112.807,170.754c-3.157-4.3-6.165-8.79-9.553-12.917-2.821-3.437-5.86-6.681-8.6-10.189-.219-.28.254-.565.471-.288,2.855,3.655,6.074,7,8.954,10.629,3.209,4.04,6.149,8.317,9.2,12.477.21.287-.263.573-.472.288Z"/><path class="a" d="M121.357,172.261c-3.73-6.738-8.787-12.86-13.47-18.943q-3.555-4.617-7.164-9.192c-1.23-1.567-2.586-3.1-3.686-4.767-.2-.3.275-.584.471-.287,1.1,1.665,2.456,3.2,3.687,4.766q3.6,4.584,7.163,9.192c4.684,6.084,9.74,12.205,13.47,18.943.172.31-.3.6-.471.288Z"/><path class="a" d="M130.007,172.057c-9.77-13.747-20.323-26.907-31.36-39.655-.231-.266.15-.668.383-.4,11.068,12.783,21.651,25.98,31.448,39.765.207.291-.266.577-.471.288Z"/><path class="a" d="M133.619,167.306c-1.71-4.315-4.168-7.709-6.966-11.366s-5.572-7.288-8.366-10.926c-5.646-7.352-11.371-14.645-17.5-21.606-.233-.265.147-.666.383-.4,6.155,7,11.909,14.327,17.583,21.716q4.3,5.6,8.582,11.209a46.192,46.192,0,0,1,6.808,11.212c.132.331-.4.487-.529.159Z"/><path class="a" d="M135.921,158.318c-.3-2.082-1.781-3.924-3-5.556-1.457-1.946-3.051-3.782-4.665-5.6a120.825,120.825,0,0,1-8.094-9.615c-1.333-1.856-2.557-3.795-4.026-5.551-1.214-1.449-2.614-2.731-3.8-4.209-3.063-3.829-5.386-8.121-8.629-11.839-.232-.266.148-.667.383-.4,3.127,3.585,5.437,7.657,8.305,11.42,1.4,1.834,3.125,3.376,4.565,5.175s2.675,3.763,4.039,5.624c2.9,3.957,6.361,7.45,9.542,11.173,2.227,2.607,5.429,5.82,5.931,9.355.05.352-.5.366-.552.018Z"/><path class="a" d="M137.863,150.674c-4.105-6.281-8.024-12.705-12.848-18.471-4.347-5.2-9.046-10.116-12.726-15.832-.193-.3.279-.587.471-.287,3.889,6.039,8.923,11.18,13.461,16.714,4.518,5.509,8.222,11.634,12.114,17.588.195.3-.277.586-.472.288Z"/><path class="a" d="M140.093,142.381q-8.787-11.934-17.151-24.172c-.2-.293.271-.58.472-.287q8.381,12.222,17.151,24.171c.211.286-.262.572-.472.288Z"/><path class="a" d="M141.8,135.51a73.63,73.63,0,0,0-10.242-15.286c-.229-.267.151-.668.384-.4a74.248,74.248,0,0,1,10.33,15.4c.157.317-.313.607-.472.288Z"/><path class="a" d="M143.248,129.334c-1.213-2.218-2.292-4.842-4.143-6.6a.276.276,0,0,1,.383-.4c1.9,1.806,2.99,4.445,4.232,6.714.17.311-.3.6-.472.288Z"/><path class="a" d="M142.932,126.279a31.651,31.651,0,0,0-8.543-3.664,123.03,123.03,0,0,0-12.034-3.083c-3.819-.8-7.669-1.478-11.541-1.963-2.219-.277-6.069-.745-8.215-.19-.444.115-.317-2.315.528-2.321a61.123,61.123,0,0,1,7.5.278c3.962.466,7.9,1.151,11.807,1.956a124.478,124.478,0,0,1,12.476,3.175,35.681,35.681,0,0,1,9.323,4.031c1.166.792-.052,2.376-.342,2.354Z"/><path class="j" d="M134.427,121.486a6.068,6.068,0,0,1-5.528,5.682,6.143,6.143,0,0,1-6.037-5.229c-.192-4.113,4.743-2.608,5.669-2.651C129.794,119.229,134.241,117.5,134.427,121.486Z"/><path class="d" d="M132.6,118.093l-.12-.048c-.044-.014-.093-.025-.146-.037a1.792,1.792,0,0,0-.372-.055c-.07,0-.144-.008-.221-.007s-.154.011-.235.019a1.728,1.728,0,0,0-.248.038c-.083.017-.173.034-.257.057a6.2,6.2,0,0,0-1.014.384c-.164.081-.316.151-.462.228s-.282.143-.414.2-.261.109-.384.163c-.061.023-.12.042-.178.061l.009-.032a2.119,2.119,0,0,0-.061-1.11c-.11-.355-.257-.624-.333-.862a1.494,1.494,0,0,1-.071-.306c-.01-.081-.013-.132-.013-.132a.691.691,0,0,0-.114.076.927.927,0,0,0-.24.3,1.39,1.39,0,0,0-.15.545,1.792,1.792,0,0,0,.075.641,2.8,2.8,0,0,0,.3.631,4.538,4.538,0,0,1-1.264-1.759.175.175,0,0,0-.029-.051.138.138,0,0,0-.058-.053,8.317,8.317,0,0,0-3.079-.661c-.185,0-.164.638.046.644a8.124,8.124,0,0,1,2.889.6c.01.031.021.06.032.087a5.2,5.2,0,0,0,1.061,1.62c-.2,0-.424,0-.667-.023-.285-.024-.595-.058-.926-.088-.661-.062-1.289-.093-1.755-.135a4.065,4.065,0,0,1-.554-.077.954.954,0,0,1-.15-.046l-.052-.025s0,.018.017.057a.687.687,0,0,0,.083.154,2.009,2.009,0,0,0,.445.448,3.675,3.675,0,0,0,1.864.726,3.351,3.351,0,0,0,1.125-.086,2.633,2.633,0,0,0,.865-.39q.08-.057.147-.114c0,.016,0,.03.008.047a1.864,1.864,0,0,0,.124.355,3.027,3.027,0,0,0,.2.355c.145.227.312.439.42.606a1.3,1.3,0,0,1,.205.436,1.864,1.864,0,0,1,.01.56c-.021.188-.046.355-.061.472s-.02.187-.02.187a1.886,1.886,0,0,0,.165-.092,2.271,2.271,0,0,0,.407-.313,1.554,1.554,0,0,0,.428-.72,1.353,1.353,0,0,0,.018-.577,1.538,1.538,0,0,0-.227-.56,2.37,2.37,0,0,0-.656-.634,1.966,1.966,0,0,0,.332-.017,3.234,3.234,0,0,0,.565-.114,4.143,4.143,0,0,0,.55-.214,7.54,7.54,0,0,0,.913-.528l.189-.121c.061-.041.12-.079.178-.112l.168-.1.16-.085a2.593,2.593,0,0,1,.291-.139c.045-.019.087-.04.127-.056l.111-.035.218-.075S132.739,118.153,132.6,118.093Z"/><path class="a" d="M135.92,123.084a1.223,1.223,0,0,1-1.163-1.6c4.1-12.779,13.45-47.447,7.564-54.31a3.024,3.024,0,0,0-3.033-.964A1.222,1.222,0,0,1,138.9,63.8a5.461,5.461,0,0,1,5.272,1.787c7.839,9.14-5.54,51.811-7.092,56.647A1.222,1.222,0,0,1,135.92,123.084Z"/><path class="j" d="M147.771,53.825l-1.01,12.969c0,3.838,12.76,4.981,12.915.809l.4-5.629Z"/><path class="b" d="M168.672,52.358a20.075,20.075,0,0,1-.035,2.7,11.3,11.3,0,0,1-1.007,3.481c-1.4,2.933-3.776,6.937-6.916,7.241-6.873.668-13.741-6.317-12.336-14.367,1.227-7.024,8.841-18.468,10.74-14.151,2.947,6.7,6.872,4.441,9.02,8.6a7.311,7.311,0,0,1,.656,4.386C168.733,51.032,168.665,51.713,168.672,52.358Z"/><path class="d" d="M162.965,34.952s-9.915-11.806-19.458-3.987c-3.3,2.7-9.723,1.943-12.3,8.378-1.329,3.317-.265,8.305-4.129,13.144-8.743,10.948,4.189,24.4,6.09,17.759.963-3.362,10.169-.892,14.1-4.1,4.931-4.02,4.921-10.511,3.986-14.676-.068-.3-.149-.608-.226-.92h0a4.149,4.149,0,0,1,.184-2.9c1.4-2.706,11.218-3.779,9.852-10.425C159.772,30.945,162.965,34.952,162.965,34.952Z"/><path class="e" d="M131.507,103.962a.3.3,0,0,0,.14-.035c2.318-1.216,3.479-3.717,4.707-6.365s2.613-5.632,5.382-7.9a.3.3,0,0,0-.382-.464c-2.875,2.359-4.293,5.418-5.545,8.116-1.236,2.664-2.3,4.964-4.442,6.086a.3.3,0,0,0,.14.567Z"/><path class="e" d="M175.251,109.628c.16,0,.293.016.3-.145a54.8,54.8,0,0,0-2.965-20.849.287.287,0,0,0-.391-.131.321.321,0,0,0-.167.409,53.66,53.66,0,0,1,2.922,20.535c-.007.166.121.181.287.181Z"/></g><text class="k" transform="translate(95.668 372.289)"><tspan x="0" y="0">Cliente</tspan></text></g></svg>