<svg xmlns="http://www.w3.org/2000/svg" xmlns:xlink="http://www.w3.org/1999/xlink" width="391.595" height="510.914" viewBox="0 0 391.595 510.914"><defs><style>.a{opacity:0.9;}.b{fill:#eaf6f1;}.c{fill:url(#a);}.d{fill:url(#b);}.e{fill:url(#c);}.f{fill:url(#d);}.g{fill:url(#e);}.h{fill:url(#f);}</style><linearGradient id="a" x1="-0.197" y1="0.503" x2="-1.489" y2="0.503" gradientUnits="objectBoundingBox"><stop offset="0" stop-color="#dabbc3"/><stop offset="1" stop-color="#d59ba8"/></linearGradient><linearGradient id="b" x1="-17.759" y1="-1.348" x2="-16.906" y2="-0.347" gradientUnits="objectBoundingBox"><stop offset="0" stop-color="#8ab9e4"/><stop offset="1" stop-color="#4a93d0"/></linearGradient><linearGradient id="c" x1="16.425" y1="-0.91" x2="15.541" y2="-0.91" gradientUnits="objectBoundingBox"><stop offset="0" stop-color="#599dd6"/><stop offset="1" stop-color="#215c9e"/></linearGradient><linearGradient id="d" x1="1" y1="0.5" x2="0" y2="0.5" gradientUnits="objectBoundingBox"><stop offset="0" stop-color="#4b9ad5"/><stop offset="1" stop-color="#195c9f"/></linearGradient><linearGradient id="e" x1="1" y1="0.5" x2="0" y2="0.5" gradientUnits="objectBoundingBox"><stop offset="0" stop-color="#cce9fa"/><stop offset="1" stop-color="#93c6eb"/></linearGradient><linearGradient id="f" x1="1" y1="0.5" x2="0" y2="0.5" gradientUnits="objectBoundingBox"><stop offset="0" stop-color="#144980"/><stop offset="1" stop-color="#001c3b"/></linearGradient></defs><g class="a"><path class="b" d="M271.724,1316.372c24.9,0,125.375,2.069,125.609-11.586.333-19.465-100.807-12.042-125.712-12.042S246.82,1316.372,271.724,1316.372Z" transform="translate(-163.513 -805.569)"/><g transform="translate(0 0)"><path class="c" d="M310.445,1090.767a31.049,31.049,0,0,1,2.15-3.7c.271-.423.542-.843.857-1.345l1.09-1.426c.79-1.041,1.574-2.076,2.383-3.056l7.034-8.8a218.167,218.167,0,0,0,13.085-18.242,111.5,111.5,0,0,0,10.154-19.909,88.3,88.3,0,0,0,3.334-10.639c.349-1.515.661-3.052.977-4.589.439-2.143.892-4.354,1.448-6.52a79.8,79.8,0,0,1,3.563-10.977,94.37,94.37,0,0,1,5.158-10.292,84.591,84.591,0,0,1,14.009-18.087,74.238,74.238,0,0,1,18.483-13.2,60.493,60.493,0,0,1,10.572-4.229,57.521,57.521,0,0,1,11.176-1.806,44.86,44.86,0,0,1,5.786-.081c1.62.074,3.369.217,5.55.46a48,48,0,0,1,10.919,2.929,28.939,28.939,0,0,1,16.692,15.692c.152.547.331,1.086.507,1.627a16.153,16.153,0,0,1,.965,4.108l.386,3.045-.013,2.864a44.943,44.943,0,0,1-2.059,11.6c-2.416,7.779-6.469,14.754-10.08,20.68-1.005,1.649-2.024,3.284-3.042,4.915-2.874,4.6-5.846,9.371-8.309,14.26l-.9,3.781c-.116.837-.172,1.687-.235,2.534-.035.512-.07,1.016-.113,1.423.014.854.084,1.7.151,2.551.041.506.081,1.011.094,1.392l.811,3.925,1.3,3.843,1.649,3.742,1.9,3.653,6.412,10.794,2.139,3.681,2.017,3.792,1.816,3.949,1.5,4.139,1.068,4.326.481,4.195c.006.021.008.048.013.074l.01.1h0l.024.33a27.666,27.666,0,0,1,.123,3.706,29.085,29.085,0,0,1-.5,4.129,28.582,28.582,0,0,1-2.748,7.739,29.126,29.126,0,0,1-4.789,6.641l-5.385,5.394c-8.278,8.621-14.093,16.183-18.3,23.808a60.5,60.5,0,0,0-3.235,6.726,52.331,52.331,0,0,0-2.3,7,42.36,42.36,0,0,0-1.09,7.251,34.286,34.286,0,0,0,.337,7.276,33.815,33.815,0,0,0,1.809,7.006,39.137,39.137,0,0,0,3.142,6.538,52.05,52.05,0,0,0,4.168,5.945l2.408,2.762,2.636,2.684a1.886,1.886,0,0,1,.275.363,80.935,80.935,0,0,1,6.613,13.581,43.689,43.689,0,0,1,2.8,15.238,40.243,40.243,0,0,1-.8,7.785c-.078.44-.182.876-.288,1.313l-1.046,3.6c-.252.837-.506,1.671-.806,2.527a54.474,54.474,0,0,1-7.568,13.519,58.058,58.058,0,0,1-11.095,10.443,71.79,71.79,0,0,1-13.151,7.251,107.209,107.209,0,0,1-28.557,7.24,111.9,111.9,0,0,1-11.658,1.05c-.014,1.9-.01,3.745-.007,5.474v11.961c.007,4.61,0,8.8-.017,12.645l.351,20.371-3.917.6.417-20.877c-.077-3.847-.148-8.052-.214-12.673l-.187-11.964c-.031-1.667-.063-3.53-.082-5.481-.916-.007-1.838-.006-2.723-.046a61.629,61.629,0,0,1-11.327-1.526,45.316,45.316,0,0,1-13.751-5.671,35.639,35.639,0,0,1-10.817-10.471A38,38,0,0,1,316.421,1255a58.447,58.447,0,0,1-.653-15.164,74.84,74.84,0,0,1,2.782-14.882,89.3,89.3,0,0,1,5.306-14.015,65.135,65.135,0,0,0,2.452-15.523c-.211-2.409-.373-4.816-.537-7.223-.28-4.188-.573-8.523-1.124-12.739-.98-7.562-2.838-13.657-5.748-18.782-.918-2.522-1.856-5.037-2.789-7.547-1.684-4.523-3.367-9.048-4.979-13.615-2.026-5.944-4.431-13.844-5.07-22.225A41.367,41.367,0,0,1,310.445,1090.767Zm72.91-102.906c-.063-.382-.123-.766-.194-1.138a28.74,28.74,0,0,1-.446-3.393l-.076-.868c-.071-.836-.144-1.67-.151-2.523l.024-3.306a17.35,17.35,0,0,1,.176-2.407c.041-.333.08-.668.126-1.127a25.027,25.027,0,0,1,.411-2.646,72.723,72.723,0,0,0-5.607,4.835A81.624,81.624,0,0,0,364.049,992.7a90.948,90.948,0,0,0-5.028,9.935,77.407,77.407,0,0,0-3.5,10.569c-.549,2.094-1.011,4.263-1.451,6.363-.327,1.556-.658,3.119-1.03,4.7-.531,2.051-1.083,3.974-1.665,5.79a.773.773,0,0,1,.158.331,37.964,37.964,0,0,0,1.381,4.888c.547,1.557,1.233,3.443,2.069,5.586.707,1.823,1.567,3.811,2.494,5.956l.5,1.157c1.225,2.811,2.516,5.592,3.841,8.254l.442.878c1.327,2.642,2.7,5.369,4.272,8.109a78.648,78.648,0,0,0,5.677,9.017,28.978,28.978,0,0,0,3.451,3.927,11.079,11.079,0,0,0,1.872,1.374l.366.166a2.673,2.673,0,0,0,.52.21c.027,0,.123.034.215.062l5.58-24.96c.913-3.618,1.894-7.164,2.86-10.65q.719-2.589,1.412-5.14l2.087-7.582c.461-1.619.991-3.2,1.517-4.768.284-.839.568-1.675.835-2.522l2.579-7.751c-1.074-1.554-2.115-3.18-3.149-4.978-1.128-1.923-2.177-3.9-3.116-5.86a64.132,64.132,0,0,1-2.622-6.111c-.73-1.887-1.409-3.971-2.086-6.4l-.767-3.222C383.591,989.317,383.472,988.59,383.355,987.861ZM416.063,957a55.036,55.036,0,0,0-10.541,1.656,57.59,57.59,0,0,0-10.088,4,70.439,70.439,0,0,0-9.677,5.853l-.2,1.738a20.113,20.113,0,0,0-.175,3.091c.008.438-.008.872-.028,1.31a13.208,13.208,0,0,0,.01,1.883l.219,3.219c.042.615.143,1.223.242,1.831.071.44.144.879.2,1.332a25.412,25.412,0,0,0,.538,3.068c.089.382.171.765.25,1.149.133.65.266,1.3.454,1.944l.867,3.054,1.018,3.066c.239.783.537,1.545.832,2.3l.257.664c.366.99.772,1.958,1.194,2.936l.291.688c.31.744.621,1.489.98,2.224,1.436,3.091,2.839,5.8,4.259,8.21l.541-1.633,1.712-4.386c2.68-6.889,5.207-13.4,7.966-19.005l1.654-3.606,3.036-5.9c.471-.86.918-1.711,1.354-2.536,1.009-1.919,1.965-3.732,3.021-5.326.516-.809,1-1.6,1.457-2.351.832-1.363,1.617-2.65,2.422-3.778l1.269-1.782c.682-.963,1.29-1.82,1.872-2.582l1.751-2.133A47.957,47.957,0,0,0,416.063,957Zm35.557,38.227a41.775,41.775,0,0,0,1.943-10.646l.031-2.719-.359-2.747a13.164,13.164,0,0,0-.8-3.422c-.185-.561-.366-1.12-.482-1.584-2.529-6.177-7.958-11.254-14.94-13.945a40.915,40.915,0,0,0-9.069-2.558l-2.783,3.286c-.535.719-1.121,1.561-1.781,2.512l-1.247,1.784c-.742,1.06-1.5,2.318-2.29,3.65-.461.767-.938,1.57-1.462,2.411-.986,1.514-1.894,3.274-2.86,5.141-.435.844-.879,1.712-1.346,2.576l-2.3,4.426-2.239,5c-2.664,5.542-5.111,12-7.7,18.837l-1.664,4.378-.9,2.79,1.56.015a20.109,20.109,0,0,0,2.185-.112c.428-.039.857-.076,1.286-.1a33.25,33.25,0,0,0,3.446-.4c.389-.063.786-.119,1.18-.172.765-.1,1.528-.207,2.306-.384l3.468-.7,3.488-.861c.945-.219,1.875-.492,2.806-.765l1.567-.453c.821-.236,1.638-.47,2.463-.752,2.488-.784,4.708-1.536,6.788-2.29,2.246-.818,4.494-1.652,6.713-2.561,4.174-1.69,7.869-3.314,11.274-4.948C450.543,998.371,451.122,996.815,451.621,995.223Zm-12.834,24.767q1.531-2.436,3.038-4.879a123.575,123.575,0,0,0,6.777-12.326c-2.8,1.4-5.8,2.818-9.114,4.289-5.389,2.358-9.565,4.013-13.517,5.351-.837.309-1.682.575-2.531.84l-1.584.5c-.955.3-1.909.6-2.867.851l-3.534.966-3.514.8c-.818.206-1.645.343-2.476.478-.386.06-.77.123-1.15.2a36.626,36.626,0,0,1-3.679.512c-.418.032-.833.078-1.25.124a23.335,23.335,0,0,1-2.429.186l-2.724.05-2.38,7.375c-.264.853-.538,1.7-.818,2.558-.5,1.531-1,3.075-1.438,4.645l-2.007,7.567q-.749,2.864-1.539,5.783c-.874,3.265-1.764,6.582-2.589,9.93l-5.152,23.808a42.091,42.091,0,0,0,7.442-2.171c1.075-.382,2.151-.86,3.188-1.319.6-.269,1.192-.533,1.743-.756l4.77-2.364c2.751-1.458,5.628-3.09,8.8-4.988,2.438-1.473,4.957-3.064,7.7-4.855,6.784-4.5,11.787-8.209,14.04-9.916l-.2-.6-.1-.448c-.273-1.272-.547-2.552-.8-3.94-.028-.481-.064-.962-.1-1.444-.076-.985-.151-1.976-.164-3.06.045-.488.082-.978.117-1.471.073-.983.144-1.967.3-3.022l1.053-4.354c.013-.032.08-.193.1-.222C432.775,1029.557,435.829,1024.694,438.787,1019.991Zm10.659,85.4a25.914,25.914,0,0,0,.443-3.517,20.776,20.776,0,0,0-.063-2.778l-.492-4.824-.95-3.9-1.37-3.824-1.694-3.724-1.925-3.651-6.4-10.825-2.108-3.7-1.963-3.813c-.4-.855-.766-1.723-1.141-2.592l-.6-1.4c-.2-.547-.373-1.1-.556-1.654-2.413,1.932-7.128,5.615-13.373,10.023-2.685,1.873-5.187,3.552-7.641,5.14-2.655,1.708-5.626,3.483-8.853,5.3l-4.844,2.532c-.583.259-1.16.533-1.742.805-1.082.512-2.2,1.04-3.349,1.473a43.071,43.071,0,0,1-9.209,2.74c-.2,1.118-.405,2.231-.6,3.359-.173,1.034-.345,2.072-.528,3.1l-3.035,17.8c-.794,4.164-1.335,8.492-1.855,12.674-.225,1.8-.451,3.605-.7,5.4l-2.371,18.513,1.268-.224c1.171-.235,2.33-.545,3.49-.856.656-.176,1.308-.352,1.977-.516,1.322-.306,2.655-.748,3.946-1.174l1.422-.462c1.991-.642,3.648-1.186,5.331-1.862l1.884-.716c1.145-.433,2.288-.865,3.414-1.328l5.264-2.242c1.127-.471,2.231-.989,3.337-1.51.612-.287,1.229-.576,1.845-.857,1.729-.787,3.442-1.6,5.148-2.471,3.506-1.706,6.957-3.507,10.181-5.207,3.583-1.939,6.8-3.695,10.031-5.562,6.549-3.766,12.283-7.257,17.522-10.642A25.793,25.793,0,0,0,449.446,1105.391Zm-31.006,42.394c1.1-2.021,2.369-4.082,4.126-6.692,1.436-2.112,2.993-4.224,4.627-6.28a152.005,152.005,0,0,1,10.265-11.608l5.4-5.365a25.09,25.09,0,0,0,4.178-5.755c.07-.13.115-.28.183-.41-4.544,3.005-9.5,6.117-15.012,9.436-3.168,1.916-6.264,3.683-9.991,5.8-3.3,1.82-6.711,3.7-10.16,5.449-1.711.9-3.442,1.754-5.186,2.583-.609.285-1.212.584-1.817.878-1.13.549-2.258,1.1-3.4,1.6l-5.27,2.337c-1.146.5-2.312.955-3.472,1.412l-1.869.745c-1.743.731-3.5,1.336-5.459,2l-1.422.489c-1.334.46-2.708.939-4.108,1.287-.649.171-1.3.355-1.943.535-1.213.347-2.429.689-3.676.956l-2.36.463-.1.741-3.62,41.026-1.069,19.005c.411-.137.818-.267,1.227-.407l1.255-.429a21.523,21.523,0,0,0,2.115-.829c.4-.169.8-.342,1.208-.5.966-.386,2.006-.851,3.27-1.471.38-.186.765-.366,1.15-.544.707-.334,1.412-.664,2.114-1.051l3.219-1.7,1.568-.884c1.6-.9,3.208-1.806,4.786-2.776,4.015-2.389,8.052-4.989,12.354-7.947,4.036-2.775,7.575-5.341,10.817-7.815a35.271,35.271,0,0,1-.685-3.489,37.839,37.839,0,0,1-.377-8.088,46.526,46.526,0,0,1,1.2-8,57.12,57.12,0,0,1,2.491-7.572A64.824,64.824,0,0,1,418.44,1147.786ZM364.5,1279.04c-.068,1.588-.109,3.141-.136,4.669a107.756,107.756,0,0,0,11.229-1.133,128.335,128.335,0,0,0,14.11-2.693,93.152,93.152,0,0,0,13.561-4.6,67.942,67.942,0,0,0,12.424-7,54.188,54.188,0,0,0,10.25-9.831,50.191,50.191,0,0,0,6.82-12.413c.238-.691.446-1.4.657-2.111.143-.478.285-.955.432-1.42l.51-1.661.137-.6c.073-.309.144-.621.2-.937-1.45,1.03-2.986,2.079-4.625,3.167-2.993,2-6,3.895-8.937,5.618-1.513.91-3.035,1.8-4.585,2.635l-1.359.755c-1.088.6-2.176,1.212-3.288,1.757l-4.719,2.382-4.768,2.174c-1.044.485-2.121.91-3.194,1.336-.563.217-1.129.44-1.7.675l-2.476.992-2.5.848c-.582.186-1.162.391-1.742.588-1.086.379-2.177.754-3.284,1.047l-5.078,1.362c-1.121.287-2.262.491-3.4.7-.6.1-1.2.215-1.81.335l-.895.168c-.575.111-1.149.219-1.756.3l-2.641.246c-.583.04-1.163.1-1.746.163a21.249,21.249,0,0,1-3.359.2l-.2-.014-1.763-.024Zm.488-15.992,1.763.067a16.557,16.557,0,0,0,3.2-.088c.6-.053,1.2-.1,1.768-.125l2.527-.186c.533-.059,1.064-.152,1.6-.243l.885-.148c.605-.113,1.212-.207,1.823-.306,1.071-.17,2.143-.341,3.2-.59l5.01-1.24c1.06-.261,2.093-.6,3.131-.935.594-.195,1.188-.387,1.772-.566l2.428-.769,2.417-.921c.58-.227,1.163-.443,1.747-.661,1.027-.38,2.058-.766,3.071-1.218l4.753-2.06,4.723-2.242c1.083-.5,2.141-1.055,3.2-1.612l1.42-.744c1.545-.783,3.059-1.615,4.57-2.481,2.927-1.622,5.944-3.415,8.967-5.332,2.235-1.4,4.265-2.744,6.169-4.061a35.741,35.741,0,0,0,.342-4.514,39.913,39.913,0,0,0-2.552-13.856,77.023,77.023,0,0,0-6.186-12.729l-2.533-2.579-2.555-2.933a56.393,56.393,0,0,1-4.508-6.433,42.779,42.779,0,0,1-3.451-7.183c-.28-.762-.53-1.521-.762-2.281-3.04,2.441-6.359,4.969-10.112,7.7-4.254,3.1-8.27,5.835-12.265,8.366-1.707,1.115-3.481,2.162-5.2,3.176l-4.41,2.481c-.72.417-1.461.786-2.206,1.152-.373.185-.746.369-1.118.562-1.3.668-2.385,1.184-3.408,1.613-.394.162-.781.338-1.169.515-.755.341-1.514.684-2.288.946l-1.243.451c-.752.278-1.511.561-2.316.819l-.1.03-1.181,21Zm3.527-118.7,2.615-19.324c.253-1.767.486-3.539.717-5.307.561-4.248,1.138-8.643,1.974-12.891l3.161-17.8q.279-1.522.54-3.047c.15-.856.316-1.7.47-2.555a7.3,7.3,0,0,1-1.97-.661,14.449,14.449,0,0,1-2.667-1.8,32.167,32.167,0,0,1-4.054-4.339,74.76,74.76,0,0,1-6.176-9.373c-1.964-3.583-3.447-6.541-4.672-9.3-1.248-2.787-2.456-5.68-3.588-8.59-1.067-2.736-1.9-5.281-2.6-7.453-.688-2.157-1.245-4.139-1.652-5.886-.217-.871-.377-1.645-.5-2.322-.19.513-.38,1.03-.577,1.525a113.556,113.556,0,0,1-10.5,20.305,222.019,222.019,0,0,1-13.334,18.359l-.952,1.176.65,5.445a21.415,21.415,0,0,0,.724,3.82c.117.46.233.92.337,1.37l.295,1.26a25.724,25.724,0,0,0,1.115,3.889l.639,1.837c.379,1.088.753,2.172,1.148,3.2l2.255,4.948a25.2,25.2,0,0,0,1.536,3c.323.564.643,1.128.93,1.684l1.271,2.309,1.45,2.245c.361.537.709,1.085,1.055,1.627.6.942,1.22,1.915,1.916,2.818l3.14,4.305,3.39,4.171c.663.829,1.371,1.62,2.079,2.413.481.535.958,1.069,1.427,1.62.867,1.025,1.792,1.993,2.724,2.958l.893.934c2.337,2.453,4.838,4.881,7.639,7.424C363.311,1140.086,365.854,1142.306,368.518,1144.348Zm-47.912,81.191a72.078,72.078,0,0,0-2.573,14.446,56.183,56.183,0,0,0,.744,14.511,35.519,35.519,0,0,0,5.372,13.117,32.791,32.791,0,0,0,10.119,9.609,42.689,42.689,0,0,0,13,5.215,57.767,57.767,0,0,0,10.136,1.32h0c1.058.049,2.154.053,3.257.05,0-1.578.015-3.181.056-4.812l.194-12.36a1.218,1.218,0,0,1-.14-.024,3.661,3.661,0,0,1-.4-.131c-.187-.071-.342-.141-.607-.268-.328-.172-.632-.345-.931-.522-.579-.349-1.134-.706-1.677-1.073-1.082-.727-2.132-1.479-3.163-2.258-1.965-1.476-3.934-3.05-6.023-4.82a130.061,130.061,0,0,1-11.119-10.692,82.084,82.084,0,0,1-9.6-12.258,40.748,40.748,0,0,1-3.626-7.072,21.088,21.088,0,0,1-1.476-6.9C321.59,1222.233,321.065,1223.874,320.606,1225.539Zm5.927-50.366c.551,4.279.833,8.637,1.108,12.856.155,2.407.313,4.81.521,7.287a66.752,66.752,0,0,1-2.467,16.422c-1.051,2.231-2.01,4.542-2.875,6.91a.973.973,0,0,1,.284-.057,1.019,1.019,0,0,1,.875.9,17.857,17.857,0,0,0,1.939,6.961,44.061,44.061,0,0,0,3.8,6.37,97.213,97.213,0,0,0,9.735,11.39c3.7,3.713,7.414,7.148,11.042,10.224,2.065,1.787,3.957,3.342,5.784,4.759.983.76,1.967,1.512,2.977,2.225.493.351.992.688,1.465.988l.247.14.239-15.534c.071-4.618.144-9.4.34-14.26l1.139-19.946a9.127,9.127,0,0,1-4.173-1.8l-.3-.206a37.228,37.228,0,0,1-3.623-3.1c-2.432-2.344-4.644-4.873-6.3-6.816-3.837-4.538-7.589-9.472-11.153-14.65-3.695-5.316-7.1-10.808-9.946-15.492-.695-1.182-1.422-2.423-2.158-3.7A69.419,69.419,0,0,1,326.533,1175.173Zm-18.424-62.066c.6,8.145,2.941,15.88,4.909,21.7,1.592,4.544,3.263,9.066,4.93,13.584.608,1.644,1.209,3.289,1.817,4.937a.743.743,0,0,1,.266.246c3.126,5.058,6.459,10.214,9.916,15.335,3.472,5.281,7.273,10.664,10.323,14.982l.284.4c3.381,4.708,6.877,9.578,10.541,14.144,1.55,1.915,3.615,4.4,5.881,6.7a31.961,31.961,0,0,0,3.205,2.878,7.755,7.755,0,0,0,2.7,1.473l1.163-20.362L368,1148.246a1.577,1.577,0,0,1-.468-.231c-3.14-2.223-5.972-4.595-8.574-6.83-3.221-2.823-5.754-5.2-7.969-7.477l-.89-.909c-.985-1.005-1.971-2.01-2.891-3.07-.37-.422-.749-.841-1.128-1.258-.837-.921-1.7-1.874-2.485-2.881l-3.44-4.305-3.17-4.459c-.717-.988-1.348-2.04-1.958-3.059-.327-.544-.654-1.093-1.005-1.644l-1.451-2.4-1.275-2.466c-.278-.575-.577-1.137-.878-1.7a27.427,27.427,0,0,1-1.574-3.293l-2.107-5.168c-.383-1.15-.723-2.316-1.068-3.484l-.535-1.8a29.9,29.9,0,0,1-1.095-4.715l-.145-.826c-.073-.46-.155-.914-.238-1.373a24.063,24.063,0,0,1-.493-4.2l-.176-3.476-4.4,5.439c-.809.962-1.573,1.957-2.334,2.951l-1.068,1.371c-.267.432-.548.86-.826,1.283a29.753,29.753,0,0,0-2.046,3.481A39.12,39.12,0,0,0,308.109,1113.106Z" transform="translate(-198.307 -953.809)"/><path class="d" d="M443.417,1059.453c-26.39-11.271-48.047-9.613-62.023-7.61,6.232-8.453,12.216-16.171,17.777-23.1,28.406,4.864,48.254-3.866,60.184-3.784a111.6,111.6,0,0,0-54.912-2.708c5.64-6.865,10.713-12.783,15.009-17.663,22.072-8.467,27.17-27,34.39-32.731-29.523,7.089-37.883,30.778-38.869,33.913q-7.565,7.924-14.6,15.783a95.94,95.94,0,0,0-21.431-45.119c4.145,9.573,3.825,28.628,17.347,49.723q-10,11.363-18.961,22.552c-3.53-12.6-10.053-33.143-31.643-51.475,6.521,10.457,9.275,33.124,28.688,55.193q-10.593,13.427-19.794,26.559c-4.592-15.361-13.025-40.5-39.764-63.3,8.219,12.9,12.086,40.643,36.521,68.006q-10.57,15.43-19.349,30.36c-5.485-17.819-15.575-46.468-46.22-72.637,9.6,14.948,14.289,46.963,42.7,78.717-6.679,11.711-12.564,23.147-17.75,34.273a2.975,2.975,0,0,1,.932-2.614c-8.621-17.422-23.845-46.722-61.6-68.871,12.7,13.9,23.179,47.053,59.1,74.9a422.683,422.683,0,0,0-16.2,40.935c-10.824-18.054-29.675-47.5-70.669-72.845,14.606,14.9,28.644,48.014,68.627,79.1a373.211,373.211,0,0,0-11.465,45.764c-11.328-14.995-30.753-39.034-68.768-59.241,14.258,12.2,29.788,39.667,67.773,64.924a322.38,322.38,0,0,0-4.2,41.2c-10.738-11.079-28.549-28.025-59.63-43.275,12.447,9.067,27.44,28.594,59.369,47.75a4.039,4.039,0,0,0-.178.888c.1,0,.193-.006.289,0a246.933,246.933,0,0,0,1.831,35.921c.333-.052.667-.1,1-.151a308.123,308.123,0,0,1,.412-35.78c27.859-.382,46.9-16.892,58.734-19.437-26.385-5.548-46.11,5.238-58.2,12.709a349.057,349.057,0,0,1,5.692-38.573c41.575,1.958,68.773-13.751,86.075-15.568-39.479-7.291-67.8,2.745-84.771,9.41a410.572,410.572,0,0,1,12.34-43.745c41.3,5.174,69.758-8.244,87.222-8.641-38.272-10.374-67.185-3.18-84.934,2.1,4.825-13.456,10.217-26.526,16.008-39.136,41.1,9.556,71.055-1.194,88.609.119-37.857-14.342-67.812-9.515-85.885-5.955,5.413-11.412,11.126-22.425,17-32.98,37.993,9.9,66.41,1.134,82.9,3.057-33.811-14.436-61.523-12.143-79.224-9.57,6-10.477,12.129-20.473,18.248-29.923,33.236,9.085,58.087,1.374,72.4,3.044-29.851-12.743-54.128-10.245-69.183-7.972,5.854-8.869,11.667-17.233,17.315-25.027C407.816,1064.859,430.365,1057.928,443.417,1059.453Z" transform="translate(-67.759 -946.63)"/><path class="e" d="M400.7,1181.825a131.125,131.125,0,0,1-6.578-35.353c-.211-6-.087-12.033.038-17.865l.491-20.035c.082-5.043.166-10.262-.127-15.339a82.474,82.474,0,0,0-2.551-17.157,66.792,66.792,0,0,0-6.757-15.9,113.208,113.208,0,0,0-9.57-13.866l-.247-.036.1-.161-.242-.313a1.658,1.658,0,0,1,1.549-2.674c.122.02.243.038.368.056l.108-.19.182.235a312.4,312.4,0,0,1,36.609,7.881c6.5,1.847,12.435,3.763,18.158,5.863,5.534,1.989,11,4.4,16.292,6.727l1.327.583,8.563,4.229c1.835.982,3.629,2,5.419,3.021q1.455.828,2.917,1.65a176.869,176.869,0,0,1,15.916,10.6,153.814,153.814,0,0,1,14.587,12.351,146.9,146.9,0,0,1,12.9,14.113c1.464,1.844,2.857,3.776,4.2,5.643l1.482,2.045c.615.99,1.22,1.931,1.827,2.869,1.1,1.7,2.239,3.468,3.243,5.287.4.74.809,1.47,1.215,2.2,1.125,2.019,2.283,4.108,3.23,6.281l2.02,4.293,1.764,4.465c.87,2.022,1.549,4.155,2.2,6.219.3.938.591,1.877.91,2.807l.345,1.273c.712,2.616,1.45,5.322,1.984,8.035a117.108,117.108,0,0,1,2.329,18.949,109.755,109.755,0,0,1-1.061,19.085,96.532,96.532,0,0,1-4.76,18.5,75.617,75.617,0,0,1-9.029,16.858,57.068,57.068,0,0,1-9.429,10.238c.772,3.533,1.518,7.133,2.217,10.887.814,3.669,1.332,7.4,1.833,11.008.233,1.692.468,3.373.73,5.035.82,4.9,1.222,9.747,1.609,14.438l.72,8.517c.116,1.615.164,3.2.208,4.775.027.84.05,1.677.087,2.508.043,1.68.1,3.32.165,4.942q-2.328-.286-4.656-.544c-.073-1.384-.145-2.77-.2-4.181-.049-.824-.084-1.672-.122-2.526-.069-1.517-.133-3.053-.268-4.6l-1.081-10.784c-.373-3.853-.759-7.836-1.413-11.806-.263-1.68-.5-3.367-.734-5.067-.487-3.53-.991-7.18-1.785-10.759q-.782-4.263-1.686-8.514a43.047,43.047,0,0,1-16.44,6.685q-.994.178-1.993.313a50.046,50.046,0,0,1-15.987-.559c-11.057-2.147-22.229-7.4-32.316-15.182C423.288,1225.95,408.8,1205.328,400.7,1181.825Zm35.144,49.747a18.66,18.66,0,0,0,1.238-1.546c.33-.461.664-.921,1.015-1.347,1-1.307,1.963-2.481,2.933-3.564a51.571,51.571,0,0,1,6.752-6.412,48.238,48.238,0,0,1,7.86-5.073c1.519-.8,3.081-1.451,4.269-1.935,1.7-.642,3.113-1.107,4.473-1.48a54.343,54.343,0,0,1,18.607-1.683c1.383.068,2.782.253,4.132.429l.51.067c.988.113,1.977.3,2.935.487.549.109,1.1.212,1.654.3,1.011.21,1.992.444,2.969.679.53.125,1.054.252,1.587.372l1.366.4c-.042-.119-.083-.239-.124-.358-.349-.977-.7-1.957-1.025-2.941l-2.877-8.219-3.236-8.067c-1.19-2.984-2.47-6.012-3.855-9.132l-4.633-1.9c-.373-.149-.748-.309-1.127-.465a23.19,23.19,0,0,0-3.84-1.352l-5.231-1.459a21.967,21.967,0,0,0-3.331-.647c-.646-.092-1.289-.183-1.928-.3-.376-.054-.774-.123-1.173-.187a24.511,24.511,0,0,0-4.071-.44l-5.434-.249-5.345.3a30.2,30.2,0,0,0-4.062.459c-.421.07-.836.135-1.255.2a41.642,41.642,0,0,0-5.238,1.012c-.65.179-1.293.328-1.94.479a29.159,29.159,0,0,0-3.274.895c-.619.212-1.23.409-1.844.609-1.1.362-2.211.723-3.3,1.132L425,1182.71c-.547.27-1.132.557-1.719.839-1.044.509-2.09,1.01-3.116,1.553-.541.313-1.116.629-1.69.945-1,.549-2.026,1.115-2.99,1.743a71.775,71.775,0,0,0-6.717,4.669c.65,1.48,1.327,2.951,2.055,4.391a121.628,121.628,0,0,0,8.752,15.175,113.327,113.327,0,0,0,10.748,13.842C432.048,1227.815,433.9,1229.716,435.846,1231.573Zm72.04,15.473c-1.644-7.616-3.53-15.184-5.673-22.608l-2.45-8.278c-.08-.28-.177-.559-.264-.84l-3.628-1.169c-.5-.127-1.027-.27-1.559-.417-.918-.25-1.837-.5-2.762-.721-.485-.094-.991-.2-1.5-.316-.938-.2-1.909-.417-2.866-.547l-.542-.085c-1.275-.2-2.594-.406-3.89-.5a51.418,51.418,0,0,0-17.7,1.176c-1.265.313-2.617.723-4.258,1.294-1.321.5-2.743,1.053-4.1,1.71a46.085,46.085,0,0,0-7.645,4.6,49.819,49.819,0,0,0-6.7,5.973c-.98,1.027-1.953,2.139-2.979,3.4-.375.418-.693.84-1.015,1.26a17.474,17.474,0,0,1-1.4,1.637c1.95,1.807,3.982,3.572,6.116,5.266a83.228,83.228,0,0,0,14.68,9.507,65.372,65.372,0,0,0,16.428,5.846,47.243,47.243,0,0,0,17.333.419,41.476,41.476,0,0,0,16.078-6.383C507.689,1247.2,507.786,1247.118,507.886,1247.046Zm27.068-68.214c-.334,1.04-.688,2.08-1.122,3.089a51.043,51.043,0,0,1-2.9,6.134,46.9,46.9,0,0,1-2.85,4.785l-.658,1.016c-.361.477-.688.916-1.02,1.355-1.009,1.352-2.055,2.751-3.225,4.033-.752.881-1.486,1.74-2.29,2.53l-.66.679c-.559.583-1.139,1.184-1.774,1.73-1.568,1.449-3.275,2.887-5.2,4.378-2.167,1.571-3.973,2.772-5.7,3.79-1.18.706-2.3,1.308-3.4,1.863.056.18.122.359.176.54l2.548,8.3c1.984,6.521,3.741,13.34,5.351,20.529,7.247-6.391,13.185-15.23,17.306-25.962a94.752,94.752,0,0,0,4.6-18.181,106.5,106.5,0,0,0,.958-18.756C535.057,1180.049,535,1179.458,534.955,1178.831Zm-14.651-37-1.23,3.792a22.584,22.584,0,0,1-.959,2.452c-.185.426-.373.853-.542,1.285a28.459,28.459,0,0,1-1.75,3.689c-.218.4-.435.808-.651,1.22-.41.776-.818,1.551-1.276,2.3l-2.125,3.39c-.481.743-.994,1.454-1.51,2.164-.271.376-.541.75-.805,1.128-.72,1.059-1.542,2.05-2.337,3.007l-.151.183c-1.835,2.288-3.84,4.392-5.38,5.966-1.925,1.93-3.924,3.756-5.942,5.428-.773.671-1.6,1.3-2.424,1.937l-1.188.885-.5.359-.257.183q2.046,4.523,3.788,8.78l3.352,8.132,3.011,8.312c.345,1,.7,1.97,1.058,2.944.165.449.33.911.495,1.371.843-.472,1.726-1,2.641-1.571,1.919-1.171,3.77-2.512,5.326-3.67,1.828-1.378,3.463-2.723,4.995-4.1.479-.412.918-.839,1.36-1.264.337-.327.674-.653,1.023-.969.765-.688,1.486-1.463,2.176-2.21,1.225-1.233,2.27-2.51,3.279-3.743.345-.424.692-.847,1.044-1.267l1.9-2.621a27.157,27.157,0,0,0,1.645-2.428l.164-.261c.2-.331.417-.667.632-1,.37-.579.745-1.157,1.072-1.764l1.56-2.905a37.469,37.469,0,0,0,1.69-3.511c.362-.827.726-1.655,1.131-2.469l.019-.041a105.538,105.538,0,0,0-2.013-12.856c-.551-2.653-1.3-5.31-2.026-7.879l-.348-1.229c-.32-.906-.63-1.852-.942-2.8-.656-2-1.334-4.068-2.2-6.016l-1.785-4.389-2.034-4.22c-.405-.9-.861-1.789-1.327-2.667l-.1,1.023a24.715,24.715,0,0,1-.644,3.994c-.087.384-.164.773-.24,1.159A24.9,24.9,0,0,1,520.3,1141.829Zm-28.613-41.842a47.809,47.809,0,0,1-.47,7.374,58.068,58.068,0,0,1-3.827,14.272,73.1,73.1,0,0,1-6.827,13.085c-1.321,1.993-2.769,4-4.305,5.979-.752.965-1.526,1.912-2.312,2.847l-1.554,1.864c2.671,4.438,5.183,8.8,7.476,12.856,3.832,7.175,7.055,13.577,9.847,19.544l1.222-.939c.767-.621,1.533-1.24,2.274-1.9,1.767-1.5,3.552-3.175,5.632-5.281,1.5-1.5,3.435-3.493,5.218-5.664l.744-.884c.583-.687,1.166-1.372,1.7-2.094.285-.375.57-.741.856-1.109.506-.646,1.013-1.294,1.482-1.968l2.179-3.205c.451-.684.867-1.4,1.278-2.121.225-.4.453-.791.688-1.184.686-1.108,1.269-2.276,1.806-3.374.194-.415.41-.833.628-1.254a19.9,19.9,0,0,0,1.023-2.193l1.443-3.635c.268-.692.474-1.4.689-2.157.145-.509.294-1.022.46-1.527a23.66,23.66,0,0,0,.938-3.683l.643-3.215c-.179-.314-.355-.639-.534-.95-.414-.737-.835-1.473-1.243-2.213-.985-1.736-2.114-3.447-3.205-5.1-.619-.938-1.241-1.878-1.841-2.831-.582-.771-1.178-1.585-1.779-2.4-1.24-1.687-2.523-3.43-3.843-5.09a144.993,144.993,0,0,0-12.739-13.791c-1.342-1.272-2.766-2.484-4.164-3.716a19.891,19.891,0,0,1,.235,2C491.617,1097.522,491.682,1098.763,491.691,1099.987Zm-48.927-18.448a98.151,98.151,0,0,1-2.82,19.054c.96,1.126,1.921,2.231,2.88,3.4,2.42,2.822,4.714,5.762,7.14,8.875l2.55,3.255c1.018,1.408,2.021,2.766,3.035,4.134,2.165,2.92,4.4,5.941,6.473,9.1,2.922,4.143,5.72,8.468,8.376,12.776l2.9-3.718c1.458-1.94,2.814-3.9,4.031-5.8a88.3,88.3,0,0,0,6.79-12.362,60.511,60.511,0,0,0,2.51-6.563,64.834,64.834,0,0,0,1.813-6.8,58.1,58.1,0,0,0,1.11-14.091l0-.011c-2.764-2.363-5.594-4.66-8.524-6.82a174.836,174.836,0,0,0-15.7-10.351c-.977-.535-1.967-1.092-2.955-1.644-1.754-.987-3.506-1.974-5.284-2.913l-9.823-4.715c-2.329-1.009-4.7-2.033-7.086-3.03l.791,1.922c.21.606.357,1.2.5,1.786.074.3.15.6.232.9a14.623,14.623,0,0,1,.375,1.858c.045.284.088.569.143.853a19.869,19.869,0,0,1,.347,2.773c.018.3.045.609.07.919.049.6.1,1.2.1,1.794C442.789,1077.605,442.834,1079.572,442.764,1081.539Zm-60.722-34.213c2.278,1.56,5.621,3.938,9.849,7.212,4.406,3.372,9.226,7.348,14.313,11.81,4.837,4.182,10.4,9.429,17.5,16.507,4.318,4.476,8.841,9.267,13.391,14.429.289-1.736.572-3.546.836-5.554.168-1.191.3-2.382.436-3.571l.187-1.637c.231-2.037.384-3.686.488-5.19a69.294,69.294,0,0,0,.226-10.369c-.021-.267-.032-.559-.048-.849a11.612,11.612,0,0,0-.147-1.661c-.05-.33-.094-.648-.134-.965-.074-.535-.145-1.072-.25-1.6l-.6-2.515-.424-1.085c-2.144-.868-4.3-1.71-6.464-2.476-5.678-2.046-11.556-3.912-17.975-5.7A301.664,301.664,0,0,0,382.042,1047.326Zm16.014,43.921a65.283,65.283,0,0,1,8.558.046,71.924,71.924,0,0,1,11.108,1.588c.871.169,1.745.405,2.62.644.426.118.74.2,1.054.28.6.154,1.2.31,1.781.512l2.649.86c.583.176,1.164.407,1.743.639.3.117.6.233.9.345.32.13.619.245.923.358.581.22,1.167.442,1.728.715l1.937.892c-3.994-4.569-7.966-8.875-11.771-12.909-6.919-7.043-12.37-12.3-17.145-16.523-4.979-4.463-9.7-8.444-14.044-11.843-2.116-1.676-4-3.109-5.656-4.336,1.314,1.9,2.6,3.889,3.763,5.959a70.225,70.225,0,0,1,7.2,16.661A83.08,83.08,0,0,1,398.056,1091.247Zm-.228,51.346a65.258,65.258,0,0,1,6.522-3.267c1.356-.562,2.955-1.209,4.6-1.8.575-.176,1.12-.359,1.664-.542,1-.333,2.021-.679,3.068-.942.562-.135,1.118-.282,1.673-.429,1.015-.271,2.066-.548,3.13-.743.572-.1,1.138-.2,1.7-.31,1.05-.2,2.1-.39,3.152-.55l4.92-.509c1.09-.083,2.167-.092,3.242-.1.575,0,1.15-.01,1.726-.027a32.921,32.921,0,0,1,4.229.14l.749.059c.519.049,1.022.081,1.526.113a23.538,23.538,0,0,1,3.454.394l4.839.818c1.085.207,2.139.5,3.159.79.554.155,1.106.312,1.663.452l.914.249a28.045,28.045,0,0,1,3.885,1.246l4.588,1.748a16.2,16.2,0,0,1,2.269.98c-1.863-2.97-3.783-5.924-5.762-8.781-2.024-3.141-4.2-6.134-6.313-9.033-1.008-1.38-2.006-2.752-2.979-4.127-.867-1.114-1.757-2.272-2.638-3.425-2.325-3.031-4.519-5.893-6.827-8.65-.633-.786-1.269-1.527-1.9-2.292-.015,0-.031.01-.046.011a1.621,1.621,0,0,1-.614-.031,1.847,1.847,0,0,1-.415-.167c-.547-.312-1.067-.619-1.588-.927-1.02-.6-2.076-1.23-3.145-1.762l-2.441-1.222a16.224,16.224,0,0,0-1.566-.716c-.3-.124-.605-.251-.906-.385-.285-.116-.59-.249-.892-.383-.521-.227-1.041-.456-1.58-.642l-2.579-.935c-.549-.21-1.1-.373-1.648-.537-.314-.092-.629-.183-.941-.285-.927-.286-1.746-.54-2.583-.732a71.845,71.845,0,0,0-10.708-2.035,63.863,63.863,0,0,0-8.254-.434c.352,5.813.3,11.784.173,18.062l-.453,17.926C397.806,1133.548,397.761,1138.049,397.828,1142.593Zm2.055,21.084a139.228,139.228,0,0,0,4.336,16.987c1.173,3.346,2.46,6.834,3.91,10.281a73.181,73.181,0,0,1,6.383-4.665c.976-.672,2.019-1.285,3.029-1.879.559-.327,1.115-.653,1.665-.993,1.057-.59,2.112-1.138,3.163-1.68.58-.3,1.159-.6,1.736-.909l5.063-2.263c1.127-.459,2.255-.861,3.381-1.264q.916-.324,1.823-.658a33.423,33.423,0,0,1,3.509-1.061c.612-.159,1.222-.316,1.827-.495a42.5,42.5,0,0,1,5.442-1.171l1.276-.223a30.279,30.279,0,0,1,4.3-.572l5.5-.412,5.6.138a26.94,26.94,0,0,1,4.387.385l1.185.165c.657.107,1.3.187,1.935.265a24.742,24.742,0,0,1,3.625.629l5.365,1.374a26.124,26.124,0,0,1,4.166,1.349c.38.151.763.3,1.146.44l1.308.5c-2.506-5.383-5.372-11.146-8.78-17.658-2.5-4.5-5.259-9.385-8.212-14.325l-2.719-1.444c-.488-.242-.983-.516-1.479-.788A18.592,18.592,0,0,0,461,1142.4l-4.487-1.828a25.52,25.52,0,0,0-3.588-1.237l-.918-.27c-.545-.151-1.1-.32-1.652-.488-.959-.294-1.95-.6-2.934-.807l-4.719-.907a22.092,22.092,0,0,0-3.214-.436c-.51-.043-1.016-.087-1.524-.147l-.741-.073a30.782,30.782,0,0,0-3.983-.224c-.593,0-1.173,0-1.753-.01-1.019-.014-2.041-.028-3.061.027l-5.323.422c-.833.109-1.659.238-2.49.368-.577.09-1.159.179-1.74.264-1,.151-2.013.39-3,.619-.566.131-1.132.264-1.7.383-.983.217-1.985.52-2.948.812-.558.169-1.118.34-1.682.494-1.591.519-3.176,1.11-4.516,1.616a61.365,61.365,0,0,0-7.184,3.406c.017.656,0,1.307.027,1.97.136,2.717.363,5.562.688,8.7.117.8.227,1.631.336,2.459C399.166,1159.548,399.442,1161.65,399.883,1163.677Z" transform="translate(-374.89 -918.325)"/><g transform="translate(95.522 366.674)"><path class="f" d="M448.989,1235.456l-14.132,102.652c-.528,3.837-4.244,6.724-8.649,6.724h-75.8c-4.356,0-8.042-2.821-8.635-6.6L325.3,1232.744c-.731-4.681,3.511-8.816,8.9-8.672l106.4,2.836C445.722,1227.042,449.6,1231,448.989,1235.456Z" transform="translate(-313.108 -1212.958)"/><path class="g" d="M1.565,0H128.036A1.563,1.563,0,0,1,129.6,1.563v13.46a1.564,1.564,0,0,1-1.564,1.564H1.564A1.564,1.564,0,0,1,0,15.024V1.565A1.565,1.565,0,0,1,1.565,0Z" transform="translate(9.448 9.044)"/><path class="h" d="M1.434,0H146.388a1.435,1.435,0,0,1,1.435,1.435V8.953a1.434,1.434,0,0,1-1.434,1.434H1.436A1.436,1.436,0,0,1,0,8.951V1.434A1.434,1.434,0,0,1,1.434,0Z"/></g></g></g></svg>