<svg xmlns="http://www.w3.org/2000/svg" xmlns:xlink="http://www.w3.org/1999/xlink" width="886" height="767" viewBox="0 0 886 767"><defs><style>.a{fill:#fff;}.b{fill:#20222b;font-size:30px;opacity:0.5;}.b,.c{font-family:OpenSans-Regular, Open Sans;}.c{fill:#00613c;font-size:45px;letter-spacing:0.03em;}.d{filter:url(#i);}.e{filter:url(#g);}.f{filter:url(#e);}.g{filter:url(#c);}.h{filter:url(#a);}</style><filter id="a" x="0" y="0" width="877" height="759" filterUnits="userSpaceOnUse"><feOffset dx="-2" dy="-2" input="SourceAlpha"/><feGaussianBlur stdDeviation="5" result="b"/><feFlood flood-opacity="0.161"/><feComposite operator="in" in2="b"/><feComposite in="SourceGraphic"/></filter><filter id="c" x="9" y="8" width="877" height="759" filterUnits="userSpaceOnUse"><feOffset dx="5" dy="5" input="SourceAlpha"/><feGaussianBlur stdDeviation="5" result="d"/><feFlood flood-opacity="0.161"/><feComposite operator="in" in2="d"/><feComposite in="SourceGraphic"/></filter><filter id="e" x="167" y="473" width="538" height="112" filterUnits="userSpaceOnUse"><feOffset dy="3" input="SourceAlpha"/><feGaussianBlur stdDeviation="3" result="f"/><feFlood flood-opacity="0.161"/><feComposite operator="in" in2="f"/><feComposite in="SourceGraphic"/></filter><filter id="g" x="167" y="342" width="538" height="112" filterUnits="userSpaceOnUse"><feOffset dy="3" input="SourceAlpha"/><feGaussianBlur stdDeviation="3" result="h"/><feFlood flood-opacity="0.161"/><feComposite operator="in" in2="h"/><feComposite in="SourceGraphic"/></filter><filter id="i" x="167" y="211" width="538" height="112" filterUnits="userSpaceOnUse"><feOffset dy="3" input="SourceAlpha"/><feGaussianBlur stdDeviation="3" result="j"/><feFlood flood-opacity="0.161"/><feComposite operator="in" in2="j"/><feComposite in="SourceGraphic"/></filter></defs><g transform="translate(-992 -251)"><g transform="translate(474 8)"><g class="h" transform="matrix(1, 0, 0, 1, 518, 243)"><rect class="a" width="847" height="729" rx="8" transform="translate(17 17)"/></g><g class="g" transform="matrix(1, 0, 0, 1, 518, 243)"><rect class="a" width="847" height="729" rx="8" transform="translate(19 18)"/></g></g><g transform="translate(474 8)"><g class="f" transform="matrix(1, 0, 0, 1, 518, 243)"><rect class="a" width="520" height="94" rx="10" transform="translate(176 479)"/></g><text class="b" transform="translate(728 781)"><tspan x="0" y="0">celular (com DDD)</tspan></text><g transform="translate(0 -25)"><g class="e" transform="matrix(1, 0, 0, 1, 518, 268)"><rect class="a" width="520" height="94" rx="10" transform="translate(176 348)"/></g><text class="b" transform="translate(728 675)"><tspan x="0" y="0">email</tspan></text></g><g transform="translate(0 -50)"><g class="d" transform="matrix(1, 0, 0, 1, 518, 293)"><rect class="a" width="520" height="94" rx="10" transform="translate(176 217)"/></g><text class="b" transform="translate(728 569)"><tspan x="0" y="0">nome completo</tspan></text></g><text class="c" transform="translate(599 354)"><tspan x="0" y="0">Cadastre o seu estabelecimento</tspan></text></g></g></svg>