<svg xmlns="http://www.w3.org/2000/svg" width="424" height="464.873" viewBox="0 0 424 464.873"><defs><style>.a{fill:#fcd8c2;}.b{fill:#ff9669;}.c{fill:#9a0c34;}.d{fill:#691709;}.e{fill:#1f0d09;}.f{fill:#fad7c1;}</style></defs><g transform="translate(-122.666 -108.656)"><g transform="translate(313.641 119.434)"><g transform="translate(63.675 77.177)"><path class="a" d="M578.775,325.721c3.558,4.934,26.079,10.3,26.079,10.3.438-15.785,4.059-46.841,3.283-50.864,0,0-18.721-13.388-18.039-14.809-1.315-.427-.238-2.287-.534-4.181-2.842-1.758-9.113.416-7.635,7.092,1.1,4.957-2.661,4.777-.1,13.011,1.491,4.791-4.246,4.722-1.437,13.349,1.14,3.5-3.873,4.809-1.306,12.36C580.671,316.627,573.939,319.015,578.775,325.721Z" transform="translate(-576.996 -265.579)"/></g><g transform="translate(32.525)"><path class="b" d="M524.954,165.9a21.871,21.871,0,0,0-1.151-4.061,22.845,22.845,0,0,1-1.3-2.869,10.511,10.511,0,0,1-.52-3.926,15.821,15.821,0,0,1,.374-2.208,20.347,20.347,0,0,0,.281-2.868c-.011-.544-.059-1.123-.1-1.613-.032-.311-.051-.474-.09-.754l-.112-.757c-.078-.5-.155-.974-.242-1.411-.167-.875-.317-1.608-.436-2.116s-.191-.81-.191-.81a1.823,1.823,0,0,1,1.308-2.239,1.729,1.729,0,0,1,2.158,1.375s1.608,6.278,1.622,6.357c.06-.065.123-.132.175-.19a5.974,5.974,0,0,1,.609-.6l.387-4.242-1.284-7.635A1.416,1.416,0,0,1,527.6,133.7a1.387,1.387,0,0,1,.307-.015l-1.036-2.63a1.417,1.417,0,0,1,.791-1.836,1.394,1.394,0,0,1,.64-.089,1.229,1.229,0,0,1,2.263-.677s.213.331.564.92.862,1.428,1.435,2.452c.294.509.6,1.065.926,1.653l.5.906.252.471.128.239.145.284a11.251,11.251,0,0,1,.9,2.521,11.594,11.594,0,0,1,.306,2.764c0,1.563-.021,3.126-.053,4.592-.031,1.37-.071,2.649-.118,3.768a5.21,5.21,0,0,1,.176,1.716s-2.008,13.645-2.008,13.959C533.715,167.044,525.178,168.29,524.954,165.9Z" transform="translate(-521.42 -127.886)"/></g><g transform="translate(32.247 34.774)"><path class="c" d="M562.6,300.155c12-4.879-8.327-36.882-13.4-52.65-2.852-8.856-11.229-57.578-11.229-57.578l-17.033.754s-.19,52,1.833,62.546c1.951,10.164,12.512,51.56,12.963,53.708C537.274,314.317,562.6,300.19,562.6,300.155Z" transform="translate(-520.924 -189.927)"/></g><g transform="translate(13.669 399.294)"><path class="b" d="M502.193,866.733s.468-20.57.627-26.455L487.779,843.1l1.906,30.845Z" transform="translate(-487.779 -840.278)"/></g><g transform="translate(0 254.542)"><g transform="translate(172.755 10.42)"><path class="b" d="M793.026,600.613S776.531,611.37,771.608,614.6l10.9,10.743,24.234-18.92Z" transform="translate(-771.608 -600.613)"/></g><g transform="translate(193.736)"><path class="d" d="M822.536,598.937s15.978,2.291,22.891,2.175c3.41-.058,3.484-3.468,1.921-4.161l-33.5-14.845c-2.713-1.2-4.809,10.851-4.809,10.851Z" transform="translate(-809.041 -582.022)"/></g><g transform="translate(1.586 57.003)"><path class="d" d="M508.033,688.53l-38.487-4.807c-10.909,38.691,8.519,109.623,8.519,109.623l16.051-.705S505.59,742.925,508.033,688.53Z" transform="translate(-466.22 -683.723)"/></g><g transform="translate(96.193 11.967)"><path class="d" d="M643.919,654.907,635.013,675.4s5.257,32.678,40.161,4.45c17.9-14.475,49.347-41.876,63.356-63.736l-10.766-12.743S670.955,629.846,643.919,654.907Z" transform="translate(-635.013 -603.373)"/></g><g transform="translate(0 170.178)"><path class="d" d="M478.891,893.323s-11.006,11.8-14.854,17.545c-1.9,2.833.851,4.823,2.312,3.934l31.317-19.056c2.245-1.366-6.149-10.105-6.149-10.105Z" transform="translate(-463.391 -885.641)"/></g></g><g transform="translate(1.913 198.288)"><path class="d" d="M512.7,481.658l50.5,1.421s17.674,23.271,21.17,42.6c2.894,16,18.975,94.334,4.235,102.1-3.268,1.722-24.9,1.268-24.9,1.268-6.118-11.779-25.243-80.228-25.243-80.228S512.086,601.9,507.552,611.3c-12.792,26.523-40.333,15.849-40.7,7.478C465.148,580.368,512.7,481.658,512.7,481.658Z" transform="translate(-466.804 -481.658)"/></g><g transform="translate(64.029 81.831)"><path class="b" d="M579.5,291.608c.17.1.155.285.161.48a3.5,3.5,0,0,1-.817,1.787s-.015,2.872-.047,2.865c0,1.164-1.974,3.355-.794,5.356,1.609,2.728,9.618,1.551,11.047,3.331,2.232,2.78-1.527,12.631-3.225,14.431l18.936,5.08c-.1-7.15,10.1-28.263,10.1-28.263-.018-.01,1.332-4.856,1.336-4.876,2.252-11.756-30.081-14.317-29.3-17.917a8.416,8.416,0,0,0-3.121,4.37,14.77,14.77,0,0,0-.525,4.224,4.166,4.166,0,0,1-.558,2.167c-1.363,2.3-3.738,2.792-4.316,3.625C577.471,289.595,578.544,291.047,579.5,291.608Z" transform="translate(-577.627 -273.883)"/></g><g transform="translate(43.978 124.203)"><path class="c" d="M591.834,352.164c12.474,3.923,22.7,7.167,24.145,8.614-3.857,17.576-19.8,64.209-19.8,64.209l-50.5-1.421s-1.868-18.185-3.655-37.661c-2.83-30.835,30.034-36.424,30.034-36.424S591.622,352.1,591.834,352.164Z" transform="translate(-541.854 -349.481)"/></g><g transform="translate(72.795 74.212)"><path class="a" d="M593.939,262.8c.658-2.038,2.813-3.5,7.578-1.7,1.96.739,7.348-.409,16.28,1.5a20.344,20.344,0,0,1,7.225,2.759c2.618-3.336,14.775-2.569,14.5,5.594-.138,4.1-3.974,8.079-7.323,8.442a49.484,49.484,0,0,1-.138,10.174c-.506,4.782,3.985,4.821.865,12.125-1.6,3.75,4.162,3.593.621,10.823-1.475,3.012,1.076,4.463,1.084,7.13a34.28,34.28,0,0,0-13.739-2.018c-10.811.972-14.775-3.465-12.165-8.6,1.781-3.506-4.347-3.068-1.294-9.618,2.416-5.184-4.32-7.3-2.668-9.954,1.3,1.582,2.513.844,3.615-.388a12.869,12.869,0,0,0,2.156-3.333,3.591,3.591,0,0,0-.265-3.068,2.767,2.767,0,0,0-2.728-1.071,4.6,4.6,0,0,0-2.354,1.606l-.017.094c-.016-.01-.031-.02-.048-.029-5.32-2.816-12.192-11.953-11.353-15.353C592.839,266.983,593.379,264.536,593.939,262.8Z" transform="translate(-593.267 -260.29)"/></g><g transform="translate(103.648 216.297)"><path class="b" d="M669.469,513.788a20.61,20.61,0,0,1-2.126,1.664c-.118.016-10.214,1.655-10.214,1.655a1.64,1.64,0,0,0-1.42,1.967,1.728,1.728,0,0,0,2.049,1.361l.777-.136c.285-.05.651-.105,1.068-.165-1.384.832-2.821,1.861-3.906,2.678a11.917,11.917,0,0,0-2.881,3.09l-4.258,6.612a1.633,1.633,0,0,0,2.666,1.877l3.386-4.245-3.365,5.859a1.7,1.7,0,0,0,.277,2.1,1.658,1.658,0,0,0,2.455-.235l1.269-1.712-.7,1.21a1.709,1.709,0,0,0,.27,2.109,1.661,1.661,0,0,0,2.459-.233l1.148-1.567a1.615,1.615,0,0,0,2.749,1.629l3.972-4.871.494-.342c1.514-.855,7.286-4.124,8.749-4.867,3.03-1.544,4.426-5.444,5.924-9.8C677.133,519.147,672.63,516.217,669.469,513.788Z" transform="translate(-648.313 -513.788)"/></g><g transform="translate(102.799 132.603)"><path class="c" d="M646.837,398.421l35.29,18.253-2.34-5.8-14.1,37.423,14.69,8.784s19.9-29.232,25.653-44.592c3.24-8.652-1.557-13.286-5.524-16.969-9.171-8.517-33.235-28.625-45.441-31.055C655.063,364.467,646.142,398.007,646.837,398.421Z" transform="translate(-646.798 -364.467)"/></g><g transform="translate(45.442 134.163)"><g transform="translate(88.531 46.328)"><path class="e" d="M702.778,452.282l-.285-.167,9.118-2.2a.493.493,0,0,1,.234.958l-9.428,2.366Z" transform="translate(-702.416 -449.906)"/></g><path class="e" d="M544.465,378.342l9.519-10.921a.493.493,0,0,1,.748.643l-10.009,11.315Z" transform="translate(-544.465 -367.249)"/><g transform="translate(15.2 119.858)"><path class="e" d="M584.017,593.531l-12.276-11.586a.493.493,0,1,1,.671-.722l12.105,11.3Z" transform="translate(-571.584 -581.091)"/></g><g transform="translate(72.644 165.017)"><path class="e" d="M674.586,681.767a.493.493,0,0,1-.456-.725l10.364-19.379.117.847.838-.514L675,681.506A.494.494,0,0,1,674.586,681.767Z" transform="translate(-674.071 -661.662)"/></g></g></g><g transform="translate(122.666 113.334)"><g transform="translate(119.174 66.372)"><g transform="translate(0)"><path class="e" d="M337.322,282.042c-5.528-13.44,2.164-10.769.35-20.383-2.291-12.138,4.809-12.315,7.192-16.221a12.9,12.9,0,0,1,12.72-6.54,8.247,8.247,0,0,0,2.55-.176,9.836,9.836,0,0,0,2.979-1.336c7.147-4.457,10.851.2,13.954-.856,13.138-4.482,13.2,5.894,17.736,8.477,10.392,5.917,3.2,12.68,6.531,17,7.9,10.241-3.431,9.661.519,19.131,4.552,10.91-21.694,15.655-21.8,15.873-2.418,4.814-16.547,7.984-25.092,9.454-10.2,1.755-10.407-1.134-13.821-4.174C330.509,292.829,340.171,288.967,337.322,282.042Z" transform="translate(-335.288 -235.417)"/></g></g><g transform="translate(9.055 188.15)"><path class="d" d="M175.636,460.352a21.855,21.855,0,0,0-3.285,2.637,22.762,22.762,0,0,1-2.134,2.306,10.482,10.482,0,0,1-3.406,2,15.831,15.831,0,0,1-2.175.514,20.266,20.266,0,0,0-2.745.857c-.5.222-1.009.491-1.444.717-.274.151-.415.231-.659.377l-.652.4c-.427.265-.835.521-1.2.77-.74.494-1.355.916-1.776,1.223l-.67.49a1.818,1.818,0,0,1-2.566-.332,1.724,1.724,0,0,1,.425-2.518s5.144-3.918,5.212-3.962c-.083-.03-.169-.063-.242-.087a5.977,5.977,0,0,1-.792-.325l-4.048,1.294-6.518,4.148a1.413,1.413,0,0,1-1.949-.427,1.378,1.378,0,0,1-.133-.277l-2.014,1.975a1.414,1.414,0,0,1-1.995-.013,1.386,1.386,0,0,1-.331-.554,1.226,1.226,0,0,1-1.5-1.816s.221-.325.626-.877.977-1.347,1.7-2.272c.354-.467.744-.967,1.16-1.493l.638-.811.335-.415.17-.211.2-.244a11.266,11.266,0,0,1,1.966-1.807,11.624,11.624,0,0,1,2.422-1.356c1.438-.605,2.882-1.2,4.241-1.736,1.272-.5,2.462-.965,3.509-1.356a5.23,5.23,0,0,1,1.508-.828s13.321-3.459,13.609-3.58C173.282,451.856,177.745,459.217,175.636,460.352Z" transform="translate(-138.821 -452.686)"/></g><g transform="translate(193.8)"><path class="d" d="M478.686,155.152a21.905,21.905,0,0,1,1.291-4.019,22.837,22.837,0,0,0,1.394-2.823,10.513,10.513,0,0,0,.656-3.906,15.849,15.849,0,0,0-.3-2.22,20.357,20.357,0,0,1-.181-2.876c.03-.543.1-1.121.154-1.609.044-.31.068-.471.117-.751l.138-.753c.1-.494.188-.968.29-1.4.2-.869.372-1.6.508-2.1s.219-.8.219-.8a1.822,1.822,0,0,0-1.23-2.283,1.728,1.728,0,0,0-2.2,1.3s-1.824,6.219-1.841,6.3c-.058-.067-.119-.136-.169-.2a5.932,5.932,0,0,0-.587-.625l-.239-4.253,1.547-7.586a1.415,1.415,0,0,0-1.1-1.671,1.393,1.393,0,0,0-.307-.026l1.127-2.592a1.417,1.417,0,0,0-.727-1.863,1.4,1.4,0,0,0-.637-.11,1.229,1.229,0,0,0-2.238-.754s-.225.323-.6.9-.911,1.4-1.519,2.4c-.311.5-.638,1.043-.983,1.62l-.53.888-.268.462-.137.234-.154.279a11.233,11.233,0,0,0-.987,2.487,11.613,11.613,0,0,0-.4,2.752c-.052,1.563-.087,3.125-.106,4.591-.016,1.371-.021,2.649-.012,3.769a5.22,5.22,0,0,0-.235,1.709s1.534,13.706,1.524,14.019C469.891,155.993,478.379,157.532,478.686,155.152Z" transform="translate(-468.43 -117.001)"/></g><g transform="translate(159.858 33.423)"><path class="f" d="M411.38,285.942c-11.826-5.291,9.6-36.572,15.217-52.155,3.157-8.753,13.213-57.156,13.213-57.156l17,1.343s-1.609,51.977-4,62.446c-2.3,10.091-14.288,51.1-14.813,53.228C436.2,300.972,411.371,285.977,411.38,285.942Z" transform="translate(-407.874 -176.632)"/></g><g transform="translate(141.404 76.509)"><g transform="translate(0)"><path class="d" d="M407.713,271.382c-.541-.842-2.869-1.414-4.133-3.733a4.111,4.111,0,0,1-.473-2.16,12.936,12.936,0,0,0-.368-4.189c-.876-3.545-4.773-6.767-5.944-7.8.641,3.581-16.274,5.9-14.47,17.59,0,.02.017-.008,0,0,0,0-11.867,26.744-5.5,33.411l28.14,35.637-7.605-41.209c-1.612-1.837-2.324-7.91-.021-10.575,1.475-1.707,8.564-.674,10.249-3.31,1.236-1.934-.631-4.166-.593-5.316-.032.006.055-2.833.056-2.831a3.454,3.454,0,0,1-.743-1.794c.012-.193,0-.376.176-.468C407.451,274.119,408.563,272.723,407.713,271.382Z" transform="translate(-374.949 -253.504)"/></g></g><g transform="translate(243.819 401.674)"><path class="d" d="M569.157,864.554s-7.637-19.12-11.486-23.573l13.428-7.34,12.426,27.244Z" transform="translate(-557.671 -833.641)"/></g><g transform="translate(0 247.911)"><g transform="translate(24.766 9.935)"><path class="d" d="M180.269,577.033s16.962,11.937,21.771,15.332l-11.263,10.36-23.926-20.118Z" transform="translate(-166.851 -577.033)"/></g><path class="e" d="M148.436,575.9s-16.047,1.737-22.953,1.382c-3.406-.175-3.362-3.587-1.776-4.225L157.7,559.379c2.753-1.108,4.431,11.011,4.431,11.011Z" transform="translate(-122.666 -559.307)"/><g transform="translate(197.569 58.024)"><path class="c" d="M475.154,683.887l36.6-21.057c7.442,16.6,34.125,112.5,34.125,112.5l-19.229,8.18S496.5,752.939,475.154,683.887Z" transform="translate(-475.154 -662.83)"/></g><g transform="translate(30.368 11.534)"><path class="c" d="M272.708,635.034l8.193,20.791s-6.385,32.476-40.291,3.058c-17.387-15.086-63.762-62.912-63.762-62.912l14.81-16.085S246.711,601.177,272.708,635.034Z" transform="translate(-176.847 -579.885)"/></g><g transform="translate(254.845 180.182)"><path class="e" d="M591.662,880.775s16.131.378,22.929,1.642c3.353.624,2.854,3.98,1.2,4.4l-35.518,9.073c-2.547.651-2.927-11.46-2.927-11.46Z" transform="translate(-577.343 -880.775)"/></g></g><g transform="translate(103.175 196.565)"><path class="c" d="M390.707,471.532,340.667,467.7s-23.1,26.235-25.985,41.746c-2.976,15.983-7.938,72.222-7.938,72.222,3.207,1.835,28.4,32.139,28.4,32.139,6.522-11.561,29.308-77.006,29.308-77.006s29.963,57.635,37.783,65.711c20.484,21.154,38.961-15.559,36.2-23.471C432.569,562.218,390.707,471.532,390.707,471.532Z" transform="translate(-306.743 -467.699)"/></g><g transform="translate(119.535 121.938)"><g transform="translate(0 0)"><path class="f" d="M360.359,336.552c-12.6,3.489-22.939,6.377-24.428,7.774,3.246,17.7,17.564,64.856,17.564,64.856l50.27.73a259.705,259.705,0,0,0,6.83-39.761c1.419-17.428-30.38-35.6-30.38-35.6l3.239,32.182S360.476,336.519,360.359,336.552Z" transform="translate(-335.931 -334.554)"/></g></g><g transform="translate(35.856 130.271)"><path class="f" d="M273.333,349.422c-6.151,1.831-22.965,15.576-36.756,24.754-7.746,5.155-49.94,31.285-49.94,31.285L195.13,420.8s43.354-19.641,53.133-24.078c11.851-5.377,36.481-13,44-15.317C298.946,377.9,273.364,349.405,273.333,349.422Z" transform="translate(-186.637 -349.422)"/></g><g transform="translate(123.199 196.565)"><path class="f" d="M356.368,467.7c-1.193,1.021-10,12-13.9,17.868,0,0,5.953-4.408,11.606-.453,6.248,4.372,9.975-2.054,15.49,1.059,8.885,5.014,10.594-1.635,16.169,1.854,7.58,4.744,11.073-1.528,16.1.694,8.838,3.912,12.945,1.027,12.945,1.027l-8.136-21.318Z" transform="translate(-342.468 -467.699)"/></g><g transform="translate(122.475 69.828)"><path class="e" d="M378.646,242.5s7.275,6.378,2.269,10.5c-3.275,2.7-10.21,3.648-6.9,10.422,3.461,7.072.206,8.332-.6,11-1.284,4.261.569,6.319,1.329,9.782,1.242,5.66.313,9.454-6.623,12.043-4.981,1.859-5.436,7.51-9.071,8.842-5.734,2.1-8.824-4.158-17.882-3.038,0,0,.489-39.321,14.472-48.12S374.051,239.22,378.646,242.5Z" transform="translate(-341.177 -241.584)"/></g><g transform="translate(104.067 129.474)"><g transform="translate(72.654)"><path class="e" d="M452.373,364.874l-14.284-16.049a.493.493,0,1,1,.727-.665l13.943,15.367Z" transform="translate(-437.959 -348)"/></g><g transform="translate(56.811 124.881)"><path class="e" d="M409.694,582.115l11.5-11.173a.493.493,0,1,1,.685.708l-11.691,11.411Z" transform="translate(-409.694 -570.804)"/></g><g transform="translate(0 162.619)"><path class="e" d="M314.606,657.157a.494.494,0,0,1-.454-.341l-5.817-17.944.683.531.128-1.271,5.943,18.38a.494.494,0,0,1-.484.645Z" transform="translate(-308.335 -638.133)"/></g></g></g><g transform="translate(275.99 108.656)"><g transform="translate(99.461)"><path class="e" d="M574.228,120.432a.56.56,0,0,1-.254-1.06l21-10.655a.56.56,0,0,1,.507,1l-21,10.655A.552.552,0,0,1,574.228,120.432Z" transform="translate(-573.667 -108.656)"/></g><g transform="translate(99.208 18.612)"><path class="e" d="M592.833,142.983H573.776a.561.561,0,0,1,0-1.121h19.057a.561.561,0,1,1,0,1.121Z" transform="translate(-573.216 -141.862)"/></g><g transform="translate(99.461 28.965)"><path class="e" d="M596.911,169.3a.556.556,0,0,1-.184-.031l-22.683-7.847a.56.56,0,1,1,.367-1.059l22.684,7.847a.561.561,0,0,1-.183,1.09Z" transform="translate(-573.667 -160.333)"/></g><g transform="translate(5.974 0)"><path class="e" d="M426.387,118.751a.551.551,0,0,1-.239-.054l-18.953-8.974a.561.561,0,1,1,.48-1.013l18.952,8.974a.56.56,0,0,1-.24,1.067Z" transform="translate(-406.874 -108.656)"/></g><g transform="translate(0 16.93)"><path class="e" d="M422,139.983H396.777a.561.561,0,1,1,0-1.121H422a.561.561,0,0,1,0,1.121Z" transform="translate(-396.216 -138.862)"/></g><g transform="translate(5.974 27.284)"><path class="e" d="M407.434,164.06a.561.561,0,0,1-.159-1.1l18.953-5.6a.561.561,0,1,1,.318,1.075l-18.952,5.6A.565.565,0,0,1,407.434,164.06Z" transform="translate(-406.874 -157.333)"/></g></g></g></svg>