<svg xmlns="http://www.w3.org/2000/svg" xmlns:xlink="http://www.w3.org/1999/xlink" width="402.239" height="348.606" viewBox="0 0 402.239 348.606"><defs><style>.a{opacity:0.9;}.b{fill:#eaf6f1;}.c{fill:url(#a);}.d{fill:url(#b);}.e{fill:url(#c);}.f{fill:url(#d);}.g{fill:url(#e);}.h{fill:url(#f);}.i{fill:url(#g);}.j{fill:url(#h);}.k{fill:url(#i);}.l{fill:#0f2653;}.m{fill:#3d3d3d;fill-rule:evenodd;}.n{fill:url(#j);}.o{fill:url(#k);}.p{fill:url(#l);}.q{fill:url(#m);}.r{fill:url(#o);}.s{fill:url(#q);}.t{fill:url(#r);}.u{fill:url(#s);}.v{fill:url(#t);}.w{fill:url(#u);}.x{fill:#fff;}.y{fill:url(#x);}.z{fill:url(#y);}.aa{fill:url(#z);}.ab{fill:url(#aa);}</style><linearGradient id="a" x1="-74.483" y1="2.752" x2="-76.085" y2="2.797" gradientUnits="objectBoundingBox"><stop offset="0" stop-color="#f7d1dc"/><stop offset="1" stop-color="#e7a8b5"/></linearGradient><linearGradient id="b" x1="-50.677" y1="3.453" x2="-48.82" y2="4.678" gradientUnits="objectBoundingBox"><stop offset="0" stop-color="#1d4b7f"/><stop offset="1" stop-color="#001f37"/></linearGradient><linearGradient id="c" x1="-20.922" y1="-5.112" x2="-20.813" y2="-4.365" gradientUnits="objectBoundingBox"><stop offset="0" stop-color="#f7d1dc"/><stop offset="0.336" stop-color="#efbcc8"/><stop offset="0.704" stop-color="#e9adba"/><stop offset="1" stop-color="#e7a8b5"/></linearGradient><linearGradient id="d" x1="-6.831" y1="-0.845" x2="-5.858" y2="-0.775" gradientUnits="objectBoundingBox"><stop offset="0" stop-color="#daeefb"/><stop offset="1" stop-color="#9fc4e3"/></linearGradient><linearGradient id="e" x1="7.404" y1="0.208" x2="6.408" y2="0.208" gradientUnits="objectBoundingBox"><stop offset="0" stop-color="#d4adb5"/><stop offset="1" stop-color="#cd8f9b"/></linearGradient><linearGradient id="f" x1="-2.04" y1="0.712" x2="-1.022" y2="0.631" gradientUnits="objectBoundingBox"><stop offset="0" stop-color="#f8c9d2"/><stop offset="1" stop-color="#e59fab"/></linearGradient><linearGradient id="g" x1="-30.072" y1="13.882" x2="-31.004" y2="13.957" xlink:href="#a"/><linearGradient id="h" x1="-9.135" y1="6.122" x2="-8.647" y2="6.734" xlink:href="#b"/><linearGradient id="i" x1="-20.407" y1="-0.212" x2="-21.431" y2="-0.212" gradientUnits="objectBoundingBox"><stop offset="0" stop-color="#daeefb"/><stop offset="1" stop-color="#a6cded"/></linearGradient><linearGradient id="j" x1="-35.288" y1="-767.916" x2="-34.867" y2="-768.459" xlink:href="#i"/><linearGradient id="k" x1="-35.853" y1="-764.575" x2="-35.432" y2="-765.118" xlink:href="#i"/><linearGradient id="l" x1="-36.313" y1="-761.184" x2="-35.892" y2="-761.727" xlink:href="#i"/><linearGradient id="m" x1="1" y1="0.5" x2="0" y2="0.5" gradientUnits="objectBoundingBox"><stop offset="0" stop-color="#599dd6"/><stop offset="1" stop-color="#215c9e"/></linearGradient><linearGradient id="o" x1="0.899" y1="-118.847" x2="-0.101" y2="-118.847" xlink:href="#m"/><linearGradient id="q" x1="1" y1="0.5" x2="0" y2="0.5" xlink:href="#b"/><linearGradient id="r" x1="1" y1="0.5" x2="0" y2="0.5" xlink:href="#i"/><linearGradient id="s" x1="0.499" y1="1.298" x2="0.501" y2="-0.14" xlink:href="#b"/><linearGradient id="t" x1="0.422" y1="4.94" x2="0.585" y2="-4.089" xlink:href="#b"/><linearGradient id="u" x1="10.056" y1="-9.023" x2="-9.002" y2="-8.55" xlink:href="#b"/><linearGradient id="x" x1="2.543" y1="8.292" x2="1.488" y2="8.292" xlink:href="#m"/><linearGradient id="y" x1="1.663" y1="5.312" x2="0.663" y2="5.312" xlink:href="#m"/><linearGradient id="z" x1="-12.909" y1="-1.079" x2="-12.827" y2="-0.347" xlink:href="#a"/><linearGradient id="aa" x1="-4.812" y1="0.12" x2="-3.834" y2="0.185" xlink:href="#i"/></defs><g class="a"><path class="b" d="M296.965,1316.372c58.467,0,294.337,2.069,294.885-11.586.781-19.465-236.659-12.042-295.126-12.042S238.5,1316.372,296.965,1316.372Z" transform="translate(-211.23 -967.877)"/><g transform="translate(202.12 222.5)"><path class="c" d="M779.226,1154.085s-19.472,49.785-19.571,53.219c-.229,7.977,1.4,16.56,8.053,19.282s.819-7.555,3.24-16.494c1.337-4.939,29.462-41.815,29.462-41.815Z" transform="translate(-759.635 -1132.443)"/><path class="d" d="M765.156,1117.345c-18.964,24.854-42.425,53-42.425,53s-11.284-.922-18.129-15.394a193.939,193.939,0,0,1,9.7-37.605Z" transform="translate(-691.961 -1117.345)"/></g><g transform="translate(109.701 82.77)"><path class="e" d="M748.742,906.726S781.75,977.1,849.767,951a156.57,156.57,0,0,0,17.012-2.557s1.461-13.844-18.911-6.413c-18.484-.254-43.155,11.174-81.252-45.143C756.944,884.353,746.426,895.764,748.742,906.726Z" transform="translate(-726.999 -884.77)"/><path class="f" d="M915.526,893.488c-.69,7.167,1.593,17.763,14.554,30.277.716-1.249,8.937-17.881,26.719-28.931.876-1.188-10.964-15.2-26.814-14.678C922.149,880.411,916.277,885.682,915.526,893.488Z" transform="translate(-915.416 -880.141)"/></g><path class="g" d="M982.242,804.2s-4.373,18.568-3.117,27.6c1.168,8.394,8.115,16.092,13.19,25.025,9.889,17.4-19.963,11.631-31.894,6.98C938.131,855.119,940,854.092,940,854.092s17.28-21.04,20.556-26.608c3.023-5.14,9.446-17.371,10.377-23.2C973.256,789.767,982.242,804.2,982.242,804.2Z" transform="translate(-857.621 -763.539)"/><path class="h" d="M973.462,793.771c-9.346,22.579-28.837,17.446-34.346,1.515a56.7,56.7,0,0,1-2.033-6.513c-1.081.547-2.828-1.615-3.57-3-.722-1.345-5.265-11.354,1.53-10.671.312.031.59-.654.818-.511,1.365-17.591,15.115-24.7,16.4-25.6C971.106,735.891,982.482,771.974,973.462,793.771Z" transform="translate(-834.872 -742.332)"/><path class="i" d="M532.423,1199.429s45.569,27.947,48.932,28.65c7.811,1.633,23.88,3.292,27.733-2.778s-13.247-3.055-21.618-7.013c-4.625-2.187-37.341-37.209-37.341-37.209Z" transform="translate(-232.904 -921.035)"/><path class="j" d="M610.046,1076.273a39.474,39.474,0,0,0,19.339,21.262c18.03,8.987,57.254,18.5,117.355-.838,7.431-1.267-.966,31.549,73.4,57.946,15.453-4.185,18.35-15.13,18.35-15.13s-60.954-72.569-74.654-80.175-85.134-1.744-89.929.66c-1.1.551-15.764-10.887-22.213-11.347-13.464-.962-33.569,9.981-42.494,14.969C606.611,1065.067,607.937,1070.724,610.046,1076.273Z" transform="translate(-506.133 -866.592)"/><path class="k" d="M935.366,861.419s-39.976,11.89-33.7,53.94c5.411,31.731,16.176,59.516,35.25,81,6.927,4.942,50.09-5.289,55.531-23.9,9.175-31.386,5.956-56.819-1.448-70.018-5.67-10.107-12.072-28.248-24.626-30.421C967.1,893.51,939.526,866.269,935.366,861.419Z" transform="translate(-838.44 -789.678)"/><path class="l" d="M1070.033,763.585s.1,23.29-23.7,16.846c-3.451-.934-6.474-2.658-9.5,9.946s-9.566,20.556-26.956,24.775c-12.882,3.123-4.747,44.176-47.1,30.208-40.9-13.487-66.769-73.351,12.949-65.989a33.3,33.3,0,0,0,28.6-11.585c7.036-8.393,13.476-18.726,26.176-23.952C1035.992,741.578,1068.66,737.547,1070.033,763.585Z" transform="translate(-923.902 -740.673)"/><g transform="translate(339.683 302.569) rotate(-30)"><path class="m" d="M1.433,6.07A24.559,24.559,0,0,0,0,12.774a58.471,58.471,0,0,0,.769,7.894H48.916q1.877-7.268-2.167-7.848t-6.718-1.046L17.653.087a.809.809,0,0,0-1.127.506l-.01.026L15.078,4.707A13.67,13.67,0,0,1,8.994,6.753a12.279,12.279,0,0,1-5.252-1.8h0a1.614,1.614,0,0,0-2.263.985Q1.454,6,1.433,6.07Z" transform="translate(0)"/></g><g transform="translate(191.625 280.935)"><path class="n" d="M802.39,1271.174c-1.416.138-2.533.578-2.494.983s1.22.621,2.637.483,2.533-.578,2.494-.983S803.807,1271.036,802.39,1271.174Z" transform="translate(-777.473 -1238.975)"/><path class="o" d="M804.843,1264.045c-1.417.138-2.533.578-2.493.983s1.219.621,2.636.483,2.533-.578,2.494-.982S806.26,1263.907,804.843,1264.045Z" transform="translate(-781.371 -1236.046)"/><path class="p" d="M807.753,1257.379c-1.417.138-2.533.578-2.494.983s1.219.621,2.636.483,2.533-.578,2.494-.982S809.169,1257.241,807.753,1257.379Z" transform="translate(-785.995 -1233.307)"/><g transform="matrix(0.574, 0.819, -0.819, 0.574, 16.93, 0)"><path class="m" d="M1.432,6.07A24.559,24.559,0,0,0,0,12.774a58.471,58.471,0,0,0,.769,7.894H48.916q1.877-7.268-2.167-7.848t-6.718-1.047L17.653.087a.809.809,0,0,0-1.127.506l-.01.026L15.078,4.707A13.67,13.67,0,0,1,8.994,6.753a12.279,12.279,0,0,1-5.252-1.8h0a1.614,1.614,0,0,0-2.263.985Q1.454,6,1.432,6.07Z"/></g></g><g transform="translate(41.865 72.893)"><g transform="translate(41.732 162.92)"><path class="q" d="M890.476,1240.078l.725.045c11.533.321,23.605-8.684,27.481-20.5l.077-.256a132.57,132.57,0,0,0,3.754-53.744l-.041-.263c-2.2-12.245-12.9-22.842-24.366-24.124l-.722-.055a520.221,520.221,0,0,0-97.487,2.456l-.165.023c-9.281,1.392-21.006,7.748-24.814,18.41l-.142.458a102.548,102.548,0,0,0-2.749,39.369l.076.472c2.287,11.09,13.016,19.013,22.015,21.681l.159.045A520.159,520.159,0,0,0,890.476,1240.078Zm1.129-10.823-.37-.026a509.3,509.3,0,0,1-94.1-15.63c-6.027-1.815-12.963-7.216-14.337-13.219a92.082,92.082,0,0,1,2.435-34.859c2.194-5.752,9.813-10.138,16.036-11.1a509.54,509.54,0,0,1,95.357-2.4l.372.026c7.319.881,13.5,8.473,14.746,15.1a122,122,0,0,1-3.437,49.193C906.151,1222.739,898.977,1229.4,891.6,1229.255Z" transform="translate(-771.251 -1139.945)"/></g><path class="q" d="M922.4,1136.536c-3.849,6.3-34.4,11.87-71.644,12.776s-68.03-3.171-72.182-9.276Z" transform="translate(-732.529 -975.624)"/><path class="r" d="M929.795,1302.223c-3.989-6.213-34.656-11.1-71.911-11.177s-67.944,4.685-71.959,10.881Z" transform="translate(-744.25 -1039.116)"/><path class="q" d="M1063.565,1030.737c-16.172-.884-30.6-29.482-41.315-65.163-25.045-83.358-6.12-95.233,8.5-102.2Z" transform="translate(-1010.041 -863.374)"/><g transform="translate(38.933 155.136)"><path class="s" d="M998.923,1137.3a10.57,10.57,0,1,0,10.57-10.57A10.571,10.571,0,0,0,998.923,1137.3Z" transform="translate(-998.923 -1126.73)"/><path class="t" d="M1004.773,1139.7a7.123,7.123,0,1,0,7.123-7.124A7.123,7.123,0,0,0,1004.773,1139.7Z" transform="translate(-1001.326 -1129.134)"/></g></g><g transform="translate(196.797 152.459)"><path class="u" d="M493.614,1002.766l199.335,1.68a4.211,4.211,0,0,1,1.582.31v8.111a4.21,4.21,0,0,1-1.582.31H499.9c-4.707,0-10.765-7.131-10.765-9.542S493.1,1003.24,493.614,1002.766Z" transform="translate(-489.088 -1000.08)"/><path class="v" d="M492.369,998.445h200.6a1.509,1.509,0,0,1,1.608,1.286v7.135a4.338,4.338,0,0,1-1.608.311H496.735c-2.41,0-6.579-2.082-7.353-4.366C488.535,1000.312,489.958,998.445,492.369,998.445Z" transform="translate(-489.136 -998.445)"/><g transform="translate(34.935 13.098)"><rect class="w" width="4.595" height="170.268" transform="translate(130.976)"/><rect class="w" width="4.595" height="170.268" transform="translate(0)"/></g></g><g transform="translate(202.459 80.319)"><path class="l" d="M704.3,986.247h72.977s.392,4.573-2.437,7.185H707.606S703.6,992.127,704.3,986.247Z" transform="translate(-704.221 -921.292)"/><path class="l" d="M647.16,941.6l28.309-65.618s4.472,1.419,5.845,4.978l-26.082,60.456S652.443,944.513,647.16,941.6Z" transform="translate(-574.621 -875.98)"/></g><g transform="translate(104.961)"><path class="t" d="M958.49,771.021a2.409,2.409,0,0,0,1.1,3.172h0a2.408,2.408,0,0,0,2.828-1.811l10.2-29.487a2.409,2.409,0,0,0-1.1-3.172h0a2.408,2.408,0,0,0-2.828,1.811Z" transform="translate(-951.904 -739.632)"/><path class="x" d="M953.548,806.418a1.775,1.775,0,0,1,2.4.737l5.8,10.935,10.923,6.12a1.777,1.777,0,1,1-1.737,3.1L959.671,821s-.007-.006-.011-.007a1.769,1.769,0,0,1-.8-.762l-6.054-11.409A1.777,1.777,0,0,1,953.548,806.418Z" transform="translate(-949.322 -766.991)"/><path class="y" d="M942.2,837.385a2.862,2.862,0,0,1,3.931-.862l3.5,1.916a2.669,2.669,0,1,1-2.539,4.638l-3.5-1.915A2.858,2.858,0,0,1,942.2,837.385Z" transform="translate(-920.75 -779.275)"/><path class="z" d="M971.558,797.606a6.622,6.622,0,1,0,8.184-4.552A6.623,6.623,0,0,0,971.558,797.606Z" transform="translate(-971.303 -761.479)"/></g><g transform="translate(72.138 77.667)"><path class="aa" d="M790.048,917.153s32.653,75.661,126.368,36.841c9.359-1.2,20.544-3.783,20.544-3.783s-.19-15.094-24.986-6.532c-22.183,1.313-68.378,17.548-93.2-36.041C807.735,896.886,787.763,907.232,790.048,917.153Z" transform="translate(-784.013 -884.463)"/><path class="ab" d="M987.768,881.216c-2.672,6.685-3.45,17.5,5.479,33.145,1.037-1,9.838-13.863,30-19.481,1.175-.895-4.608-18.777-17.285-22.746C998.483,869.791,990.679,873.936,987.768,881.216Z" transform="translate(-985.969 -871.478)"/></g></g></svg>