<svg xmlns="http://www.w3.org/2000/svg" width="535" height="500" viewBox="0 0 535 500"><defs><style>.a{fill:#d7eae3;}.b{fill:#00613c;font-size:30px;font-family:OpenSans-Light, Open Sans;font-weight:300;}.c{font-family:OpenSans-SemiBold, Open Sans;font-weight:600;}.d,.p,.v{fill:none;}.d{stroke:#707070;opacity:0.5;}.e{fill:#fff;}.f{fill:#297857;}.g{fill:#37d9a7;}.h{fill:#3eecab;}.i{fill:#1f3953;}.j{fill:#264563;}.k{fill:#1a3148;}.l{fill:#ec4d3e;}.m{fill:#e0e1e3;}.n{fill:#c7c9cb;}.o{fill:#aeb0b3;}.p,.v{stroke:#c7c9cb;}.p{stroke-width:2px;}.q{fill:#96999c;}.r{fill:#36a778;}.s{fill:rgba(255,247,0,0.56);}.t{fill:#fff700;}.u{fill:#f5f669;}.v{stroke-width:0.2px;}</style></defs><g transform="translate(-129 -3162)"><rect class="a" width="535" height="500" rx="8" transform="translate(129 3162)"/><text class="b" transform="translate(174 3558)"><tspan x="0" y="32">Finalize o pedido e </tspan><tspan class="c" y="32">pronto!</tspan><tspan y="32"> </tspan><tspan x="0" y="65">Agora é só aguardar a entrega.</tspan></text><line class="d" x2="167" transform="translate(313.5 3545.5)"/><g transform="translate(261 3236.486)"><g transform="translate(-77.09 0)"><g transform="translate(-3.954)"><rect class="e" width="434.631" height="291.221" rx="8" transform="translate(0 -15)"/></g></g><g transform="translate(65.225 18.819)"><g transform="translate(77.914 24.862) rotate(90)"><g transform="translate(3.157)"><path class="f" d="M223.36,234.851c.244,0,2.16-.041,2.3-.078a.656.656,0,0,0,.523-.675.666.666,0,0,0-.705-.732h.337a.878.878,0,0,0,0-1.755h.173a.887.887,0,0,0,0-1.774h4.152a.878.878,0,0,0,0-1.755h-6.7l.805-1.35a1.089,1.089,0,0,0,.03-1.208.618.618,0,0,0-.814-.177s-2.959,2.235-4.24,3.517h-5.273v5.081h5.13A10.593,10.593,0,0,0,223.36,234.851Z" transform="translate(-213.945 -225.252)"/></g><g transform="translate(0 3.36)"><rect class="g" width="6.041" height="5.624"/></g><g transform="translate(0 6.172)"><rect class="h" width="6.041" height="2.812"/></g><g transform="translate(4.091 6.944)"><circle class="i" cx="0.431" cy="0.431" r="0.431"/></g></g><g transform="translate(58.457 -1)"><path class="g" d="M379.976,66.6l-2.305-7.717h-3.224V61.07h1.591l5.752,19.266h16.982l4.562-13.74Z" transform="translate(-374.446 -58.878)"/><g transform="translate(7.343 7.717)"><path class="h" d="M397.421,96.764H414.4l4.561-13.74Z" transform="translate(-397.421 -83.023)"/></g></g><g transform="translate(-27.928 68.617)"><path class="h" d="M691.173,342.39H667.339v16.2h25.7V344.252A1.861,1.861,0,0,0,691.173,342.39Z" transform="translate(-667.339 -342.39)"/><g transform="translate(0)"><rect class="g" width="12.848" height="16.2"/></g><g transform="translate(0 6.201)"><path class="e" d="M697.18,361.791h-4.145v9.679h-25.7V375.5h34.914v-7.222Z" transform="translate(-667.339 -361.791)"/></g><g transform="translate(26.859 7.694)"><path class="j" d="M751.372,366.461v5h6.22l-3.727-5Z" transform="translate(-751.372 -366.461)"/></g><g transform="translate(3.281 17.467)"><path class="k" d="M681.1,397.039a3.5,3.5,0,0,0-3.5,3.5h1.453a2.047,2.047,0,1,1,4.093,0H684.6A3.5,3.5,0,0,0,681.1,397.039Z" transform="translate(-677.603 -397.039)"/><g transform="translate(0.832 0.852)"><circle class="j" cx="2.667" cy="2.667" r="2.667"/></g><g transform="translate(2.166 2.172)"><path class="e" d="M687.047,405.167a1.334,1.334,0,1,1-1.334-1.334A1.334,1.334,0,0,1,687.047,405.167Z" transform="translate(-684.379 -403.833)"/></g></g><g transform="translate(23.884 17.467)"><path class="k" d="M745.563,397.039a3.5,3.5,0,0,0-3.5,3.5h1.453a2.047,2.047,0,1,1,4.093,0h1.453A3.5,3.5,0,0,0,745.563,397.039Z" transform="translate(-742.063 -397.039)"/><g transform="translate(0.832 0.852)"><circle class="j" cx="2.667" cy="2.667" r="2.667"/></g><g transform="translate(2.166 2.172)"><path class="e" d="M751.507,405.167a1.334,1.334,0,1,1-1.334-1.334A1.334,1.334,0,0,1,751.507,405.167Z" transform="translate(-748.839 -403.833)"/></g></g><g transform="translate(26.859 14.584)"><rect class="j" width="1.372" height="0.372"/></g><g transform="translate(34.141 15.881)"><rect class="l" width="1.125" height="2.391"/></g></g></g><g transform="translate(84.005 70.722)"><g transform="translate(7.38)"><g transform="translate(0 0)"><path class="i" d="M28.074,0H60.9A28.076,28.076,0,0,1,88.977,28.076V138.149A28.079,28.079,0,0,1,60.9,166.228H28.079A28.079,28.079,0,0,1,0,138.149V28.074A28.074,28.074,0,0,1,28.074,0Z"/></g><g transform="translate(36.972 151.873)"><path class="m" d="M415.293,699.085H402.914a1.328,1.328,0,0,1,0-2.656h12.379a1.328,1.328,0,0,1,0,2.656Z" transform="translate(-401.587 -696.429)"/></g><g transform="translate(4.26 19.758)"><rect class="m" width="80.456" height="122.36"/></g><g transform="translate(44.489)"><path class="j" d="M460.618,221.266H425.1v19.758h40.228v122.36H425.1v9.755h6.189a1.328,1.328,0,0,1,0,2.656H425.1v11.7h35.514a8.985,8.985,0,0,0,8.974-8.975V230.239A8.983,8.983,0,0,0,460.618,221.266Z" transform="translate(-425.104 -221.266)"/></g><g transform="translate(44.489 151.873)"><path class="e" d="M431.293,699.085a1.328,1.328,0,0,0,0-2.656H425.1v2.656Z" transform="translate(-425.104 -696.429)"/></g><g transform="translate(44.489 19.758)"><rect class="e" width="40.228" height="122.36"/></g></g><g transform="translate(21.91 102.392)"><rect class="g" width="59.838" height="36.084" rx="5.125"/><g transform="translate(1.638 0)"><path class="h" d="M393.059,541.619h-2.892L339.706,577.7h53.353a1.638,1.638,0,0,0,1.638-1.638V543.257C394.7,542.352,393.059,541.619,393.059,541.619Z" transform="translate(-336.497 -541.619)"/></g><g transform="translate(3.648 18.861)"><path class="e" d="M343.914,600.629c.778,0,1.138.55,1.138,1.359s-.36,1.351-1.138,1.351-1.127-.55-1.127-1.351S343.143,600.629,343.914,600.629Zm0,2.339c.562,0,.747-.434.747-.98s-.186-.987-.747-.987c-.546,0-.736.433-.736.987S343.368,602.968,343.914,602.968Z" transform="translate(-342.787 -600.629)"/><g transform="translate(2.809)"><path class="e" d="M352.7,600.629c.778,0,1.138.55,1.138,1.359s-.36,1.351-1.138,1.351-1.127-.55-1.127-1.351S351.931,600.629,352.7,600.629Zm0,2.339c.562,0,.747-.434.747-.98s-.186-.987-.747-.987c-.546,0-.736.433-.736.987S352.156,602.968,352.7,602.968Z" transform="translate(-351.575 -600.629)"/></g><g transform="translate(5.417 0.039)"><path class="e" d="M360.865,600.75h.3v2.633h-.4v-2.176l-.879.422-.151-.306Z" transform="translate(-359.734 -600.75)"/></g><g transform="translate(7.516)"><path class="e" d="M368.344,603.3h-1.986v-.306l1.073-.809a.834.834,0,0,0,.426-.678A.493.493,0,0,0,367.3,601a.573.573,0,0,0-.631.612l-.368-.066a.9.9,0,0,1,1.007-.918.85.85,0,0,1,.956.848,1.05,1.05,0,0,1-.534.921l-.747.55h1.359Z" transform="translate(-366.303 -600.629)"/></g><g transform="translate(10.841 0.039)"><path class="e" d="M377.835,600.75h.3v2.633h-.4v-2.176l-.879.422-.151-.306Z" transform="translate(-376.704 -600.75)"/></g><g transform="translate(12.94)"><path class="e" d="M385.314,603.3h-1.986v-.306l1.073-.809a.833.833,0,0,0,.426-.678.493.493,0,0,0-.554-.507.573.573,0,0,0-.631.612l-.368-.066a.9.9,0,0,1,1.007-.918.849.849,0,0,1,.956.848,1.05,1.05,0,0,1-.534.921l-.747.55h1.359Z" transform="translate(-383.273 -600.629)"/></g><g transform="translate(15.47)"><path class="e" d="M391.521,601.768h.635c.345,0,.519-.178.519-.391,0-.263-.255-.4-.6-.4a1.943,1.943,0,0,0-.782.174l-.1-.345a2.392,2.392,0,0,1,.875-.178c.646,0,1.022.252,1.022.708a.576.576,0,0,1-.457.589.63.63,0,0,1,.55.658c0,.465-.415.755-1.115.755a2.56,2.56,0,0,1-.875-.17l.1-.341a2.027,2.027,0,0,0,.775.167c.4,0,.7-.174.7-.469,0-.263-.209-.4-.608-.4h-.635Z" transform="translate(-391.188 -600.629)"/></g><g transform="translate(17.892 0.039)"><path class="e" d="M400.635,602.837v.546h-.383v-.546h-1.487v-.279l1.363-1.809h.507v1.75h.511v.337Zm-.383-.337v-1.406l-1.069,1.406Z" transform="translate(-398.765 -600.75)"/></g><g transform="translate(21.646 0.039)"><path class="e" d="M412.454,601.1h-1.34l-.054.693h.4c.654,0,1.084.217,1.084.74,0,.619-.5.887-1.115.887a2.316,2.316,0,0,1-.914-.182l.112-.337a1.826,1.826,0,0,0,.782.174c.379,0,.724-.151.724-.534,0-.329-.294-.445-.693-.445h-.755l-.016-.02.113-1.328h1.677Z" transform="translate(-410.51 -600.75)"/></g><g transform="translate(24.191)"><path class="e" d="M420.453,601.186a1.375,1.375,0,0,0-.736-.213c-.55,0-.813.38-.836.929a1.137,1.137,0,0,1,.844-.356c.608,0,.964.321.964.86a.936.936,0,0,1-1.022.933c-.759,0-1.193-.542-1.193-1.359a1.192,1.192,0,0,1,1.2-1.351,1.793,1.793,0,0,1,.9.229Zm-1.549,1.077a.75.75,0,0,0,.763.7.576.576,0,0,0,.623-.561c0-.36-.263-.527-.623-.527A1.027,1.027,0,0,0,418.9,602.263Z" transform="translate(-418.474 -600.629)"/></g><g transform="translate(26.764 0.039)"><path class="e" d="M427.995,601.1h-1.472v-.352h1.924v.291l-1.127,2.343h-.445v-.039Z" transform="translate(-426.523 -600.75)"/></g><g transform="translate(29.053)"><path class="e" d="M433.686,602.584a.636.636,0,0,1,.612-.658.59.59,0,0,1-.523-.589c0-.457.376-.708,1-.708s1,.252,1,.708a.587.587,0,0,1-.519.589.636.636,0,0,1,.612.658c0,.465-.411.755-1.092.755S433.686,603.049,433.686,602.584Zm.407-.042c0,.283.286.453.685.453s.685-.17.685-.453c0-.244-.2-.418-.681-.418S434.093,602.3,434.093,602.542Zm.085-1.185c0,.209.167.391.6.391s.6-.182.6-.391c0-.263-.244-.391-.6-.391S434.178,601.094,434.178,601.357Z" transform="translate(-433.686 -600.629)"/></g><g transform="translate(32.707)"><path class="e" d="M445.354,602.782a1.394,1.394,0,0,0,.735.213c.55,0,.813-.379.836-.929a1.124,1.124,0,0,1-.84.356c-.608,0-.968-.321-.968-.859a.94.94,0,0,1,1.026-.933c.759,0,1.189.542,1.189,1.359a1.189,1.189,0,0,1-1.2,1.351,1.809,1.809,0,0,1-.906-.229Zm1.552-1.08a.754.754,0,0,0-.763-.7.574.574,0,0,0-.624.562c0,.36.26.53.624.53A1.011,1.011,0,0,0,446.906,601.7Z" transform="translate(-445.117 -600.629)"/></g><g transform="translate(35.257 0.039)"><path class="e" d="M454.225,600.75h.3v2.633h-.4v-2.176l-.879.422-.151-.306Z" transform="translate(-453.094 -600.75)"/></g><g transform="translate(37.387)"><path class="e" d="M460.887,600.629c.779,0,1.138.55,1.138,1.359s-.36,1.351-1.138,1.351-1.127-.55-1.127-1.351S460.116,600.629,460.887,600.629Zm0,2.339c.562,0,.747-.434.747-.98s-.186-.987-.747-.987c-.546,0-.736.433-.736.987S460.341,602.968,460.887,602.968Z" transform="translate(-459.76 -600.629)"/></g><g transform="translate(39.995 0.039)"><path class="e" d="M469.049,600.75h.3v2.633h-.4v-2.176l-.879.422-.151-.306Z" transform="translate(-467.918 -600.75)"/></g></g><g transform="translate(3.648 23.802)"><g transform="translate(24.793)"><g transform="translate(-4 1)"><path class="n" d="M420.355,616.088h.178l.349.923.363-.923h.179l-.442,1.069h-.2Z" transform="translate(-420.355 -616.088)"/></g><g transform="translate(-2.945 1)"><path class="n" d="M424.1,616.088h.189l.424,1.069h-.165l-.094-.236h-.533l-.1.236h-.167Zm-.137.709h.448l-.217-.546Z" transform="translate(-423.657 -616.088)"/></g><g transform="translate(0.854 1)"><path class="n" d="M424.1,616.088h.189l.424,1.069h-.165l-.094-.236h-.533l-.1.236h-.167Zm-.137.709h.448l-.217-.546Z" transform="translate(-423.657 -616.088)"/></g><g transform="translate(-1.686 1)"><path class="n" d="M427.594,617.157v-1.069h.163v.926h.583v.143Z" transform="translate(-427.594 -616.088)"/></g><g transform="translate(-0.733 1)"><path class="n" d="M430.576,616.088h.163v1.069h-.163Z" transform="translate(-430.576 -616.088)"/></g><g transform="translate(-0.238 1)"><path class="n" d="M432.126,616.088h.434a.535.535,0,1,1,0,1.069h-.434Zm.164.143v.783h.264a.391.391,0,0,0,0-.783Z" transform="translate(-432.126 -616.088)"/></g><g transform="translate(2.144 1)"><path class="n" d="M432.126,616.088h.434a.535.535,0,1,1,0,1.069h-.434Zm.164.143v.783h.264a.391.391,0,0,0,0-.783Z" transform="translate(-432.126 -616.088)"/></g><g transform="translate(3.841 1.453) rotate(90)"><path class="n" d="M430.576,616.088h.082v.446h-.082Z" transform="translate(-430.576 -616.088)"/></g></g><g transform="translate(30.793 0.456)"><g transform="translate(0 0.028)"><path class="e" d="M439.953,617.6h.22v1.921h-.294v-1.587l-.641.308-.11-.223Z" transform="translate(-439.128 -617.603)"/></g><g transform="translate(1.531)"><path class="e" d="M445.408,619.464h-1.449v-.223l.782-.59a.608.608,0,0,0,.31-.494.36.36,0,0,0-.4-.37.418.418,0,0,0-.461.446l-.268-.048a.657.657,0,0,1,.734-.669.62.62,0,0,1,.7.618.766.766,0,0,1-.39.672l-.545.4h.992Z" transform="translate(-443.919 -617.515)"/></g><g transform="translate(3.975 0.028)"><path class="e" d="M452.569,617.6h.254v.023l-1,1.9h-.257V619.5Z" transform="translate(-451.566 -617.603)"/></g><g transform="translate(6.185)"><path class="e" d="M459.968,619.464H458.52v-.223l.782-.59a.608.608,0,0,0,.31-.494.36.36,0,0,0-.4-.37.418.418,0,0,0-.46.446l-.268-.048a.657.657,0,0,1,.734-.669.62.62,0,0,1,.7.618.766.766,0,0,1-.39.672l-.545.4h.991Z" transform="translate(-458.48 -617.515)"/></g><g transform="translate(8.05)"><path class="e" d="M465.136,617.515c.568,0,.83.4.83.992s-.262.985-.83.985-.822-.4-.822-.985S464.574,617.515,465.136,617.515Zm0,1.706c.41,0,.545-.316.545-.714s-.136-.721-.545-.721-.536.316-.536.721S464.738,619.221,465.136,619.221Z" transform="translate(-464.314 -617.515)"/></g></g><path class="n" d="M343.469,616.088c.471,0,.689.333.689.823s-.218.818-.689.818-.682-.333-.682-.818S343,616.088,343.469,616.088Zm0,1.415c.34,0,.452-.262.452-.593s-.113-.6-.452-.6-.445.262-.445.6S343.139,617.5,343.469,617.5Z" transform="translate(-342.787 -616.088)"/><g transform="translate(1.578 0.023)"><path class="n" d="M348.408,616.161h.183v1.594h-.244v-1.317l-.532.256-.091-.185Z" transform="translate(-347.724 -616.161)"/></g><g transform="translate(2.849)"><path class="n" d="M352.935,617.705h-1.2v-.185l.649-.49a.5.5,0,0,0,.258-.41.3.3,0,0,0-.335-.307.347.347,0,0,0-.382.37l-.222-.04a.545.545,0,0,1,.609-.556.514.514,0,0,1,.579.513.636.636,0,0,1-.323.557l-.452.333h.822Z" transform="translate(-351.7 -616.088)"/></g><g transform="translate(4.379)"><path class="n" d="M356.691,616.777h.384c.209,0,.314-.108.314-.237,0-.159-.155-.241-.366-.241a1.172,1.172,0,0,0-.473.105l-.061-.209a1.451,1.451,0,0,1,.53-.108c.391,0,.618.152.618.429a.348.348,0,0,1-.276.356.382.382,0,0,1,.333.4c0,.281-.251.457-.675.457a1.547,1.547,0,0,1-.53-.1l.061-.206a1.226,1.226,0,0,0,.469.1c.244,0,.424-.106.424-.284,0-.16-.126-.244-.368-.244h-.384Z" transform="translate(-356.489 -616.088)"/></g></g><g transform="translate(44.842 3.669)"><path class="e" d="M478.915,553.1a2.989,2.989,0,0,1-4.255,0,5.544,5.544,0,1,0,4.255,0Z" transform="translate(-471.668 -553.099)"/></g><g transform="translate(3.648 4.51)"><g transform="translate(2.131 0)"><rect class="o" width="1.564" height="2.187"/></g><path class="o" d="M344.646,555.729h-.393a1.466,1.466,0,0,0-1.466,1.466v.722h1.859Z" transform="translate(-342.787 -555.729)"/><g transform="translate(0 5.032)"><rect class="o" width="3.695" height="1.745"/></g><g transform="translate(0 2.459)"><rect class="o" width="1.859" height="2.3"/></g><g transform="translate(7.298 2.561)"><rect class="o" width="3.763" height="2.199"/></g><g transform="translate(3.967 0)"><rect class="o" width="3.06" height="6.777"/></g><g transform="translate(9.055 5.032)"><rect class="o" width="2.006" height="1.745"/></g><g transform="translate(7.299)"><path class="o" d="M369.384,558.018v-.824a1.466,1.466,0,0,0-1.465-1.466h-2.3v2.289Z" transform="translate(-365.622 -555.729)"/></g><g transform="translate(5.667 7.049)"><path class="o" d="M362.148,577.784h-1.632v2.2h3.116v-2.2Z" transform="translate(-360.516 -577.784)"/></g><g transform="translate(7.298 5.032)"><rect class="o" width="1.484" height="1.745"/></g><g transform="translate(2.131 2.459)"><rect class="o" width="1.564" height="2.3"/></g><g transform="translate(0 7.049)"><path class="o" d="M342.787,577.784v.733a1.466,1.466,0,0,0,1.466,1.465h.393v-2.2Z" transform="translate(-342.787 -577.784)"/></g><g transform="translate(9.055 7.049)"><path class="o" d="M371.116,579.982h.541a1.466,1.466,0,0,0,1.465-1.465v-.733h-2.006Z" transform="translate(-371.116 -577.784)"/></g><g transform="translate(2.131 7.049)"><path class="o" d="M351.153,577.784h-1.7v2.2h3.264v-2.2Z" transform="translate(-349.453 -577.784)"/></g><path class="e" d="M351.842,562.506v-1.745h2.006v-.272h-3.762v-2.2h3.762v-.272h-3.762v-2.289h-.272v6.777h-3.06v-6.777h-.272v2.188h-1.564v-2.188h-.272v2.188h-1.859v.272h1.859v2.3h-1.859v.272h3.695v1.745h-3.695v.272h1.859v2.2h.272v-2.2h3.264v2.2h.272v-2.2h3.116v2.2h.272v-2.2h2.006v-.272Zm-5.36-2.017h-1.564v-2.3h1.564Zm5.088,2.017h-1.484v-1.745h1.484Z" transform="translate(-342.787 -555.729)"/></g><path class="p" d="M0,0H27" transform="translate(3.585 28.9)"/></g><g transform="translate(0 10.791)"><g transform="translate(51.869 28.263)"><path class="f" d="M425.1,343.453v10.418a6.484,6.484,0,0,0,12.967,0V343.453Z" transform="translate(-425.104 -343.453)"/><g transform="translate(12.967)"><path class="q" d="M465.674,343.453v10.418a6.484,6.484,0,0,0,12.967,0V343.453Z" transform="translate(-465.674 -343.453)"/></g><g transform="translate(25.934)"><path class="f" d="M506.244,343.453v10.418a6.484,6.484,0,1,0,12.967,0V343.453Z" transform="translate(-506.244 -343.453)"/></g><g transform="translate(38.901)"><path class="q" d="M546.814,343.453v10.418a6.484,6.484,0,0,0,12.967,0V343.453Z" transform="translate(-546.814 -343.453)"/></g></g><g transform="translate(0 28.263)"><g transform="translate(38.901)"><path class="q" d="M397.5,343.453v10.418a6.484,6.484,0,0,1-12.967,0V343.453Z" transform="translate(-384.533 -343.453)"/></g><g transform="translate(25.934)"><path class="f" d="M356.93,343.453v10.418a6.484,6.484,0,1,1-12.967,0V343.453Z" transform="translate(-343.963 -343.453)"/></g><g transform="translate(12.967)"><path class="q" d="M316.36,343.453v10.418a6.484,6.484,0,1,1-12.967,0V343.453Z" transform="translate(-303.393 -343.453)"/></g><path class="f" d="M275.79,343.453v10.418a6.484,6.484,0,1,1-12.967,0V343.453Z" transform="translate(-262.823 -343.453)"/></g><path class="r" d="M349.849,255.027h0l-5.885,28.263H356.93l2.614-28.263Z" transform="translate(-318.029 -255.027)"/><path class="r" d="M276.236,255.027,262.823,283.29H275.79l9.485-28.263Z" transform="translate(-262.823 -255.027)"/><path class="r" d="M425.1,255.027V283.29h12.967l-2.614-28.263Z" transform="translate(-373.235 -255.027)"/><path class="r" d="M487.831,255.027l5.885,28.263h12.967L497.2,255.027Z" transform="translate(-415.913 -255.027)"/><g transform="translate(12.967)"><path class="e" d="M457.495,255.027l2.614,28.263h12.967l-5.885-28.263Z" transform="translate(-408.24 -255.027)"/><path class="e" d="M526.178,255.027h-9.039l9.485,28.263h12.967Z" transform="translate(-448.821 -255.027)"/><path class="e" d="M387.148,255.027l-2.614,28.263H397.5V255.027Z" transform="translate(-358.599 -255.027)"/><path class="e" d="M312.878,255.027l-9.485,28.263H316.36l5.885-28.263Z" transform="translate(-303.393 -255.027)"/></g></g><g transform="translate(22.399 67.775)"><g transform="translate(0.186)"><g transform="translate(39.986)"><rect class="h" width="18.502" height="3.099"/></g><rect class="r" width="39.986" height="3.099"/></g><g transform="translate(15.184 11.688)"><path class="f" d="M394.48,469.881H380.408v10.171H408.9V469.881Z" transform="translate(-380.408 -469.881)"/></g><g transform="translate(0 7.796)"><g transform="translate(47.186 0)"><g transform="translate(6.333)"><path class="n" d="M500.828,475.6a.48.48,0,0,1-.3-.854,9.913,9.913,0,0,0,.023-16.188.479.479,0,1,1,.6-.747,10.867,10.867,0,0,1-.025,17.684A.477.477,0,0,1,500.828,475.6Z" transform="translate(-500.348 -457.704)"/></g><g transform="translate(4.214 1.696)"><path class="n" d="M494.2,477.514a.479.479,0,0,1-.3-.854,7.834,7.834,0,0,0,.023-12.8.48.48,0,1,1,.6-.747,8.789,8.789,0,0,1-.026,14.292A.476.476,0,0,1,494.2,477.514Z" transform="translate(-493.716 -463.011)"/></g><g transform="translate(2.04 3.392)"><path class="n" d="M487.4,479.47a.479.479,0,0,1-.3-.856,5.76,5.76,0,0,0,.075-9.446.479.479,0,1,1,.6-.746,6.715,6.715,0,0,1-.084,10.945A.477.477,0,0,1,487.4,479.47Z" transform="translate(-486.916 -468.316)"/></g><g transform="translate(0 5.088)"><path class="n" d="M481.142,481.214a.479.479,0,0,1-.314-.842,3.664,3.664,0,0,0-.117-5.9.479.479,0,0,1,.6-.745,4.619,4.619,0,0,1,.139,7.368A.478.478,0,0,1,481.142,481.214Z" transform="translate(-480.533 -473.622)"/></g></g><path class="o" d="M337.764,475.6a.478.478,0,0,1-.3-.105,10.868,10.868,0,0,1-.025-17.684.479.479,0,0,1,.6.747,9.913,9.913,0,0,0,.023,16.188.48.48,0,0,1-.3.854Z" transform="translate(-332.903 -457.703)"/><g transform="translate(2.996 1.696)"><path class="o" d="M346.261,477.513a.477.477,0,0,1-.3-.105,8.79,8.79,0,0,1-.025-14.292.479.479,0,0,1,.6.747,7.835,7.835,0,0,0,.023,12.8.479.479,0,0,1-.3.854Z" transform="translate(-342.277 -463.01)"/></g><g transform="translate(5.992 3.392)"><path class="o" d="M354.811,479.471a.479.479,0,0,1-.3-.1,6.716,6.716,0,0,1-.083-10.945.479.479,0,1,1,.6.746,5.761,5.761,0,0,0,.074,9.445.479.479,0,0,1-.3.856Z" transform="translate(-351.65 -468.317)"/></g><g transform="translate(8.988 5.088)"><path class="o" d="M363.1,481.214a.478.478,0,0,1-.313-.116,4.619,4.619,0,0,1,.139-7.368.479.479,0,1,1,.6.745,3.664,3.664,0,0,0-.117,5.9.479.479,0,0,1-.313.842Z" transform="translate(-361.023 -473.623)"/></g></g></g></g><g transform="translate(22.277 23.501)"><g transform="translate(0 115.881)"><path class="g" d="M112.83,470.5H69.7V488.88h43.133V470.5Z" transform="translate(-69.698 -470.499)"/><g transform="translate(21.566)"><path class="h" d="M158.738,470.5H137.172V488.88h21.566Z" transform="translate(-137.172 -470.499)"/></g><g transform="translate(1.393 1.295)"><path class="f" d="M112.3,474.549l-36.135,0H74.057v15.787h2.105l36.135,0h2.1v-2.105l0-11.577v-2.1Zm1.4,13.006a2.46,2.46,0,0,0-2.079,2.08l-34.782,0a2.461,2.461,0,0,0-2.08-2.08l0-10.224a2.462,2.462,0,0,0,2.08-2.08l34.782,0a2.461,2.461,0,0,0,2.079,2.079Z" transform="translate(-74.057 -474.549)"/><g transform="translate(3.276 1.864)"><g transform="translate(10.865)"><g transform="translate(4.833 3.221)"><path class="f" d="M133.422,491.431c0,.461.366.742.875.977v-1.95A.969.969,0,0,0,133.422,491.431Z" transform="translate(-133.422 -490.457)"/></g><g transform="translate(6.356 6.641)"><path class="f" d="M138.185,501.16v2.147a1.019,1.019,0,0,0,.981-1C139.166,501.755,138.747,501.426,138.185,501.16Z" transform="translate(-138.185 -501.16)"/></g><path class="f" d="M124.332,480.381a6.032,6.032,0,1,0,6.032,6.031A6.034,6.034,0,0,0,124.332,480.381Zm.324,9.581v.841h-.647v-.841c-1.543-.11-2.437-1.059-2.437-1.614,0-.348.281-.541.669-.542a.736.736,0,0,1,.705.406,1.61,1.61,0,0,0,1.063.935v-2.4c-1.07-.413-2.274-.822-2.274-2.042,0-1.072.966-1.736,2.274-1.842v-.845h.647v.838c1.533.092,2.227.935,2.226,1.355,0,.339-.27.522-.646.523a.7.7,0,0,1-.635-.377,1.366,1.366,0,0,0-.946-.765v2.217c1.117.417,2.439.853,2.439,2.235C127.094,489.086,126.206,489.862,124.656,489.962Z" transform="translate(-118.3 -480.381)"/></g></g></g></g><g transform="translate(179.955 59.763)"><g transform="translate(0 4.958)"><path class="g" d="M686.9,200.929H676.519v25.636h20.748V200.929Z" transform="translate(-676.519 -200.929)"/></g><g transform="translate(10.377 4.958)"><rect class="h" width="10.371" height="25.636"/></g><g transform="translate(4.975)"><path class="f" d="M702.542,192.267v-1.792a5.057,5.057,0,0,0-10.114,0V192.3a.9.9,0,1,0,1.029-.059v-1.767a4.028,4.028,0,0,1,8.055,0v1.792a.9.9,0,1,0,1.029,0Z" transform="translate(-692.084 -185.418)"/></g><g transform="translate(2.512 11.114)"><path class="f" d="M692.24,235.916a7.862,7.862,0,1,1,7.862-7.862A7.871,7.871,0,0,1,692.24,235.916Zm0-15.217a7.355,7.355,0,1,0,7.355,7.355A7.363,7.363,0,0,0,692.24,220.7Z" transform="translate(-684.378 -220.191)"/><g transform="translate(3.636 4.319)"><path class="f" d="M698.115,234.885a1.181,1.181,0,1,1-1.181-1.181A1.181,1.181,0,0,1,698.115,234.885Z" transform="translate(-695.753 -233.704)"/><g transform="translate(6.09)"><path class="f" d="M717.17,234.885a1.181,1.181,0,1,1-1.181-1.181A1.181,1.181,0,0,1,717.17,234.885Z" transform="translate(-714.808 -233.704)"/></g></g><g transform="translate(2.618 8.165)"><path class="f" d="M697.822,250.163a5.387,5.387,0,0,1-5.247-4.113.254.254,0,0,1,.493-.121,4.9,4.9,0,0,0,9.489.075.254.254,0,0,1,.491.128A5.4,5.4,0,0,1,697.822,250.163Z" transform="translate(-692.568 -245.735)"/></g></g></g><g transform="translate(185.896 113.361)"><path class="g" d="M636.3,593.161l2.76-3.6-4.351-1.293.116-4.537-4.279,1.512-2.574-3.738h0l-2.573,3.738-4.279-1.512.116,4.537-4.351,1.293,2.76,3.6-2.76,3.6,4.351,1.293-.116,4.536,4.279-1.512,2.573,3.74h0l2.574-3.739,4.279,1.511-.116-4.536,4.351-1.293Z" transform="translate(-616.89 -581.503)"/><g transform="translate(0 0)"><path class="h" d="M625.4,585.242l-4.279-1.512.116,4.537-4.351,1.293,2.76,3.6-2.76,3.6,4.351,1.293-.116,4.536,4.279-1.512,2.573,3.74V581.5Z" transform="translate(-616.89 -581.504)"/></g><g transform="translate(6.22 7.625)"><path class="e" d="M638.527,605.36a2.144,2.144,0,1,1,0,4.286,2.143,2.143,0,1,1,0-4.286Zm0,3.019a.87.87,0,0,0,0-1.74.87.87,0,0,0,0,1.74Zm4.055-2.9h1.3v.138l-4.09,7.7h-1.325v-.15Zm1.3,3.664a2.144,2.144,0,1,1,0,4.286,2.143,2.143,0,1,1,0-4.286Zm0,3.019a.87.87,0,0,0,0-1.74.87.87,0,0,0,0,1.74Z" transform="translate(-636.349 -605.36)"/></g></g><g transform="translate(135.05 1.789)"><g transform="translate(3 -0.045)"><path class="f" d="M9.851,0A9.851,9.851,0,1,1,0,9.851,9.851,9.851,0,0,1,9.851,0Z"/><g transform="translate(0 0)"><path class="f" d="M495.11,82.009a9.851,9.851,0,0,0,0,13.932l13.932-13.932A9.851,9.851,0,0,0,495.11,82.009Z" transform="translate(-492.225 -79.124)"/></g></g><g transform="translate(7.24 3.828)"><path class="h" d="M511.758,96.947l-2.144-2.825a2.184,2.184,0,0,1,1.945.06,1.122,1.122,0,0,0,1.173-.133c.479-.364.646-.859.318-1.291-.407-.536-2.1-.939-4.148.427l-.81-1.068-.825.626.817,1.077c-1.565,1.4-2.153,3.181-1.117,4.546,1.18,1.555,3.11.91,4.873.4l2.318,3.053a2.572,2.572,0,0,1-2.259-.163,1.178,1.178,0,0,0-1.291.165c-.495.376-.666.894-.329,1.338.537.708,2.594,1.052,4.668-.3l.813,1.071.825-.626-.813-1.072c1.878-1.627,2.259-3.476,1.256-4.8C515.692,95.677,513.584,96.4,511.758,96.947Zm-1.078.292c-.875.193-1.613.189-2.06-.4a1.551,1.551,0,0,1,.173-2.087Zm4.325,3.985-2.077-2.737c.974-.2,1.825-.191,2.364.519A1.631,1.631,0,0,1,515.005,101.225Z" transform="translate(-506.449 -92.117)"/></g></g><g transform="translate(166.125 15.338)"><g transform="translate(0 5.507)"><path class="h" d="M601.328,115.018a11.88,11.88,0,1,0,11.88,11.88A11.88,11.88,0,0,0,601.328,115.018Zm0,19.765a7.885,7.885,0,1,1,7.885-7.885A7.885,7.885,0,0,1,601.328,134.783Z" transform="translate(-589.448 -115.018)"/><g transform="translate(3.995 3.995)"><path class="f" d="M610.665,128.35a7.885,7.885,0,1,0,7.885,7.885A7.885,7.885,0,0,0,610.665,128.35Zm0,11.88a4,4,0,1,1,3.995-3.995A3.995,3.995,0,0,1,610.665,140.23Z" transform="translate(-602.78 -128.35)"/></g><g transform="translate(7.885 7.885)"><circle class="h" cx="3.995" cy="3.995" r="3.995"/></g><path class="g" d="M593.443,126.9a7.885,7.885,0,0,1,7.885-7.885v-3.995a11.88,11.88,0,1,0,0,23.76v-4A7.885,7.885,0,0,1,593.443,126.9Z" transform="translate(-589.448 -115.018)"/><g transform="translate(3.995 3.995)"><path class="f" d="M602.78,136.235a7.885,7.885,0,0,0,7.885,7.885v-3.89a4,4,0,0,1,0-7.99v-3.89A7.885,7.885,0,0,0,602.78,136.235Z" transform="translate(-602.78 -128.35)"/></g><g transform="translate(7.885 7.885)"><path class="g" d="M615.762,145.326a4,4,0,0,0,3.995,3.995v-7.99A4,4,0,0,0,615.762,145.326Z" transform="translate(-615.762 -141.331)"/></g></g><g transform="translate(11.922)"><path class="m" d="M649.229,100.987l1.288-1.031-2.017-.322.154-.123a.579.579,0,0,0,.1-.805l-.006-.009a.579.579,0,0,0-.814-.091l-.2.161.133-2.126-1.288,1.031-.144,2.135-.776.621.133-2.129L644.5,99.329l-.144,2.138-8.745,7-.693-2.13-5.683,7.939h0l8.958-3.848-1.841-1.072,8.776-7.025,2.025.313,1.288-1.031-2.014-.322.773-.618Z" transform="translate(-629.235 -96.64)"/><path class="h" d="M648.745,98.7a.579.579,0,0,0-.814-.091l-.2.161.133-2.126-1.288,1.031-.144,2.135-.776.621.133-2.129L644.5,99.329l-.144,2.138-8.745,7-.693-2.13-5.683,7.939L648.75,98.705Z" transform="translate(-629.235 -96.64)"/><g transform="translate(0 2.065)"><path class="g" d="M649.229,105.815l1.288-1.031-2.017-.322.154-.123a.579.579,0,0,0,.1-.805L629.235,119.1h0l8.958-3.848-1.841-1.072,8.776-7.025,2.025.313,1.288-1.031-2.014-.322.773-.618Z" transform="translate(-629.235 -103.533)"/></g></g></g><g transform="translate(196.462 59.867)"><path class="g" d="M727.912,306.225a2.78,2.78,0,0,0-1.079-1.251c-1.741-1.078-3.383.734-3.385.736h0s-1.643-1.814-3.385-.736a2.781,2.781,0,0,0-1.079,1.251c-.418.952-.7,3.2,4.464,5.765h0C728.613,309.427,728.331,307.177,727.912,306.225Z" transform="translate(-718.779 -304.633)"/><g transform="translate(4.669 0)"><path class="h" d="M737.852,306.226a2.781,2.781,0,0,0-1.079-1.251c-1.741-1.077-3.383.734-3.385.736v6.28C738.553,309.427,738.271,307.177,737.852,306.226Z" transform="translate(-733.388 -304.633)"/></g></g><g transform="translate(72.449)"><path class="s" d="M306.182,89.005l6.065,3.189-1.158-6.753,4.907-4.783-6.781-.985-3.032-6.145-3.033,6.145-6.781.985,4.907,4.783-1.158,6.753Z" transform="translate(-296.368 -73.528)"/><path class="t" d="M303.149,79.672l-6.781.985,4.907,4.783-1.158,6.753,6.065-3.189V73.528Z" transform="translate(-296.368 -73.528)"/></g><g transform="translate(60.632 7.489)"><path class="u" d="M263.455,103.364l2.509,1.319-.479-2.794,2.03-1.979L264.71,99.5l-1.255-2.542L262.2,99.5l-2.806.408,2.03,1.979-.479,2.794Z" transform="translate(-259.394 -96.96)"/><path class="t" d="M262.2,99.5l-2.806.408,2.03,1.979-.479,2.794,2.509-1.319v-6.4Z" transform="translate(-259.394 -96.96)"/></g><g transform="translate(25.025 17.774)"><g transform="translate(1.829 7.951)"><path class="f" d="M183.221,154.013H156.388a2.551,2.551,0,0,0-2.6,3.23l2.468,12.207a4.315,4.315,0,0,0,4.019,3.232h19.053a4.316,4.316,0,0,0,4.019-3.232l2.468-12.207A2.551,2.551,0,0,0,183.221,154.013ZM164.5,168.526a1.392,1.392,0,1,1-2.783,0v-8.118a1.392,1.392,0,0,1,2.783,0Zm6.7,0a1.392,1.392,0,1,1-2.783,0v-8.118a1.392,1.392,0,0,1,2.783,0Zm6.7,0a1.391,1.391,0,1,1-2.783,0v-8.118a1.391,1.391,0,1,1,2.783,0Z" transform="translate(-153.715 -154.013)"/></g><path class="h" d="M182.263,136.292H169.11l4.483-4.482a1.565,1.565,0,1,0-2.214-2.214l-6.7,6.7H149.559a1.566,1.566,0,0,0,0,3.132h32.7a1.566,1.566,0,0,0,0-3.132Z" transform="translate(-147.993 -129.137)"/><g transform="translate(0 5.927)"><g transform="translate(1.831 4.36)"><path class="f" d="M169.808,174.89a1.391,1.391,0,0,1-1.391-1.392V165.38a1.392,1.392,0,0,1,1.391-1.392h0v-2.668H153.731a3.044,3.044,0,0,0,.064.894l2.468,12.207a4.315,4.315,0,0,0,4.019,3.232h9.526V174.89ZM164.5,173.5a1.392,1.392,0,0,1-2.783,0V165.38a1.392,1.392,0,0,1,2.783,0Z" transform="translate(-153.722 -161.321)"/></g><path class="g" d="M164.682,148.908H149.559a1.566,1.566,0,0,0,0,3.132h16.352v-4.36Z" transform="translate(-147.993 -147.68)"/></g></g></g></g><path class="v" d="M3499.267,3435.548h-.542v-.969h.542" transform="translate(-3099.976 -0.141)"/></g></svg>