<svg xmlns="http://www.w3.org/2000/svg" width="62" height="22" viewBox="0 0 62 22"><defs><style>.a{fill:#94dbff;}.b{fill:#c6ffec;}.c,.d{fill:#3b3b3b;}.d{font-size:11px;font-family:OpenSans-ExtraBold, Open Sans;font-weight:800;}</style></defs><g transform="translate(-205 -3484)"><rect class="a" width="62" height="22" rx="8" transform="translate(205 3484)"/><path class="b" d="M0,0H24a8,8,0,0,1,8,8v6a8,8,0,0,1-8,8H0a0,0,0,0,1,0,0V0A0,0,0,0,1,0,0Z" transform="translate(235 3484)"/><path class="c" d="M12.375,2.25A5.586,5.586,0,0,0,6.75,7.763C6.75,11.9,12.375,18,12.375,18S18,11.9,18,7.763A5.586,5.586,0,0,0,12.375,2.25Zm0,7.481a1.969,1.969,0,1,1,2.009-1.969A1.97,1.97,0,0,1,12.375,9.731Z" transform="translate(206.8 3485)"/><text class="d" transform="translate(238 3499)"><tspan x="0" y="0">6km</tspan></text></g></svg>