<svg xmlns="http://www.w3.org/2000/svg" xmlns:xlink="http://www.w3.org/1999/xlink" width="1938" height="571" viewBox="0 0 1938 571"><defs><style>.a{fill:#20222b;}.b,.f,.j{fill:none;}.b,.c{stroke:#fff;}.b{stroke-width:3px;opacity:0.5;}.c,.d,.e,.g{fill:#fff;}.c{stroke-width:2px;opacity:0.1;}.d,.e{font-size:31px;}.d{font-family:ProductSans-Black, Product Sans Black;font-weight:800;}.e,.g{font-family:ProductSans-Regular, Product Sans;}.f{stroke:#707070;}.g{font-size:25px;}.h{fill:#4d4d4d;}.i{stroke:none;}.k{filter:url(#a);}</style><filter id="a" x="0" y="0" width="1938" height="571" filterUnits="userSpaceOnUse"><feOffset dx="-1" dy="-20" input="SourceAlpha"/><feGaussianBlur stdDeviation="3" result="b"/><feFlood flood-opacity="0.161"/><feComposite operator="in" in2="b"/><feComposite in="SourceGraphic"/></filter></defs><g transform="translate(10 -4474)"><g class="k" transform="matrix(1, 0, 0, 1, -10, 4474)"><path class="a" d="M0,0H1920V542H0Z" transform="translate(10 29)"/></g><g transform="translate(-286 4640)"><g class="b" transform="translate(476 1)"><path class="i" d="M65.686,0h311A1.314,1.314,0,0,1,378,1.314v0A65.686,65.686,0,0,1,312.314,67h-311A1.314,1.314,0,0,1,0,65.686v0A65.686,65.686,0,0,1,65.686,0Z"/><path class="j" d="M65.177,1.5h311a.323.323,0,0,1,.323.323v0A63.677,63.677,0,0,1,312.823,65.5h-311a.323.323,0,0,1-.323-.323v0A63.677,63.677,0,0,1,65.177,1.5Z"/></g><path class="c" d="M0,24.27C1.267,23.895,55.289-1.133,107.342.04c43.287.975,95.393,15.5,101.684,37.272,74.074,45.88,170.647,2.308,170.708,2.308l.236-1.112" transform="matrix(0.978, -0.208, 0.208, 0.978, 472.99, 42.984)"/><text class="d" transform="translate(489 45)"><tspan x="0" y="0">QUITANDA DO BAIRRO</tspan></text></g><text class="e" transform="translate(606 4615)"><tspan x="0" y="0">inicio</tspan></text><text class="e" transform="translate(606 4663)"><tspan x="0" y="0">cadastrar meu estabelecimento</tspan></text><text class="e" transform="translate(606 4711)"><tspan x="0" y="0">contato e ajuda</tspan></text><text class="e" transform="translate(606 4759)"><tspan x="0" y="0">blog do Quitanda do bairro</tspan></text><text class="e" transform="translate(1310 4615)"><tspan x="0" y="0">termos de uso</tspan></text><text class="e" transform="translate(1310 4663)"><tspan x="0" y="0">política de privacidade</tspan></text><line class="f" x2="1426" transform="translate(186.5 4848.5)"/><line class="f" x2="1426" transform="translate(186.5 4958.5)"/><text class="g" transform="translate(642 5014)"><tspan x="0" y="0">© 2020 Todos os direitos reservados ao Quitanda do Bairro.</tspan></text><path class="h" d="M53.893,2.25H6.467A6.467,6.467,0,0,0,0,8.717V56.143A6.467,6.467,0,0,0,6.467,62.61H24.959V42.089H16.471V32.43h8.488V25.068c0-8.374,4.985-13,12.62-13a51.422,51.422,0,0,1,7.48.652V20.94H40.846c-4.151,0-5.446,2.576-5.446,5.218V32.43h9.267l-1.482,9.659H35.4V62.61H53.893a6.467,6.467,0,0,0,6.467-6.467V8.717A6.467,6.467,0,0,0,53.893,2.25Z" transform="translate(821.95 4870.75)"/><path class="h" d="M5.425,60.543A7.2,7.2,0,0,1,2.109,58.66,6.668,6.668,0,0,1,.273,55.5C.06,54.657.048,53.864.048,30.474.037,4.195,0,5.639.688,4.159A7.069,7.069,0,0,1,4.134.736C5.662.061,4.17.1,30.65.132l24.4.024L55.8.417a7.183,7.183,0,0,1,4.548,4.548l.261.758.024,24.4c.036,27.1.095,25.071-.77,26.824a7.035,7.035,0,0,1-3,3c-1.729.853.237.793-26.575.782C9.8,60.709,6.029,60.685,5.425,60.543Zm47.206-7.212c.971-.687.995-.758,1.03-5.27.036-4.394.012-4.619-.711-5.317-.651-.64-.959-.675-5.246-.663l-3.908.012-.533.284a2.912,2.912,0,0,0-.876.829l-.355.521-.012,3.92c-.012,2.144.036,4.1.095,4.323a2.212,2.212,0,0,0,1.208,1.492l.592.3,4.109-.036,4.1-.036Zm-19.92-11.5a11.754,11.754,0,0,0,9.072-9.119,14.467,14.467,0,0,0,.13-3.849,11.928,11.928,0,0,0-6.075-8.716,12.708,12.708,0,0,0-3.127-1.161c-.225-.024-.7-.095-1.054-.154a11.7,11.7,0,0,0-10.564,4.524,11.587,11.587,0,0,0,.225,14.389A11.808,11.808,0,0,0,29.134,42,12.36,12.36,0,0,0,32.711,41.831ZM12.093,34.145a18.794,18.794,0,0,1,1.563-12.021A17.422,17.422,0,0,1,17.2,17.257,18.471,18.471,0,0,1,33.315,12,18.761,18.761,0,0,1,48.4,25.737a18.392,18.392,0,0,1,.486,6.632,13.04,13.04,0,0,1-.486,2.558c-.036.059-.024.107.036.118.45.047,5.057.036,5.14-.024.071-.036.095-5.294.083-13.217L53.626,8.648l-.355-.509a2.959,2.959,0,0,0-.888-.782l-.533-.272L30.224,7.12,8.611,7.143l-.486.32a3.115,3.115,0,0,0-.758.77l-.284.45L7.047,21.769c-.012,7.2-.012,13.134.024,13.2a12.744,12.744,0,0,0,2.641.118h2.594Z" transform="translate(930.956 4872.883)"/><g transform="translate(-3067 -20.25)"><path class="h" d="M53.893,2.25H6.467A6.467,6.467,0,0,0,0,8.717V56.143A6.467,6.467,0,0,0,6.467,62.61H24.959c-.667-.2,10.754-.8,10.442,0H53.893a6.467,6.467,0,0,0,6.467-6.467V8.717A6.467,6.467,0,0,0,53.893,2.25Z" transform="translate(4104.95 4891)"/><path class="a" d="M38.648,8.725a4.825,4.825,0,0,0-3.395-3.417c-2.995-.808-15-.808-15-.808s-12.008,0-15,.808A4.825,4.825,0,0,0,1.852,8.725c-.8,3.014-.8,9.3-.8,9.3s0,6.289.8,9.3a4.753,4.753,0,0,0,3.395,3.362c2.995.808,15,.808,15,.808s12.008,0,15-.808a4.753,4.753,0,0,0,3.395-3.362c.8-3.014.8-9.3.8-9.3s0-6.289-.8-9.3ZM16.323,23.737V12.318l10.036,5.71L16.323,23.737Z" transform="translate(4114.59 4905)"/></g></g></svg>