<svg xmlns="http://www.w3.org/2000/svg" width="711.681" height="1034.12" viewBox="0 0 711.681 1034.12"><defs><style>.a{fill:#37a879;}.a,.b{opacity:0.1;}.b{fill:#368064;}</style></defs><g transform="translate(-1510.17 -1353.023)"><path class="a" d="M301.406,30.632c21.322-6.06,15.334-18.684,53.795-15.425,20.6,1.745,25.583,5.537,57.908,14.409,86.261,23.676,85.464,44.348,59.782,90.68-37.845,45.1-12.953,72.632-12.953,72.632s29.671,49.982,38.648,62.759,17.127,30.9,13.478,47-21.175,37.269-24.431,43.829-19.2,32.314-23.7,47.895a18.79,18.79,0,0,0-.285,6.687c.318,3.028.309,3.012,1.555,5.425,22.524,34.28,69.409,5.346,96.061-4.658,55.334-17.047,93.1-35.326,149.786-8.939,29.309,13.642,38.1,31.476,48.19,49.263,9.164,16.146,13.036,35.7,5.545,50.136-7.244,36.334-40.421,40.292-58.589,50.864C687.971,553.8,685.119,570.83,699.95,599.4c13.269,25.562,18.566,63.357,16.662,105.988-3.779,84.623-36.415,187.876-91.615,248-2.995,3.262-35.876,4.371-43.723-8.367C507.264,824.876,267.67,40.22,301.406,30.632Z" transform="translate(2245.09 2483.439) rotate(-164)"/><path class="b" d="M340.1,36.093c19.2-4.6-40.891-19.694-13.8-20.476,19.537-.564,43.8,1.518,76.106,8.617,157.605,34.632-27.669,105.718,67.847,188.088s-72.576,162.249-13.033,196.293c38.9,22.244,153.71-50.8,225.885-31.824S767.87,464.973,745.919,484.5s-106.812,34.5-73.59,98.51c41.737,80.405,1.522,237.91-65.418,317.875-1.5,1.788-35.771,12.446-40.821-1.849C546.574,843.8,531.7,661.85,464.3,496.877,428.6,409.5,424.75,311.105,389.356,235.519,368.23,190.405,392.742,140,370.927,107.68,332.891,51.325,332.581,37.893,340.1,36.093Z" transform="translate(2252.876 2462.955) rotate(-164)"/></g></svg>