<svg xmlns="http://www.w3.org/2000/svg" width="740.885" height="598.113" viewBox="0 0 740.885 598.113"><defs><style>.a{fill:#ececec;opacity:0.66;}.b,.c{fill:#5cc3c2;}.c,.l,.m,.p{opacity:0.3;}.d{fill:#174166;}.e{fill:#310b0b;}.f{fill:#0d2840;}.g{fill:#2d0a0a;}.h{fill:#abd8d7;}.i{fill:#c4ebff;}.j{fill:#a8302d;}.k{fill:#e4f6ff;}.l{fill:#238e71;}.m{fill:#82c2b8;}.n{fill:#9fd2ce;}.o{fill:#c4d9ed;}.p{fill:#585858;}</style></defs><g transform="translate(0 0)"><path class="a" d="M2176.99,4389.119c0,16.871,25.609,22.143,98.816,29.523s100.52,0,194.01,0H2824.1s67.13-26.711,63.264-43.582-37.256-17.925-78.729-23.9-47.448,0-87.164,0H2469.815c-93.49,0-120.8-9.49-194.01,0S2176.99,4372.249,2176.99,4389.119Z" transform="translate(-2146.946 -3823.81)"/><g transform="translate(0 205.161)"><g transform="translate(75.365 126.655)"><path class="b" d="M1946.8,1012.8v26.018a14.568,14.568,0,0,0,14.576,14.577h4.663a14.625,14.625,0,0,0,14.577-14.577V1012.8a14.356,14.356,0,0,0-2.116-7.485v-.039a14.617,14.617,0,0,0-12.461-7.053h-4.663A14.625,14.625,0,0,0,1946.8,1012.8Z" transform="translate(-1946.797 -998.225)"/><path class="c" d="M1946.8,1052.49a14.619,14.619,0,0,0,13.048,8.073h4.663a14.625,14.625,0,0,0,14.577-14.577v-26.018a14.356,14.356,0,0,0-2.116-7.485C1976.694,1014.091,1970.5,1049.787,1946.8,1052.49Z" transform="translate(-1945.269 -1005.391)"/></g><path class="d" d="M1615.986,1336.9h-72.055v-72.722h75.17Z" transform="translate(-1309.531 -1005.237)"/><path class="b" d="M1295.287,921.542l354,8.729V743.6h-232.46a59.056,59.056,0,0,0-52.559,32.126l-15.213,29.692Z" transform="translate(-1216.035 -743.598)"/><g transform="translate(225.511 278.321)"><path class="e" d="M1655.949,1344.65c0,19.743-10.184,41.514-10.184,41.514h-17.238c-15.145,0-27.422-18.586-27.422-41.514s29.515-41.514,44.66-41.514S1655.949,1321.722,1655.949,1344.65Z" transform="translate(-1601.105 -1303.136)"/><ellipse class="f" cx="27.422" cy="41.514" rx="27.422" ry="41.514" transform="translate(17.238)"/><path class="g" d="M20.655,0C32.063,0,41.31,14,41.31,31.27s-9.248,31.27-20.655,31.27S0,48.541,0,31.27,9.248,0,20.655,0Z" transform="translate(23.659 10.244)"/></g><g transform="translate(27.303 278.321)"><path class="e" d="M2054.427,1344.65c0,19.743-10.183,41.514-10.183,41.514h-17.238c-15.145,0-27.422-18.586-27.422-41.514s29.516-41.514,44.66-41.514S2054.427,1321.722,2054.427,1344.65Z" transform="translate(-1999.584 -1303.136)"/><path class="f" d="M2021.334,1344.65c0,22.927-12.277,41.514-27.421,41.514s-27.422-18.586-27.422-41.514,12.277-41.514,27.422-41.514S2021.334,1321.722,2021.334,1344.65Z" transform="translate(-1949.253 -1303.136)"/><path class="g" d="M2022.1,1355c0,17.27-9.247,31.27-20.655,31.27s-20.655-14-20.655-31.27,9.248-31.271,20.655-31.271S2022.1,1337.73,2022.1,1355Z" transform="translate(-1957.131 -1313.486)"/></g><g transform="translate(482.47 278.321)"><path class="e" d="M1139.359,1344.65c0,19.743-10.184,41.514-10.184,41.514h-17.238c-15.144,0-27.421-18.586-27.421-41.514s29.516-41.514,44.659-41.514S1139.359,1321.722,1139.359,1344.65Z" transform="translate(-1084.516 -1303.136)"/><path class="f" d="M1106.266,1344.65c0,22.927-12.277,41.514-27.422,41.514s-27.421-18.586-27.421-41.514,12.277-41.514,27.421-41.514S1106.266,1321.722,1106.266,1344.65Z" transform="translate(-1034.185 -1303.136)"/><path class="g" d="M1107.031,1355c0,17.27-9.247,31.27-20.654,31.27s-20.655-14-20.655-31.27,9.247-31.271,20.655-31.271S1107.031,1337.73,1107.031,1355Z" transform="translate(-1042.063 -1313.486)"/></g><path class="h" d="M1305.269,1216.273a31.356,31.356,0,0,0,31.347,31.426h203.053a62.188,62.188,0,0,1-.9-10.579c0-26.842,16.1-48.628,35.932-48.628,19.867,0,35.971,21.786,35.971,48.628a62.07,62.07,0,0,1-.862,10.579h118.65s4.781-52.977,4.193-79.544c-.47-23.118-.47-68.416.9-79.465,0-1.647-114.418-1.843-143.3-1.959-3.919-.041-6.27-.041-6.505-.041l-.391.275-.431.314c-5.329,3.722-35.187,24.647-53.722,36.911-16.34,10.776-136.949,15.165-184.245,16.5-11.755.312-19,.43-19,.43a85.372,85.372,0,0,0-12.187,17.084c-4.388,8.112-8.306,18.534-8.385,29.937-.039,7.092-.078,15.634-.078,24.02C1305.269,1213.53,1305.269,1214.9,1305.269,1216.273Z" transform="translate(-1305.269 -916.032)"/><path class="i" d="M1541.988,986.444h159.089a9.4,9.4,0,0,0,8.542-5.485L1749,893.343a4.343,4.343,0,0,0-3.958-6.113H1577.214a9.343,9.343,0,0,0-8.542,5.6l-28.212,64.458-7.053,16.105A9.34,9.34,0,0,0,1541.988,986.444Z" transform="translate(-1434.192 -815.786)"/><path class="h" d="M1295.291,1039.736c.04,2.743.156,5.329.314,7.642,1.136,15.243,16.457,27.9,16.457,27.9H1347.8a63.37,63.37,0,0,1,4.193-35.54c6.309-14.184,17.75-23.667,30.838-23.667,13.128,0,24.569,9.483,30.877,23.667a64.177,64.177,0,0,1,4.232,35.54h128.721V743.621H1443.329V809.45s-30.995,72.8-44.944,104.858c-3.448,7.992-5.878,13.44-6.505,14.615-3.1,5.917-75.116,42.358-87.028,53.095C1298.23,987.974,1294.938,1018.93,1295.291,1039.736Z" transform="translate(-1113.397 -743.609)"/><path class="i" d="M1460.111,904.813l-33.887,83.467h58.145s11.928-2,13.457-26.373c1.632-26.023,1.629-70.93,1.629-70.93l-25.521-.123C1464.205,892.323,1462.682,897.666,1460.111,904.813Z" transform="translate(-1131.335 -817.606)"/><path class="h" d="M1606.432,1141.118h188.555l68.847-54.153.391-.275h-190.2l-54.153,43.574Z" transform="translate(-1585.742 -916.032)"/><path class="i" d="M2080.9,1202.229a6.354,6.354,0,0,0,4.036,3.252l26.449,4.9c2.234.431,3.958-3.448,3.37-7.445l-2.586-17.79-.079-.43-.51-3.645c-.47-3.135-1.841-5.524-3.525-6.191l-1.529-.588-13.44,10.854A85.373,85.373,0,0,0,2080.9,1202.229Z" transform="translate(-2072.402 -960.059)"/><path class="j" d="M1728.582,1224.526l17.044-1.686a13.352,13.352,0,0,0,11.834-10.932l3.918-21.551a2.977,2.977,0,0,0,.079-1.018c-12.148,6.973-22.374,13.2-26.253,16.692C1732.382,1208.578,1730.149,1215.631,1728.582,1224.526Z" transform="translate(-1543.749 -967.622)"/><path class="i" d="M1735.067,1220.185l32.327-3.212h.039l17.044-1.686a13.352,13.352,0,0,0,11.834-10.932l3.918-21.551a2.974,2.974,0,0,0,.079-1.018v-.04a7.171,7.171,0,0,0-8.62-7.288l-50.353,10.227a8.673,8.673,0,0,0-6.622,6.191l-5.918,21.865A5.9,5.9,0,0,0,1735.067,1220.185Z" transform="translate(-1582.601 -960.068)"/><path class="h" d="M1441.8,805.416h196.433a113.618,113.618,0,0,1,5.688-26.924c4.389-12.677,11.973-26.816,25.245-34.887H1508.652c-26.165,0-49.352,13.976-58.561,34.887a27.012,27.012,0,0,0-1.138,2.6A164.043,164.043,0,0,0,1441.8,805.416Z" transform="translate(-1308.796 -743.601)"/><path class="k" d="M1728.582,1224.486l17.084-1.686a13.352,13.352,0,0,0,11.834-10.932l3.918-21.551a3.211,3.211,0,0,0,.079-1.058c-12.148,7.014-22.374,13.245-26.253,16.732C1732.421,1208.538,1730.189,1215.59,1728.582,1224.486Z" transform="translate(-1543.788 -967.581)"/><path class="l" d="M1686.625,1343.048c-.039,17.358,14.694,31.426,32.876,31.426h201.524a63.37,63.37,0,0,1,4.193-35.54H1686.665C1686.625,1340.3,1686.625,1341.676,1686.625,1343.048Z" transform="translate(-1686.625 -1042.806)"/><path class="m" d="M1300.359,1363.894a62.07,62.07,0,0,1-.862,10.579h128.721v-35.54H1295.265A62.116,62.116,0,0,1,1300.359,1363.894Z" transform="translate(-994.957 -1042.806)"/><path class="l" d="M1972.344,1199.192h-77.106c-2.463,0-4.347,3.322-3.97,7l2.737,26.8c.4,3.941,2.645,6.849,5.282,6.849h63.525c4.072,0,7.667-4.03,8.851-9.925l4.575-22.782C1977.031,1203.182,1975.076,1199.192,1972.344,1199.192Z" transform="translate(-1839.59 -972.574)"/><path class="k" d="M1608.794,957.291c90.946-4.663,152.465-53.329,171.039-70.061H1645.548a9.344,9.344,0,0,0-8.543,5.6Z" transform="translate(-1502.525 -815.786)"/><rect class="n" width="344.001" height="331.69" transform="translate(396.884 0)"/><path class="o" d="M1528.611,1000.558s-2.942,33.734,13.712,42.972H1511.21Z" transform="translate(-1216.475 -872.743)"/><path class="o" d="M1534.194,1036.7s7.025-5,7.628-9.144v23.593h-9.192Z" transform="translate(-1226.63 -886.314)"/><g transform="translate(315.199 126.655)"><path class="b" d="M1464.634,1012.8v26.018a14.569,14.569,0,0,0,14.577,14.577h4.663a14.624,14.624,0,0,0,14.576-14.577V1012.8a14.352,14.352,0,0,0-2.116-7.485v-.039a14.615,14.615,0,0,0-12.46-7.053h-4.663A14.625,14.625,0,0,0,1464.634,1012.8Z" transform="translate(-1464.634 -998.225)"/><path class="p" d="M1464.634,1052.49a14.619,14.619,0,0,0,13.048,8.073h4.663a14.624,14.624,0,0,0,14.576-14.577v-26.018a14.351,14.351,0,0,0-2.116-7.485C1494.531,1014.091,1488.34,1049.787,1464.634,1052.49Z" transform="translate(-1463.105 -1005.391)"/></g><path class="d" d="M730.7,1347.756h84.619c1.788-7.638,7.17-62.027-40.251-62.028C731.976,1285.726,728.807,1335.35,730.7,1347.756Z" transform="translate(-102.174 -1016.066)"/><g transform="translate(631.817 278.321)"><path class="e" d="M839.11,1344.65c0,19.743-10.183,41.514-10.183,41.514H811.689c-15.145,0-27.422-18.586-27.422-41.514s29.516-41.514,44.66-41.514S839.11,1321.722,839.11,1344.65Z" transform="translate(-784.267 -1303.136)"/><path class="f" d="M806.018,1344.65c0,22.927-12.277,41.514-27.421,41.514s-27.422-18.586-27.422-41.514,12.277-41.514,27.422-41.514S806.018,1321.722,806.018,1344.65Z" transform="translate(-733.937 -1303.136)"/><path class="g" d="M806.783,1355c0,17.27-9.248,31.27-20.655,31.27s-20.655-14-20.655-31.27,9.247-31.271,20.655-31.271S806.783,1337.73,806.783,1355Z" transform="translate(-741.814 -1313.486)"/></g><path class="l" d="M1492.555,840.667h196.433a113.611,113.611,0,0,1,5.688-26.924H1500.844a27.018,27.018,0,0,0-1.137,2.6A164.037,164.037,0,0,0,1492.555,840.667Z" transform="translate(-1359.549 -778.852)"/></g><path class="n" d="M1497.628,331.14a64.255,64.255,0,0,1,64.255,64.255c0,35.487-64.255,114.383-64.255,114.383s-64.255-78.9-64.255-114.383A64.255,64.255,0,0,1,1497.628,331.14Zm0,93.637a30.035,30.035,0,1,0-30.035-30.035A30.035,30.035,0,0,0,1497.628,424.777Z" transform="translate(-1197.32 -331.14)"/></g></svg>