<svg xmlns="http://www.w3.org/2000/svg" xmlns:xlink="http://www.w3.org/1999/xlink" width="1101" height="98" viewBox="0 0 1101 98"><defs><style>.a{fill:#fff;}.b{fill:none;stroke:#00613c;stroke-width:3px;}.c{fill:#00613c;}.d{fill:#b8b8b8;font-size:36px;font-family:Roboto-Light, Roboto;font-weight:300;}.e{filter:url(#a);}</style><filter id="a" x="0" y="0" width="1101" height="98" filterUnits="userSpaceOnUse"><feOffset dx="3" dy="3" input="SourceAlpha"/><feGaussianBlur stdDeviation="3" result="b"/><feFlood flood-opacity="0.161"/><feComposite operator="in" in2="b"/><feComposite in="SourceGraphic"/></filter></defs><g transform="translate(-413 -140)"><g class="e" transform="matrix(1, 0, 0, 1, 413, 140)"><rect class="a" width="1083" height="80" rx="8" transform="translate(6 6)"/></g><line class="b" y2="45" transform="translate(1415.5 163.5)"/><g transform="translate(1444 172.504)"><g transform="translate(-7 -11)"><path class="c" d="M46.447,43.694,32.872,30.118a18.535,18.535,0,1,0-2.753,2.753L43.694,46.447a.974.974,0,0,0,1.377,0l1.377-1.377A.974.974,0,0,0,46.447,43.694ZM18.5,33.1A14.6,14.6,0,1,1,33.1,18.5,14.62,14.62,0,0,1,18.5,33.1Z" transform="translate(0 0)"/></g></g><text class="d" transform="translate(453 199)"><tspan x="0" y="0">Busque o produto ou o estabelecimento desejado...</tspan></text></g></svg>