<svg xmlns="http://www.w3.org/2000/svg" width="60.609" height="60.609" viewBox="0 0 60.609 60.609"><defs><style>.a{fill:#4d4d4d;}</style></defs><path class="a" d="M5.425,60.543A7.2,7.2,0,0,1,2.109,58.66,6.668,6.668,0,0,1,.273,55.5C.06,54.657.048,53.864.048,30.474.037,4.195,0,5.639.688,4.159A7.069,7.069,0,0,1,4.134.736C5.662.061,4.17.1,30.65.132l24.4.024L55.8.417a7.183,7.183,0,0,1,4.548,4.548l.261.758.024,24.4c.036,27.1.095,25.071-.77,26.824a7.035,7.035,0,0,1-3,3c-1.729.853.237.793-26.575.782C9.8,60.709,6.029,60.685,5.425,60.543Zm47.206-7.212c.971-.687.995-.758,1.03-5.27.036-4.394.012-4.619-.711-5.317-.651-.64-.959-.675-5.246-.663l-3.908.012-.533.284a2.912,2.912,0,0,0-.876.829l-.355.521-.012,3.92c-.012,2.144.036,4.1.095,4.323a2.212,2.212,0,0,0,1.208,1.492l.592.3,4.109-.036,4.1-.036Zm-19.92-11.5a11.754,11.754,0,0,0,9.072-9.119,14.467,14.467,0,0,0,.13-3.849,11.928,11.928,0,0,0-6.075-8.716,12.708,12.708,0,0,0-3.127-1.161c-.225-.024-.7-.095-1.054-.154a11.7,11.7,0,0,0-10.564,4.524,11.587,11.587,0,0,0,.225,14.389A11.808,11.808,0,0,0,29.134,42,12.36,12.36,0,0,0,32.711,41.831ZM12.093,34.145a18.794,18.794,0,0,1,1.563-12.021A17.422,17.422,0,0,1,17.2,17.257,18.471,18.471,0,0,1,33.315,12,18.761,18.761,0,0,1,48.4,25.737a18.392,18.392,0,0,1,.486,6.632,13.04,13.04,0,0,1-.486,2.558c-.036.059-.024.107.036.118.45.047,5.057.036,5.14-.024.071-.036.095-5.294.083-13.217L53.626,8.648l-.355-.509a2.959,2.959,0,0,0-.888-.782l-.533-.272L30.224,7.12,8.611,7.143l-.486.32a3.115,3.115,0,0,0-.758.77l-.284.45L7.047,21.769c-.012,7.2-.012,13.134.024,13.2a12.744,12.744,0,0,0,2.641.118h2.594Z" transform="translate(-0.044 -0.117)"/></svg>