<svg xmlns="http://www.w3.org/2000/svg" width="60.36" height="60.359" viewBox="0 0 60.36 60.359"><defs><style>.a{fill:#4d4d4d;}</style></defs><path class="a" d="M53.893,2.25H6.467A6.467,6.467,0,0,0,0,8.717V56.143A6.467,6.467,0,0,0,6.467,62.61H24.959V42.089H16.471V32.43h8.488V25.068c0-8.374,4.985-13,12.62-13a51.422,51.422,0,0,1,7.48.652V20.94H40.846c-4.151,0-5.446,2.576-5.446,5.218V32.43h9.267l-1.482,9.659H35.4V62.61H53.893a6.467,6.467,0,0,0,6.467-6.467V8.717A6.467,6.467,0,0,0,53.893,2.25Z" transform="translate(0 -2.25)"/></svg>