<svg xmlns="http://www.w3.org/2000/svg" width="741.47" height="717.848" viewBox="0 0 741.47 717.848"><defs><style>.a{fill:#d7eae3;}.b,.k{fill:#fff;}.c{fill:#eaf6f1;}.d{fill:#54bea5;}.aa,.e{fill:#3d9983;}.ad,.f,.g,.h,.p,.q,.r,.s,.u,.v{fill:none;}.f{stroke:#adc3db;stroke-width:2.513px;}.f,.g,.h,.p,.r,.s,.u,.v{stroke-linecap:round;}.f,.g,.h,.p,.q,.r,.s,.u,.v{stroke-linejoin:round;}.g,.p,.q,.u{stroke:#fff;}.g{stroke-width:2.608px;}.h,.s,.v{stroke:#1d1e54;}.h,.p{stroke-width:2.545px;}.i{fill:#e8f4ff;}.j{fill:#1d1e54;}.k{opacity:0.84;}.l{fill:#36a778;}.m{fill:#368064;}.n{fill:#e6f3f7;}.o{fill:#9fcfd6;}.q,.r{stroke-width:3px;}.r{stroke:#b28b67;}.s{stroke-width:2.254px;}.t{fill:#268a47;}.u{stroke-width:4.584px;}.v{stroke-width:2.163px;}.w{fill:#b28b67;}.aa,.ab,.ac,.w,.x,.y,.z{fill-rule:evenodd;}.x{fill:#191847;}.y{fill:#997659;}.z{fill:#276153;}.ab{fill:#abd8d7;}.ac{fill:#dde3e9;}.ad{stroke:#264563;}</style></defs><g transform="translate(-1116 -98.468)"><path class="a" d="M1023.864,341.633s-134.891,150.634-67.31,284.093,117.233,60.81,194.513,29.611c83.129-33.559,179.942-69.369,108.16-157.117s111.03-166.721-12.488-276.642S1023.864,341.633,1023.864,341.633Z" transform="translate(236.352 21.099)"/><g transform="translate(1198.68 439.99)"><path class="b" d="M1330.242,542.762c-7.7,6.344-13.847,17.774-11.373,20.779s11.844,1.658,19.547-4.686,10.821-15.281,8.346-18.286S1337.945,536.418,1330.242,542.762Z" transform="translate(-1318.313 -493.013)"/><path class="b" d="M1283.819,496.529c8.463-5.286,11.731-10.1,9.668-13.4s-8.8-3.623-17.264,1.665-11.131,8.456-9.069,11.758S1275.357,501.815,1283.819,496.529Z" transform="translate(-1224.075 -480.722)"/><path class="b" d="M1320.128,504.934c-7.7,6.343-11.1,13.684-8.625,16.689s6.922,5.255,14.625-1.089,10.234-12.516,7.76-15.521S1327.831,498.59,1320.128,504.934Z" transform="translate(-1299.543 -485.137)"/><path class="b" d="M1290.157,530.921c7.991-5.975,12.265-12.43,10.53-14.75s-5.373-3.843-13.364,2.132-11.293,11.376-9.558,13.7S1282.166,536.9,1290.157,530.921Z" transform="translate(-1239.565 -487.87)"/><path class="b" d="M1256.313,499.269c5.2-8.515,6.776-16.095,4.3-17.605s-4.177,1.072-9.38,9.587-8.5,12.109-6.031,13.619S1251.111,507.783,1256.313,499.269Z" transform="translate(-1174.364 -480.837)"/></g><path class="a" d="M738.868,726.291s30.877-171.659,101.321-155.615-41.839,88.35-65.817,137.746S738.009,730.706,738.868,726.291Z" transform="translate(820.33 -59.758)"/><path class="a" d="M695.244,752.562s83.037-111.743,127.7-75.257S761.653,725.6,726.97,752.4,693.063,755.413,695.244,752.562Z" transform="translate(884.619 -81.238)"/><path class="a" d="M638.579,911.232c-50.507-14.451-169.588-62.141-99.813-103.315s334.805-53.189,334.805-53.189,95.994-9.743,218.526,19.723c99.511,23.93,95.637,62.453,81.769,88.78" transform="translate(676.337 -99.045)"/><path class="c" d="M1061.924,893.2c-13.868,26.326-49.022,19.256-106.1,25.2s-194.865,27.923-223.5,18.137S577.145,955.648,526.637,941.2" transform="translate(788.279 -129.01)"/><path class="d" d="M1330.036,722.928s-84.957-8.106-90.212-132.9C1239.824,590.033,1358.2,624.888,1330.036,722.928Z" transform="translate(-44.717 -64.127)"/><path class="e" d="M1228.945,628.617s174.6-8.052,182.2,136.225c0,0-117.487,28.416-182.2-136.225" transform="translate(-112.945 -72.367)"/><line class="f" x1="129.738" y1="93.197" transform="translate(1141.93 577.028)"/><line class="f" x1="29.195" y2="0.978" transform="translate(1144.114 600.101)"/><line class="f" x1="41.118" y2="7.016" transform="translate(1163.025 620.585)"/><line class="f" x2="4.398" y2="31.855" transform="translate(1168.911 568.246)"/><line class="f" x2="3.83" y2="42.178" transform="translate(1200.313 578.408)"/><line class="f" x2="3.83" y2="42.178" transform="translate(1233.032 600.958)"/><path class="g" d="M1366.749,750.8" transform="translate(-176.857 -98.534)"/><path class="g" d="M933.069,576.1" transform="translate(597.686 -61.146)"/><line class="f" x1="41.118" y2="7.016" transform="translate(1193.831 645.94)"/><path class="e" d="M1263.33,708.106s24.38-68.774,9.538-86.334c-9.858-11.665-30.766,2.611-25.739-23.282,6.939-35.745-22.3-44.636-41.468-46.826s-10.426-45.975-38.419-38.632-7.35,46.242-2.675,55.361-19.183,13.444-8.7,46.875c8.973,28.622,24.781,13.13,25.451,38.115s-11.02,29.159,15.158,44.236C1221.716,712.157,1263.33,708.106,1263.33,708.106Z" transform="translate(80.351 -47.47)"/><line class="f" x2="70.652" y2="157.699" transform="translate(1250.76 487.053)"/><path class="h" d="M1180.946,383.082s83.721,106.812,91.926,201.62" transform="translate(63.057 -19.835)"/><path class="e" d="M687.494,241.282s41.062,28.139,40.8,106.85l28.034-36.384c-10.613-13.947-43.616-61.874-37.421-111.24,0,0,41.063,28.139,40.8,106.85L781.4,279.214c-8.3-14.185-31.526-59.039-21.166-101.221,0,0,32.51,28.323,25.278,95.885L805.4,248.069c-4-11.606-17.471-56.575-.121-92.348,0,0,22.824,30.447,3.929,87.4l18.68-24.242c19.739-48.6,52.139-58.03,52.139-58.03-6.069,31.082-31.28,55.082-46.427,67.038l-10.352,13.435c45.333-25.511,76.363-12.923,76.363-12.923-27.148,23.3-67.858,24.372-84.66,23.691l-17.813,23.117c59.264-20.079,92.42,2.426,92.42,2.426-35.327,19.235-80.209,11.2-99.228,6.41L770.642,309.6c72-17.068,107.677,13.738,107.677,13.738-43.093,17.344-93.682,1.328-113.384-6.332l-25.71,33.367c44.816-10.625,72.755.259,89.581,7.758-22.76,12.834-46.208,15.557-70.382,7.639a222.345,222.345,0,0,1-24.905-7.99l-10.057,13.052-14.241,2.062,15.694-20.369C714.3,338.575,681.3,290.648,687.494,241.282Z" transform="translate(824.768 28.824)"/><path class="d" d="M849.545,283.217l7.243-45.357a217.321,217.321,0,0,1-44.534-27.068l-5.413-37.387c15.827,10.691,34.483,28.707,50.822,58.982l5.6-35.085c-12.592-7.6-47.429-31.083-62.527-66.05L799.006,119.3c9.685,3.261,43.319,18.06,65.321,71.355l5.138-32.174c-9.058-8.284-42.379-41.352-44.23-81.067,0,0,34.6,15.841,45.214,74.905l4.827-30.221c-5.882-52.127,18.075-75.89,18.075-75.89,9.519,30.2-1.16,63.334-8.754,81.074l-2.675,16.748c27.634-44.071,60.909-47.839,60.909-47.839-12.713,33.443-47.967,53.833-63.052,61.262l-4.6,28.819c42.468-45.955,82.346-42.028,82.346-42.028-21.842,33.776-65.108,48.166-84.105,53.042l-5.086,31.849c55.091-49.393,101.155-39.379,101.155-39.379-29.569,35.826-81.661,45.927-102.629,48.612l-6.642,41.6c55.091-49.393,101.155-39.379,101.155-39.379C931.8,276.408,879.707,286.51,858.74,289.195l-5.815,36.414-10.39,1.5,6.136-38.423a218.778,218.778,0,0,1-27.281-14.8l-5.13-35.43C827.395,249.128,838.957,263.6,849.545,283.217Z" transform="translate(666.64 52.263)"/><path class="i" d="M914.844,744.142l219.219-45.016c14.737-3.027,25.367-16.548,25.367-32.268V251c0-14.815-11.042-27.057-25.172-27.908l-232.476-14c-15.327-.923-28.241,11.838-28.241,27.908V708.568C873.542,731.39,893.448,748.536,914.844,744.142Z" transform="translate(418.112 17.413)"/><path class="j" d="M884.534,751.37l219.219-45.625c14.737-3.067,25.368-16.771,25.368-32.7V251.564c0-15.015-11.042-27.422-25.172-28.285L871.472,209.086c-15.327-.936-28.24,12-28.24,28.285V715.315C843.232,738.446,863.138,755.823,884.534,751.37Z" transform="translate(472.245 17.413)"/><path class="b" d="M898.8,744.235l194.13-40.4c12.626-2.628,21.732-14.369,21.732-28.018V303.963c0-12.8-9.416-23.384-21.465-24.12L887.417,267.28c-13.071-.8-24.082,10.231-24.082,24.119V713.273C863.335,733.137,880.429,748.06,898.8,744.235Z" transform="translate(470.899 4.957)"/><path class="b" d="M898.8,711.236l194.13-40.4c12.626-2.628,21.732-14.368,21.732-28.017V270.964c0-12.8-9.416-23.384-21.465-24.119L886.159,234.818c-13.07-.8-22.824,9.693-22.824,23.582V680.273C863.335,700.137,880.429,715.061,898.8,711.236Z" transform="translate(470.899 11.905)"/><path class="c" d="M893.12,617.557l204.237-22.878V406l-204.237-2.48Z" transform="translate(464.797 -24.21)"/><g transform="translate(1184.556 231.56)"><g transform="translate(83.587 24.792)"><path class="a" d="M1264.423,250.453a16.064,16.064,0,0,1-5.043,7.225,2.747,2.747,0,0,1-3.766,0,2.681,2.681,0,0,1,0-3.766,11.093,11.093,0,0,0,3.673-4.875,2.733,2.733,0,0,1,3.276-1.86,2.686,2.686,0,0,1,1.86,3.277Z" transform="translate(-1254.839 -247.08)"/></g><g transform="translate(57.295 34.624)"><path class="a" d="M1298.933,262.255a4.775,4.775,0,0,1-2.253,4.174,2.682,2.682,0,0,1-3.644-.956,2.725,2.725,0,0,1,.956-3.644,2.057,2.057,0,0,0,.179-.127l-.539.417a2.64,2.64,0,0,0,.31-.311l-.417.539a2.553,2.553,0,0,0,.283-.471l-.269.637a2.513,2.513,0,0,0,.15-.527c-.031.236-.064.472-.1.708a2.543,2.543,0,0,0,.012-.439,2.68,2.68,0,0,1,2.664-2.664,2.725,2.725,0,0,1,2.664,2.664Z" transform="translate(-1292.694 -259.589)"/></g><g transform="translate(30.763 40.269)"><path class="a" d="M1330.154,272.025c-.421.149.095-.028.089-.053,0,0-.391.2-.436.222-.115.064-.226.131-.336.2-.055.035-.109.071-.162.109q-.238.169.148-.12a4.452,4.452,0,0,0-.57.538c-.06.064-.382.505-.167.183s-.115.2-.126.215a2.664,2.664,0,1,1-4.6-2.689,9.044,9.044,0,0,1,4.744-3.744,2.679,2.679,0,0,1,3.277,1.86,2.731,2.731,0,0,1-1.86,3.277Z" transform="translate(-1323.624 -266.772)"/></g><g transform="translate(9.359 46.881)"><path class="a" d="M1359.124,278.508a21.613,21.613,0,0,1-4.32,8.724,2.679,2.679,0,0,1-3.766,0,2.727,2.727,0,0,1,0-3.766,15.706,15.706,0,0,0,2.95-6.374c.764-3.34,5.9-1.926,5.137,1.416Z" transform="translate(-1350.281 -275.184)"/></g><g transform="translate(0 69.944)"><path class="a" d="M1371.47,308.529l-.967,1.392a2.852,2.852,0,0,1-1.592,1.224,2.724,2.724,0,0,1-2.052-.269,2.687,2.687,0,0,1-1.225-1.592,2.641,2.641,0,0,1,.269-2.052l.967-1.392a2.85,2.85,0,0,1,1.592-1.224,2.717,2.717,0,0,1,2.052.269,2.687,2.687,0,0,1,1.225,1.592,2.641,2.641,0,0,1-.269,2.052Z" transform="translate(-1365.546 -304.527)"/></g><g transform="translate(57.065 0)"><path class="a" d="M1299.3,218.918q-.238,1.174-.475,2.349a2.68,2.68,0,0,1-3.276,1.86,2.73,2.73,0,0,1-1.86-3.277q.238-1.174.475-2.349a2.681,2.681,0,0,1,3.277-1.86,2.73,2.73,0,0,1,1.86,3.277Z" transform="translate(-1293.625 -215.537)"/></g><g transform="translate(25.105 76.38)"><path class="a" d="M1338.27,317.257a15.573,15.573,0,0,1-4.721,3.762,2.664,2.664,0,0,1-2.689-4.6c.36-.186.713-.382,1.056-.6.19-.119.373-.248.561-.373l.219-.157c-.146.116-.149.118-.007,0a13.652,13.652,0,0,0,1.814-1.8,2.674,2.674,0,0,1,3.766,0,2.733,2.733,0,0,1,0,3.766Z" transform="translate(-1329.572 -312.715)"/></g><g transform="translate(49.199 58.434)"><path class="a" d="M1302.934,294.4a4.89,4.89,0,0,1,2.308-4.151,2.684,2.684,0,0,1,3.644.955,2.724,2.724,0,0,1-.956,3.645,2.05,2.05,0,0,0-.18.125l.539-.417a2.539,2.539,0,0,0-.383.391l.417-.539a2.663,2.663,0,0,0-.271.477l.269-.636a2.555,2.555,0,0,0-.141.529c.031-.236.063-.472.095-.708a3.082,3.082,0,0,0-.015.329,2.663,2.663,0,1,1-5.327,0Z" transform="translate(-1302.934 -289.883)"/></g><g transform="translate(69.764 49.7)"><path class="a" d="M1275.819,281.889l2.351-2.351a2.664,2.664,0,0,1,3.766,3.767l-2.35,2.35a2.664,2.664,0,0,1-3.767-3.766Z" transform="translate(-1275.059 -278.771)"/></g><g transform="translate(75.127 11.157)"><path class="a" d="M1276.065,231.66a8.269,8.269,0,0,1-1.171,6.282,2.664,2.664,0,0,1-4.6-2.689,5.809,5.809,0,0,0,.435-.711c-.159.32.133-.425.16-.537a4.015,4.015,0,0,0,.084-.409q-.053.3-.031.016c0-.116-.09-.955-.013-.536a2.664,2.664,0,0,1,5.136-1.416Z" transform="translate(-1269.911 -229.733)"/></g><g transform="translate(32.342 19.609)"><path class="a" d="M1329.062,244.518a33.878,33.878,0,0,1-6.175,8.459c-2.424,2.431-6.191-1.335-3.767-3.767a29.164,29.164,0,0,0,5.343-7.381c1.564-3.052,6.162-.36,4.6,2.689Z" transform="translate(-1318.338 -240.487)"/></g></g><path class="k" d="M825.309,574.761a1.224,1.224,0,1,1-1.1-1.334A1.224,1.224,0,0,1,825.309,574.761Z" transform="translate(792.057 -60.572)"/><path class="k" d="M806.752,576.517a1.224,1.224,0,1,1-1.1-1.334A1.224,1.224,0,0,1,806.752,576.517Z" transform="translate(825.2 -60.948)"/><path class="k" d="M814.148,565.529a1.224,1.224,0,1,1-1.1-1.334A1.224,1.224,0,0,1,814.148,565.529Z" transform="translate(811.992 -58.596)"/><path class="k" d="M795.591,567.286a1.224,1.224,0,1,1-1.1-1.334A1.224,1.224,0,0,1,795.591,567.286Z" transform="translate(845.134 -58.972)"/><path class="k" d="M823.541,556.083a1.224,1.224,0,1,1-1.1-1.334A1.224,1.224,0,0,1,823.541,556.083Z" transform="translate(795.215 -56.574)"/><path class="k" d="M804.984,557.84a1.224,1.224,0,1,1-1.1-1.334A1.224,1.224,0,0,1,804.984,557.84Z" transform="translate(828.357 -56.95)"/><path class="k" d="M812.38,546.852a1.224,1.224,0,1,1-1.1-1.334A1.224,1.224,0,0,1,812.38,546.852Z" transform="translate(815.149 -54.599)"/><path class="k" d="M803.216,539.162a1.224,1.224,0,1,1-1.1-1.334A1.224,1.224,0,0,1,803.216,539.162Z" transform="translate(831.515 -52.953)"/><path class="k" d="M810.612,528.174a1.224,1.224,0,1,1-1.1-1.334A1.224,1.224,0,0,1,810.612,528.174Z" transform="translate(818.307 -50.601)"/><path class="k" d="M801.448,520.484a1.224,1.224,0,1,1-1.1-1.334A1.224,1.224,0,0,1,801.448,520.484Z" transform="translate(834.673 -48.956)"/><path class="k" d="M808.844,509.5a1.224,1.224,0,1,1-1.1-1.334A1.224,1.224,0,0,1,808.844,509.5Z" transform="translate(821.465 -46.604)"/><path class="k" d="M799.68,501.807a1.224,1.224,0,1,1-1.1-1.334A1.224,1.224,0,0,1,799.68,501.807Z" transform="translate(837.83 -44.958)"/><path class="k" d="M767.577,580.226a1.224,1.224,0,1,1-1.1-1.334A1.224,1.224,0,0,1,767.577,580.226Z" transform="translate(895.167 -61.742)"/><path class="k" d="M756.415,570.994a1.224,1.224,0,1,1-1.1-1.334A1.224,1.224,0,0,1,756.415,570.994Z" transform="translate(915.101 -59.766)"/><path class="k" d="M746.958,582.177a1.224,1.224,0,1,1-1.1-1.334A1.224,1.224,0,0,1,746.958,582.177Z" transform="translate(931.992 -62.159)"/><path class="k" d="M815.585,580.71a1.224,1.224,0,1,1-1.1-1.334A1.224,1.224,0,0,1,815.585,580.71Z" transform="translate(809.425 -61.845)"/><path class="k" d="M769.014,595.407a1.224,1.224,0,1,1-1.1-1.334A1.224,1.224,0,0,1,769.014,595.407Z" transform="translate(892.6 -64.991)"/><path class="k" d="M776.409,584.419a1.224,1.224,0,1,1-1.1-1.334A1.223,1.223,0,0,1,776.409,584.419Z" transform="translate(879.392 -62.639)"/><path class="k" d="M757.852,586.175a1.224,1.224,0,1,1-1.1-1.334A1.224,1.224,0,0,1,757.852,586.175Z" transform="translate(912.534 -63.015)"/><path class="k" d="M748.395,597.358a1.224,1.224,0,1,1-1.1-1.334A1.224,1.224,0,0,1,748.395,597.358Z" transform="translate(929.424 -65.408)"/><g transform="translate(1363.01 279.481)"><path class="a" d="M997.064,322.6s3.771,49.413-22,48.53c-19.016-.651-22.021-27.341-22.29-41.287-.233,14.067-3.173,40.761-22.175,40.11-16.84-.576-21.123-21.573-22.071-36.057-1.041,14.49-5.455,34.411-21.9,33.848-25.769-.883-22.137-49.587-22.137-49.587C879.631,264.725,990.923,259.05,997.064,322.6Z" transform="translate(-775.473 -276.508)"/><path class="a" d="M1033.634,320.021c32.778-33.839,63.381-44.784,88.472,2.234,0,0,3.771,49.412-22,48.53-18.008-.617-21.658-24.586-22.222-38.969-.527,14.48-4.111,38.409-22.114,37.792C1030,368.726,1033.634,320.021,1033.634,320.021Z" transform="translate(-1033.458 -279.552)"/></g><path class="a" d="M1124.456,308,1095.5,281.174V256.716s.691-22.809,23.144-22.162,37.708,10.382,37.708,10.382l8,49.355-11.819,27.059Z" transform="translate(238.73 11.956)"/><path class="l" d="M1035.347,246.392l56.837,36.925L858.316,277.74a5.254,5.254,0,0,1-3.1-1.1L812.594,243.52a5.254,5.254,0,0,1,3.5-9.4l216.666,11.427A5.239,5.239,0,0,1,1035.347,246.392Z" transform="translate(534.868 12.046)"/><path class="m" d="M857.44,296.426s4.012,49.413-23.408,48.53-23.556-49.588-23.556-49.588Z" transform="translate(769.612 -1.063)"/><path class="n" d="M917.638,294.929s4.012,49.413-23.408,48.53-23.556-49.587-23.556-49.587Z" transform="translate(662.099 -0.743)"/><path class="m" d="M977.167,292.119s4.012,49.412-23.408,48.53S930.2,291.062,930.2,291.062Z" transform="translate(555.782 -0.141)"/><path class="n" d="M1037.418,292.119s4.012,49.412-23.408,48.53-23.556-49.587-23.556-49.587Z" transform="translate(448.175 -0.141)"/><path class="m" d="M1097.44,290.622s4.012,49.413-23.408,48.53-23.556-49.587-23.556-49.587Z" transform="translate(340.977 0.179)"/><path class="b" d="M1088.524,280.428l-49.7-41.328-48.293-2.662,50.819,42.813Z" transform="translate(397.069 11.549)"/><path class="b" d="M970.031,284l-50.554-38.617-48.729-2.57,52.319,40.13Z" transform="translate(609.707 10.184)"/><g transform="translate(1120.185 299.447)"><g transform="translate(215.871 -144.031)"><g transform="translate(25.948 227.729)"><path class="o" d="M80.151,238.976l-8.973-9.67-8.973,9.67-8.973-9.67-8.973,9.67-8.973-9.67-8.607,9.275-.732-.788,9.339-10.064,8.973,9.669,8.973-9.669,8.973,9.669,8.973-9.669,8.973,9.669,8.973-9.669,9.339,10.064-.732.788-8.607-9.275Z" transform="translate(-25.948 -227.729)"/></g><g transform="translate(25.948 245.537)"><path class="o" d="M80.151,256.784l-8.973-9.67-8.973,9.67-8.973-9.67-8.973,9.67-8.973-9.67-8.607,9.275-.732-.789,9.339-10.064,8.973,9.67,8.973-9.67,8.973,9.67,8.973-9.67,8.973,9.67,8.973-9.67L98.463,255.6l-.732.789-8.607-9.275Z" transform="translate(-25.948 -245.537)"/></g></g><path class="e" d="M1144.282,328.088c26.428-35.867,80.793-34.712,105.372,2.446a121.293,121.293,0,0,1,7.8,13.726l32.116,65.78s-119.722-37.413-139.406-35C1113.2,379.573,1126.945,351.617,1144.282,328.088Z" transform="translate(-1031.228 -301.91)"/><path class="e" d="M1338.013,362.563s81.838-13.028,76.326,35.9c-9.166,81.381-80.962,59.18-116.274,135.394,0,0-74.839-180.224-.493-188.964C1336.447,340.325,1338.013,362.563,1338.013,362.563Z" transform="translate(-1264.657 -310.977)"/><path class="p" d="M1405.207,367.542s-56.9,68.74-39.947,163.236" transform="translate(-1331.852 -315.957)"/><path class="p" d="M1291.982,384.821s40.931-14.747,59.86,21.08" transform="translate(-1223.37 -319.011)"/><path class="p" d="M1305.119,420.951s48.935,7.223,67.407,39.276" transform="translate(-1254.38 -327.387)"/><path class="p" d="M1351.2,462.64s33.207,13.63,41.388,35.746" transform="translate(-1310.659 -336.31)"/><path class="p" d="M1435.678,384.519s-40.815-20.711-60.866,23.571" transform="translate(-1372.309 -318.555)"/><path class="p" d="M1435.129,418.766s-26.842,3.939-33.972,23.438" transform="translate(-1392.466 -326.92)"/><path class="p" d="M1434.355,461.469s-21.358,4.809-17.492,28.1" transform="translate(-1403.669 -336.059)"/><path class="p" d="M1142.289,349.594s55.358-51.8,125.7,55.621" transform="translate(-1021.863 -309.443)"/><path class="p" d="M1234.535,348.318s25.057,12.716,31.92,41.277" transform="translate(-1092.831 -311.842)"/><path class="p" d="M1182.173,356.7s25.485,17.067,32.1,47.606" transform="translate(-999.49 -313.637)"/><path class="p" d="M1202.073,355.937c-.285-.741-17.986-12.712-31.9-12.97" transform="translate(-977.859 -310.697)"/><path class="p" d="M1266.063,317.433s-30.81-4.882-41.528,13.708" transform="translate(-1084.579 -305.108)"/></g><path class="e" d="M1097.263,675.838v60.176L893.12,772.06V702.225Z" transform="translate(464.891 -82.491)"/><line class="q" x1="169.198" y2="21.847" transform="translate(1378.523 627.601)"/><line class="r" x2="9.525" y2="10.841" transform="translate(1557.5 439.5)"/><ellipse class="a" cx="65.266" cy="75.631" rx="65.266" ry="75.631" transform="translate(1492.651 581.463) rotate(-156.131)"/><g transform="translate(1391.16 409.186)"><path class="s" d="M981.755,502.256l66.285-.135-15.287,51.158-72.9,6.31-5.074-12.565" transform="translate(-925.507 -454.498)"/><ellipse class="s" cx="8.051" cy="8.984" rx="8.051" ry="8.984" transform="translate(101.849 139.399) rotate(-177.26)"/><path class="s" d="M1035.561,609.455c.189,5.813,4.57,10.306,9.785,10.033s9.289-5.206,9.1-11.019-4.57-10.306-9.785-10.033S1035.372,603.642,1035.561,609.455Z" transform="translate(-995.409 -475.109)"/><line class="s" y1="34.508" x2="10.27" transform="translate(123.543 9.738)"/><ellipse class="t" cx="24.503" cy="27.34" rx="24.503" ry="27.34" transform="translate(48.949 83.023) rotate(-177.26)"/><path class="u" d="M1086.1,504.5l-9.4,15.416L1064.344,496.1" transform="translate(-1049.682 -453.21)"/><line class="s" x1="50.486" y2="2.635" transform="translate(64.988 62.765)"/><line class="s" x1="60.695" y2="3.168" transform="translate(51.117 82.32)"/><line class="s" x1="10.939" y2="39.222" transform="translate(90.087 54.189)"/><line class="s" x1="10.939" y2="39.222" transform="translate(69.334 55.273)"/></g><path class="v" d="M1227.832,747.633s-42.238-1.444-42.238-46.323L1183.1,235.392c0-16.07,12.914-28.831,28.24-27.908" transform="translate(106.402 17.756)"/><g transform="translate(1559 304)"><g transform="translate(-13)"><g transform="translate(111.424)"><g transform="translate(0 38)"><path class="w" d="M33.738,34.49c4.608-5.409,7.727-12.037,7.205-19.465C39.442-6.375,9.652-1.667,3.857,9.134s-5.106,38.2,2.383,40.13c2.987.77,9.349-1.116,15.825-5.019L18,73H42Z" transform="translate(0 0)"/></g><path class="x" d="M-54.685,27.685c3.163-.519,11.68-.875,13.251-.875,1,0,.1.077,4.315.36,12.454,2.257,17.346,17.66,13.835,28.967-1.38,4.443-5.489,15.448-10.892,16.66a6.365,6.365,0,0,0,.811,3.926c1.264,2.008,4.228,4.168,4.73,5.769.387,1.226-2.46,1.146-2.538,1.731-.113.838-1.9.6-3-.577a18.56,18.56,0,0,1-1.382-3.692C-36.1,82.314-39.947,66.929-41,66.166c-2.806-2.033-1.1-4.7,0-6.463,2.111-3.373,2.833-7.707-1.073-10.055-3.37-2.026-6.913,2.785-6.98,2.779-.926-.073-8.929-4.6-14.443-11.2-5.439.323-6.264-3.264-4.966-6.2S-59.056,28.4-54.685,27.685Z" transform="translate(72.221 7)"/></g><g transform="translate(57 194)"><path class="w" d="M199.153,0,162.522,126.227,145.293,221H128L145.262,0Z" transform="translate(-89.152)"/><path class="y" d="M150.259,0c-2.556,65.574-1.548,101.34-.976,107.3s3.82,45.858,25.95,115.7H157.247c-29.308-67-39.539-106.9-42.9-115.7S101.058,62.734,86.564,0Z" transform="translate(-23.796)"/><path class="z" d="M202.216,0q-14.292,65.153-49.439,208H127.484c-1.868-97.746,6.079-162.079,19.841-208Z" transform="translate(-91.429)"/><path class="aa" d="M155.027,0c-2.5,65.574,3.984,130.177,24.08,209.021H152.12C122.758,143.018,101.714,78.734,87.331,0Z" transform="translate(-28.435)"/><g transform="translate(94 218)"><path class="x" d="M60,37l-.992-16q-8.716,2.549-21.833-2-14.1,9.991-35.512,13.644h0A2,2,0,0,0,.076,35.161L1.448,40H58.016Z" transform="translate(0 -19)"/></g><g transform="translate(0 218)"><path class="x" d="M60,37l-.992-16q-8.716,2.549-21.833-2-14.1,9.991-35.512,13.644h0A2,2,0,0,0,.076,35.161L1.448,40H58.016Z" transform="translate(0 -19)"/></g></g><g transform="translate(11.759 89)"><path class="w" d="M59.666,77.617,23.431,61.7A85.831,85.831,0,0,0,5.043,47.282c-1.767-.563-4.787-.733-1.565,3.973s6.4,9.8,5.112,11.45-5.017-.171-6.49,2.511Q.625,67.9,20.959,71.633L48.1,92.439ZM206.157,82l-20.492,4.066q30.912,57.608,33.155,61.064c3.365,5.185.225,14.687-.934,19.691,7.275,1.694,4.406-9.256,13.612-6.97,8.4,2.087,15.528,7.442,23.363.22.963-.888,1.669-3.664-1.616-5.087-8.183-3.547-20.272-10.188-22.232-12.766Q227,136.944,206.157,82Z" transform="translate(-2 0)"/><path class="ab" d="M0,98.8l8.485,2.231C28.84,84.472,40.322,41.416,53.333,36.722c12.3-4.438,28.6,2.324,47.89,11.217l7.293-13.1c-16.386-21.165-53.5-41.082-69.953-33C12.254,14.751,1.767,68.176,0,98.8Z" transform="translate(136.583 103.757) rotate(175)"/><path class="ac" d="M169.25,114H92.739c-3.5,0-2.838-5.048-2.332-7.6,5.832-29.4,28.6-61.092,28.6-102.943L141.078,0C159.332,29.358,165.645,65.5,169.25,114Z" transform="translate(-3.584 0)"/><path class="ab" d="M90.633,84.233q23.4,42.2,39.331,60.767L146,141.859Q130.505,45.757,56.253,0H47.515Q17.8,101.305,31.129,135H100C98.912,118.563,95.418,101.181,90.633,84.233Z" transform="translate(82.664 0)"/></g></g></g><g transform="translate(572.052 -1908.285) rotate(-9)"><line class="ad" y1="10" transform="translate(605.5 2454.5)"/><line class="ad" y1="10" transform="translate(593.965 2459.964) rotate(-45)"/><line class="ad" y1="10" transform="translate(598.5 2471.5) rotate(90)"/></g></g></svg>