<svg xmlns="http://www.w3.org/2000/svg" width="385.459" height="138.335" viewBox="0 0 385.459 138.335"><defs><style>.a,.e{fill:none;}.a,.b{stroke:#fff;}.a{stroke-width:3px;opacity:0.5;}.b,.c{fill:#fff;}.b{stroke-width:2px;opacity:0.1;}.c{font-size:31px;font-family:ProductSans-Black, Product Sans Black;font-weight:800;}.d{stroke:none;}</style></defs><g transform="translate(-472.504 37.199)"><g class="a" transform="translate(476 1)"><path class="d" d="M65.686,0h311A1.314,1.314,0,0,1,378,1.314v0A65.686,65.686,0,0,1,312.314,67h-311A1.314,1.314,0,0,1,0,65.686v0A65.686,65.686,0,0,1,65.686,0Z"/><path class="e" d="M65.177,1.5h311a.323.323,0,0,1,.323.323v0A63.677,63.677,0,0,1,312.823,65.5h-311a.323.323,0,0,1-.323-.323v0A63.677,63.677,0,0,1,65.177,1.5Z"/></g><path class="b" d="M0,24.27C1.267,23.895,55.289-1.133,107.342.04c43.287.975,95.393,15.5,101.684,37.272,74.074,45.88,170.647,2.308,170.708,2.308l.236-1.112" transform="matrix(0.978, -0.208, 0.208, 0.978, 472.99, 42.984)"/><text class="c" transform="translate(489 45)"><tspan x="0" y="0">QUITANDA DO BAIRRO</tspan></text></g></svg>