<svg xmlns="http://www.w3.org/2000/svg" width="73" height="22" viewBox="0 0 73 22"><defs><style>.a{fill:#94dbff;}.b{fill:#c6ffec;}.c,.d{fill:#3b3b3b;}.d{font-size:11px;font-family:OpenSans-ExtraBold, Open Sans;font-weight:800;}</style></defs><g transform="translate(-205 -3484)"><rect class="a" width="73" height="22" rx="8" transform="translate(205 3484)"/><path class="b" d="M0,0H35a8,8,0,0,1,8,8v6a8,8,0,0,1-8,8H0a0,0,0,0,1,0,0V0A0,0,0,0,1,0,0Z" transform="translate(235 3484)"/><path class="c" d="M19.5,11H19V7.622a1.5,1.5,0,0,0-.441-1.059L15.437,3.441A1.5,1.5,0,0,0,14.378,3H13V1.5A1.5,1.5,0,0,0,11.5,0h-8A1.5,1.5,0,0,0,2,1.5V3H.25A.251.251,0,0,0,0,3.25v.5A.251.251,0,0,0,.25,4h8.5A.251.251,0,0,1,9,4.25v.5A.251.251,0,0,1,8.75,5H1.25A.251.251,0,0,0,1,5.25v.5A.251.251,0,0,0,1.25,6h6.5A.251.251,0,0,1,8,6.25v.5A.251.251,0,0,1,7.75,7H.25A.251.251,0,0,0,0,7.25v.5A.251.251,0,0,0,.25,8h6.5A.251.251,0,0,1,7,8.25v.5A.251.251,0,0,1,6.75,9H2v4a3,3,0,1,0,6,0h4a3,3,0,1,0,6,0h1.5a.5.5,0,0,0,.5-.5v-1A.5.5,0,0,0,19.5,11ZM5,14.5A1.5,1.5,0,1,1,6.5,13,1.5,1.5,0,0,1,5,14.5Zm10,0A1.5,1.5,0,1,1,16.5,13,1.5,1.5,0,0,1,15,14.5ZM17.5,8H13V4.5h1.378L17.5,7.622Z" transform="translate(210.8 3487)"/><text class="d" transform="translate(237 3499)"><tspan x="0" y="0">R$4,99</tspan></text></g></svg>