<svg xmlns="http://www.w3.org/2000/svg" width="627.347" height="542.117" viewBox="0 0 627.347 542.117"><defs><style>.a{fill:#ececec;opacity:0.66;}.b{fill:#3d9983;}.c{fill:#338972;}.d{fill:#45af7e;}.e{fill:#3e9e6e;}.f{fill:#58c48e;}.g{fill:#abd8d7;}.h{fill:#8abfbc;}.i{fill:#6ea09c;}.j{fill:#8fc6c3;}.k{fill:#c7f2ef;}.l{fill:#75afab;}.m,.q{fill:#fffed4;}.n{fill:#5cc3c2;}.o{fill:#a6f7f3;}.p,.s{fill:#fff;}.q,.t,.v,.z{mix-blend-mode:multiply;isolation:isolate;}.r{fill:#f2f1df;}.s{opacity:0.48;}.t{fill:#c1c1c1;}.u,.v{fill:#bbeae7;}.w{fill:#999594;}.x{fill:#a8a5a5;}.y{fill:#d77071;}.z{fill:#848484;opacity:0.67;}.aa{fill:#ea8b8f;}.ab{fill:#77aaa6;}.ac{fill:#2ecc7d;}.ad{fill:#2bb26b;}</style></defs><path class="a" d="M2176.99,4394.659c0,19.086,21.735,25.051,83.868,33.4s85.313,0,164.661,0h300.687s56.975-30.22,53.694-49.307-31.62-20.28-66.819-27.04-40.271,0-73.978,0H2425.519c-79.348,0-102.529-10.736-164.661,0S2176.99,4375.572,2176.99,4394.659Z" transform="translate(-2152.689 -3889.654)"/><g transform="translate(36.103 320.526)"><path class="b" d="M45.832,286.044A96.746,96.746,0,0,1,58.2,300.271a28.25,28.25,0,0,1-.527-10.135c.139-1.09.427-2.37,1.718-2.55a2.348,2.348,0,0,1,2.388,1.66,6.845,6.845,0,0,1,.334,1.6q.115.887.175,1.779a27.909,27.909,0,0,1,.016,3.522,30.463,30.463,0,0,1-.513,4.08,18.255,18.255,0,0,1-1.065,3.689q.685,1.022,1.352,2.055a30.5,30.5,0,0,1,.242-3.113,29.244,29.244,0,0,1,.995-4.814,30.856,30.856,0,0,1,1.805-4.663,9.5,9.5,0,0,1,2.255-3.273,3.19,3.19,0,0,1,3.718-.5,4.207,4.207,0,0,1,1.851,3.91,13.972,13.972,0,0,1-1.139,4.425,19.008,19.008,0,0,1-1.973,3.661,20.145,20.145,0,0,1-3.139,3.6,15.693,15.693,0,0,1-3.127,2.257c0,.116,0,.233,0,.349a.749.749,0,0,1-.1.373c.157.254.317.509.474.763q2.706,4.417,5.092,9.018a22.7,22.7,0,0,1,2.395-9.676,20.986,20.986,0,0,1,1.062-1.871,10.326,10.326,0,0,1,1.271-1.7,3.469,3.469,0,0,1,3.839-1,3.151,3.151,0,0,1,1.45,3.609,12.3,12.3,0,0,1-.761,2.2q-.382.945-.8,1.876a37.145,37.145,0,0,1-1.83,3.6,24.9,24.9,0,0,1-2.58,3.665,14.546,14.546,0,0,1-2.385,2.275c0,.034.008.068.014.1a.576.576,0,0,1-.015.208q2.179,4.438,4.084,9c.032-.311.07-.621.111-.923a21.891,21.891,0,0,1,1.01-4.174,27.328,27.328,0,0,1,1.649-3.882,6.338,6.338,0,0,1,2.646-2.892,3.62,3.62,0,0,1,3.585.11,3.512,3.512,0,0,1,1.247,3.6A11.774,11.774,0,0,1,83.19,326a27.124,27.124,0,0,1-2.444,3.285,25.9,25.9,0,0,1-3.288,3.147c-.385.31-.778.629-1.195.9,0,.063.006.125.006.189a.733.733,0,0,1-.05.273q.279.708.552,1.42,1.422,3.721,2.671,7.5l.033-.023c.063-.467.163-.93.262-1.389.156-.721.345-1.436.561-2.142a28.363,28.363,0,0,1,1.629-4.119,26.951,26.951,0,0,1,2.207-3.725c.445-.626.909-1.239,1.4-1.828a13.984,13.984,0,0,1,1.475-1.588,3.371,3.371,0,0,1,2-.93,2.142,2.142,0,0,1,1.944.944c.7,1.083.22,2.468-.249,3.535a28.789,28.789,0,0,1-7.653,10.28c-.7.6-1.424,1.191-2.188,1.724-.021.089-.038.179-.062.268a.728.728,0,0,1-.864.509q.81,2.521,1.546,5.062c.066-.14.13-.282.2-.421q.753-1.552,1.642-3.035c.606-1.007,1.261-1.984,1.953-2.935a8.158,8.158,0,0,1,2.087-2.295,2,2,0,0,1,2.79.507,3.583,3.583,0,0,1-.017,3.28,19.585,19.585,0,0,1-3.348,5.9,7.928,7.928,0,0,1-4.2,2.961q.808,3.024,1.52,6.075a23.153,23.153,0,0,1,.912-2.24,20.912,20.912,0,0,1,1.406-2.544,7.558,7.558,0,0,1,1.9-2.3,1.908,1.908,0,0,1,2.658.388,2.521,2.521,0,0,1,.088,2.207,12.549,12.549,0,0,1-1.235,2.366,23.021,23.021,0,0,1-1.643,2.306,22.5,22.5,0,0,1-3.305,3.279c.113.525.229,1.05.339,1.576.094.45.183.9.274,1.35.064-.149.13-.3.2-.445a16.144,16.144,0,0,1,.787-1.473,16.712,16.712,0,0,1,2.129-2.8,17.261,17.261,0,0,1,2.66-2.3,8.6,8.6,0,0,1,3.168-1.585,2.618,2.618,0,0,1,1.855.244,2.173,2.173,0,0,1,.995,1.407,4.92,4.92,0,0,1-.647,3.137,11.533,11.533,0,0,1-10.36,6.257.671.671,0,0,1-.262.242,254.363,254.363,0,0,1,3.7,28.811,317.623,317.623,0,0,1,.758,33.153c-.045,1.369-.146,2.735-.245,4.1-.034.475-.74.529-.759.03-.2-5.5-.172-11-.281-16.505-.108-5.465-.325-10.929-.68-16.384A278.968,278.968,0,0,0,85.3,373.2a21.6,21.6,0,0,1-2.946-1.3,35.377,35.377,0,0,1-3.307-1.9,39.081,39.081,0,0,1-6.077-4.861,5.167,5.167,0,0,1-1.192-1.442,1.335,1.335,0,0,1,.394-1.754,3.207,3.207,0,0,1,1.9-.185,14.488,14.488,0,0,1,1.944.27,13.657,13.657,0,0,1,8.209,5.282q-.346-1.747-.715-3.489a.775.775,0,0,1-.868-.316.757.757,0,0,1-.065-.133c-.5-.113-.988-.258-1.46-.414a17.38,17.38,0,0,1-2.84-1.217,17.061,17.061,0,0,1-4.692-3.688,3.394,3.394,0,0,1-1.053-2.81,2.186,2.186,0,0,1,2.2-1.589c2.026-.05,3.842,1.381,5.1,2.826a34.216,34.216,0,0,1,2.08,2.776q.4.561.821,1.1-.835-3.606-1.8-7.18a.7.7,0,0,1-.493-.755.587.587,0,0,1-.171-.13l-.068-.079a24.8,24.8,0,0,1-14.719-6.455c-1.007-.911-2.3-2.014-2.33-3.487a2.194,2.194,0,0,1,.93-1.907,2.876,2.876,0,0,1,2.024-.29,15.015,15.015,0,0,1,4.247,1.387,21.76,21.76,0,0,1,3.853,2.422,40.041,40.041,0,0,1,5.68,5.566q-1.429-4.9-3.127-9.717a.807.807,0,0,1-.257-.18,14.557,14.557,0,0,1-3.885-.372,24.1,24.1,0,0,1-3.924-1.219,22.517,22.517,0,0,1-3.55-1.8c-.592-.372-1.166-.772-1.724-1.193a5.043,5.043,0,0,1-1.369-1.386,2.236,2.236,0,0,1,.836-3.249,6,6,0,0,1,3.443-.177,15.037,15.037,0,0,1,6.3,2.533,16.26,16.26,0,0,1,2.182,1.822q-1.756-4.491-3.766-8.877a.415.415,0,0,1-.2.232,11.552,11.552,0,0,1-3.762,1.092,16.215,16.215,0,0,1-3.806.068,16.885,16.885,0,0,1-7.278-2.385c-1-.618-2.2-1.417-2.479-2.651a2.868,2.868,0,0,1,1.968-3.206,8.893,8.893,0,0,1,4.1-.186,19.919,19.919,0,0,1,3.948.831,20.867,20.867,0,0,1,6.016,3.057c-.138-.284-.274-.572-.414-.856a.528.528,0,0,1-.232-.17.62.62,0,0,1-.112-.526q-1.527-3.053-3.188-6.037a.826.826,0,0,1-.4-.16.433.433,0,0,1-.364.219,19.432,19.432,0,0,1-4.2-.554,29.9,29.9,0,0,1-4.029-1.126,17.726,17.726,0,0,1-7.01-4.253c-.94-.993-1.743-2.381-1.2-3.768a3.446,3.446,0,0,1,3.123-1.84,12.474,12.474,0,0,1,8.149,2.806A18.114,18.114,0,0,1,61.2,307.5q-2.192-3.442-4.575-6.753c-2.828-3.919-5.9-7.633-9.007-11.332q-1.166-1.39-2.365-2.753C44.9,286.257,45.425,285.664,45.832,286.044Z" transform="translate(-45.133 -285.922)"/><path class="c" d="M52.169,304.656a5.972,5.972,0,0,1,1.524.123c.471.072.941.164,1.4.278a16.893,16.893,0,0,1,2.708.931,16.3,16.3,0,0,1,2.511,1.376c.391.262.774.541,1.143.834a3.813,3.813,0,0,1,1.071,1.026.211.211,0,0,1-.277.294,5.792,5.792,0,0,1-1.12-.837c-.359-.272-.734-.527-1.116-.767a17.467,17.467,0,0,0-2.5-1.294,16.936,16.936,0,0,0-2.636-.841c-.45-.106-.9-.2-1.36-.262s-.956-.075-1.416-.188A.343.343,0,0,1,52.169,304.656Z" transform="translate(-44.187 -283.283)"/><path class="c" d="M57.7,290.069c.059-.149.257-.138.359-.057a.944.944,0,0,1,.251.556c.054.207.1.415.141.624q.133.642.225,1.29a18.952,18.952,0,0,1,.186,2.555,15.67,15.67,0,0,1-.762,5.125.205.205,0,0,1-.4-.094,24.8,24.8,0,0,0,.557-5.057,19.391,19.391,0,0,0-.183-2.506q-.091-.644-.228-1.281C57.774,290.871,57.565,290.417,57.7,290.069Z" transform="translate(-43.368 -285.354)"/><path class="c" d="M63.279,302.132q.4-.647.751-1.317a26.245,26.245,0,0,0,1.317-2.9,31.667,31.667,0,0,0,1.586-6.118c.034-.205.381-.177.371.035a17.275,17.275,0,0,1-.273,2.471,24.75,24.75,0,0,1-.616,2.451,25.122,25.122,0,0,1-1.961,4.689c-.225.414-.462.824-.711,1.224a3.529,3.529,0,0,1-.861,1.1.251.251,0,0,1-.373-.267A5.3,5.3,0,0,1,63.279,302.132Z" transform="translate(-42.685 -285.113)"/><path class="c" d="M67.6,314.959q.188-.623.405-1.236.414-1.172.924-2.306a28.217,28.217,0,0,1,2.476-4.393,20.212,20.212,0,0,1,1.786-2.239c.183-.2.45.075.3.28a35.451,35.451,0,0,0-3.388,5.34,27.86,27.86,0,0,0-1.239,2.855q-.276.75-.509,1.515c-.078.254-.147.512-.221.768a1.476,1.476,0,0,1-.308.669.244.244,0,0,1-.406-.095A2.137,2.137,0,0,1,67.6,314.959Z" transform="translate(-41.996 -283.272)"/><path class="c" d="M56.583,317.543c.262-.35.931-.389,1.33-.447a10.985,10.985,0,0,1,1.369-.111,13.869,13.869,0,0,1,2.847.256,25.272,25.272,0,0,1,5.835,2.007c.265.122.1.589-.186.488a36.865,36.865,0,0,0-5.723-1.743,13.64,13.64,0,0,0-2.742-.233,10.983,10.983,0,0,0-1.368.114,2.547,2.547,0,0,1-1.3.088A.272.272,0,0,1,56.583,317.543Z" transform="translate(-43.529 -281.543)"/><path class="c" d="M73.156,325.065q.313-.567.641-1.126.644-1.094,1.342-2.155t1.436-2.06c.245-.334.5-.662.755-.986a4.148,4.148,0,0,1,.88-.933h0a.177.177,0,0,1,.244.229,4.647,4.647,0,0,1-.663,1c-.253.34-.5.683-.753,1.027q-.745,1.029-1.432,2.1-.673,1.044-1.29,2.124-.308.541-.6,1.089c-.178.332-.308.776-.673.936a.23.23,0,0,1-.285-.151C72.677,325.763,72.975,325.394,73.156,325.065Z" transform="translate(-41.241 -281.43)"/><path class="c" d="M64.912,327.825a8.323,8.323,0,0,1,2.19.418,15.582,15.582,0,0,1,2.143.794,12.356,12.356,0,0,1,3.73,2.5c.165.168-.045.5-.254.351a21.6,21.6,0,0,0-3.706-2.224,15.441,15.441,0,0,0-2.022-.735c-.7-.2-1.435-.29-2.137-.491C64.533,328.345,64.547,327.824,64.912,327.825Z" transform="translate(-42.385 -280.015)"/><path class="c" d="M76.918,334.517q.289-.57.6-1.124a26.087,26.087,0,0,1,1.457-2.275A23.313,23.313,0,0,1,82.5,327.13c.178-.158.439.078.273.259a36.07,36.07,0,0,0-3.321,4.1c-.487.717-.94,1.457-1.365,2.214q-.311.556-.6,1.127a3.2,3.2,0,0,1-.663,1.117c-.149.121-.371-.032-.377-.2A2.76,2.76,0,0,1,76.918,334.517Z" transform="translate(-40.719 -280.12)"/><path class="c" d="M78.259,342.906q.265-.382.541-.753.58-.782,1.215-1.521a22.815,22.815,0,0,1,2.751-2.685c.194-.162.485.092.293.277a36.018,36.018,0,0,0-2.59,2.769q-.6.705-1.144,1.45c-.192.261-.378.525-.56.793s-.3.515-.591.643a.218.218,0,0,1-.281-.2A1.375,1.375,0,0,1,78.259,342.906Z" transform="translate(-40.515 -278.595)"/><path class="c" d="M65.5,336.386a3.31,3.31,0,0,1,1.157.349c.394.17.779.361,1.158.56a25.856,25.856,0,0,1,6.254,4.608.245.245,0,0,1-.337.356A31.218,31.218,0,0,0,69.7,339.2c-.695-.444-1.406-.864-2.132-1.252q-.567-.3-1.141-.591a4.145,4.145,0,0,1-1.058-.635A.2.2,0,0,1,65.5,336.386Z" transform="translate(-42.288 -278.808)"/><path class="c" d="M79.986,350.066c.266-.365.543-.721.835-1.066s.576-.664.887-.972a4.038,4.038,0,0,1,1.023-.858c.164-.076.4.075.283.267a6.211,6.211,0,0,1-.864.954c-.3.319-.6.641-.881.978s-.537.664-.787,1.01c-.132.184-.26.37-.391.555a.923.923,0,0,1-.446.386.167.167,0,0,1-.212-.15C79.377,350.782,79.774,350.357,79.986,350.066Z" transform="translate(-40.298 -277.29)"/><path class="c" d="M71.726,348.077a.908.908,0,0,1,.613.027,5.877,5.877,0,0,1,.671.23,8.292,8.292,0,0,1,1.24.6,7.911,7.911,0,0,1,2.083,1.78c.168.2-.09.5-.289.306a10.059,10.059,0,0,0-2.115-1.583,9.09,9.09,0,0,0-1.173-.553c-.364-.139-.891-.2-1.141-.513C71.526,348.261,71.622,348.122,71.726,348.077Z" transform="translate(-41.405 -277.166)"/><path class="c" d="M81.1,357.655a5.544,5.544,0,0,1,1.288-1.561,16.406,16.406,0,0,1,1.557-1.325A14.582,14.582,0,0,1,87.5,352.8c.229-.087.405.284.18.395a20.294,20.294,0,0,0-3.372,2.083,17.256,17.256,0,0,0-1.49,1.293,14.273,14.273,0,0,1-1.414,1.379C81.219,358.087,81.014,357.839,81.1,357.655Z" transform="translate(-40.066 -276.496)"/><path class="c" d="M73.893,356.52a1.524,1.524,0,0,1,.8.016,6.985,6.985,0,0,1,.8.2,9.1,9.1,0,0,1,1.6.658,8.359,8.359,0,0,1,2.6,2.158c.17.21-.185.5-.367.3a9.179,9.179,0,0,0-2.508-1.945,8.292,8.292,0,0,0-1.455-.6c-.25-.076-.5-.143-.755-.2a2.094,2.094,0,0,1-.754-.224A.2.2,0,0,1,73.893,356.52Z" transform="translate(-41.097 -275.976)"/></g><g transform="translate(0 354.863)"><path class="b" d="M13.938,324.909a86.872,86.872,0,0,1,16.094,5.28,25.4,25.4,0,0,1-5.076-7.577c-.394-.9-.761-2.024.152-2.758a2.11,2.11,0,0,1,2.607.18,6.137,6.137,0,0,1,.993,1.077q.5.63.955,1.292a25.286,25.286,0,0,1,1.634,2.71,27.36,27.36,0,0,1,1.483,3.385,16.4,16.4,0,0,1,.879,3.335q1,.474,1.989.963a27.789,27.789,0,0,1-1.247-2.512,26.28,26.28,0,0,1-1.449-4.173,27.5,27.5,0,0,1-.755-4.429,8.536,8.536,0,0,1,.23-3.564,2.87,2.87,0,0,1,2.637-2.1,3.777,3.777,0,0,1,3.229,2.164,12.566,12.566,0,0,1,1.16,3.938,17.035,17.035,0,0,1,.164,3.733,18.1,18.1,0,0,1-.764,4.222,14.133,14.133,0,0,1-1.373,3.182c.054.09.108.179.161.269a.672.672,0,0,1,.1.332c.24.124.479.246.718.371q4.121,2.163,8.083,4.612a20.416,20.416,0,0,1-2.609-8.568,18.518,18.518,0,0,1-.042-1.933,9.3,9.3,0,0,1,.2-1.9,3.116,3.116,0,0,1,2.5-2.54,2.83,2.83,0,0,1,2.781,2.115,11.1,11.1,0,0,1,.429,2.05q.14.905.249,1.815a33.686,33.686,0,0,1,.246,3.619,22.442,22.442,0,0,1-.3,4.016,13.123,13.123,0,0,1-.792,2.854l.058.074a.5.5,0,0,1,.084.167q3.724,2.42,7.3,5.065c-.119-.256-.233-.511-.34-.763a19.722,19.722,0,0,1-1.143-3.685,24.488,24.488,0,0,1-.516-3.754,5.694,5.694,0,0,1,.709-3.45,3.255,3.255,0,0,1,2.817-1.568,3.154,3.154,0,0,1,2.621,2.207,10.535,10.535,0,0,1,.382,3.862,24.309,24.309,0,0,1-.371,3.66,23.261,23.261,0,0,1-1.088,3.943c-.153.416-.31.843-.505,1.247.031.048.063.095.092.144a.656.656,0,0,1,.087.233c.361.28.721.559,1.081.842q2.81,2.216,5.517,4.558l.015-.033c-.165-.389-.3-.792-.437-1.191q-.317-.943-.553-1.911a25.438,25.438,0,0,1-.64-3.93,24.19,24.19,0,0,1-.014-3.89c.055-.688.131-1.375.241-2.057a12.6,12.6,0,0,1,.407-1.9A3.018,3.018,0,0,1,66.1,336.6a1.925,1.925,0,0,1,1.935-.169c1.036.516,1.306,1.8,1.436,2.842a25.911,25.911,0,0,1-1.168,11.457c-.264.78-.55,1.575-.895,2.338.025.079.054.156.076.235a.655.655,0,0,1-.432.791q1.785,1.571,3.526,3.194c-.015-.138-.03-.277-.042-.415q-.135-1.545-.131-3.1c0-1.057.058-2.112.154-3.165a7.329,7.329,0,0,1,.555-2.73,1.794,1.794,0,0,1,2.385-.895,3.221,3.221,0,0,1,1.5,2.539,17.589,17.589,0,0,1,.133,6.091,7.126,7.126,0,0,1-1.879,4.222q2.016,1.961,3.969,3.987a20.848,20.848,0,0,1-.327-2.147,18.645,18.645,0,0,1-.088-2.611,6.791,6.791,0,0,1,.405-2.647,1.715,1.715,0,0,1,2.231-.925,2.263,2.263,0,0,1,1.084,1.661,11.288,11.288,0,0,1,.137,2.395,20.746,20.746,0,0,1-.2,2.536,20.326,20.326,0,0,1-1.041,4.053c.33.353.661.7.987,1.059.28.3.556.609.833.915-.018-.145-.035-.289-.05-.435a14.6,14.6,0,0,1-.071-1.5,14.915,14.915,0,0,1,.351-3.141,15.512,15.512,0,0,1,.993-3,7.692,7.692,0,0,1,1.715-2.681,2.353,2.353,0,0,1,1.543-.667,1.953,1.953,0,0,1,1.416.629,4.415,4.415,0,0,1,.946,2.717,10.364,10.364,0,0,1-5.11,9.6.6.6,0,0,1-.091.307A228.332,228.332,0,0,1,99,390.465a284.867,284.867,0,0,1,15.856,25.228c.6,1.077,1.148,2.178,1.7,3.278.192.382-.326.751-.571.373-2.687-4.152-5.2-8.41-7.82-12.6q-3.9-6.252-8.072-12.328a250.153,250.153,0,0,0-15.564-20.437,19.474,19.474,0,0,1-2.871.355,32.048,32.048,0,0,1-3.424.061,35.1,35.1,0,0,1-6.928-.952,4.63,4.63,0,0,1-1.584-.564,1.2,1.2,0,0,1-.5-1.533,2.882,2.882,0,0,1,1.377-1.015,12.911,12.911,0,0,1,1.624-.687,12.271,12.271,0,0,1,8.767.293q-1.071-1.189-2.16-2.363a.7.7,0,0,1-.815.156.632.632,0,0,1-.112-.073c-.436.141-.882.256-1.318.353a15.532,15.532,0,0,1-2.751.37,15.321,15.321,0,0,1-5.319-.685,3.045,3.045,0,0,1-2.106-1.683,1.963,1.963,0,0,1,.966-2.24c1.54-.972,3.6-.7,5.241-.171a30.7,30.7,0,0,1,2.883,1.183c.377.165.758.325,1.143.474q-2.307-2.4-4.7-4.711a.625.625,0,0,1-.728-.356.5.5,0,0,1-.192-.022l-.09-.03a22.281,22.281,0,0,1-14.328,1.8c-1.2-.238-2.7-.493-3.4-1.617a1.968,1.968,0,0,1-.162-1.9,2.588,2.588,0,0,1,1.427-1.156,13.576,13.576,0,0,1,3.916-.887,19.6,19.6,0,0,1,4.089.095,36.181,36.181,0,0,1,6.946,1.677q-3.361-3.12-6.889-6.055a.734.734,0,0,1-.281-.021,13.1,13.1,0,0,1-3.168,1.5,21.681,21.681,0,0,1-3.59.867,20.219,20.219,0,0,1-3.57.243c-.628-.015-1.255-.059-1.879-.127a4.515,4.515,0,0,1-1.694-.439,2.009,2.009,0,0,1-.852-2.892,5.393,5.393,0,0,1,2.574-1.723,13.513,13.513,0,0,1,6.029-.948,14.7,14.7,0,0,1,2.523.4q-3.423-2.656-6.994-5.113a.372.372,0,0,1-.044.268,10.358,10.358,0,0,1-2.4,2.575,14.571,14.571,0,0,1-2.9,1.805,15.168,15.168,0,0,1-6.714,1.514,4.315,4.315,0,0,1-3.134-.9,2.577,2.577,0,0,1,.041-3.381,8,8,0,0,1,3.077-2.032,17.993,17.993,0,0,1,3.428-1.177,18.75,18.75,0,0,1,6.051-.412c-.238-.156-.475-.315-.714-.47a.477.477,0,0,1-.257-.024.561.561,0,0,1-.329-.355q-2.584-1.652-5.242-3.189a.716.716,0,0,1-.382.06.391.391,0,0,1-.18.338,17.424,17.424,0,0,1-3.494,1.5,26.8,26.8,0,0,1-3.627.988,15.916,15.916,0,0,1-7.367-.052,3.3,3.3,0,0,1-2.66-2.354,3.1,3.1,0,0,1,1.562-2.859,11.207,11.207,0,0,1,7.578-1.588,16.464,16.464,0,0,1,1.753.283q-3.276-1.645-6.64-3.1c-3.987-1.721-8.069-3.171-12.169-4.595q-1.54-.534-3.093-1.034A.381.381,0,0,1,13.938,324.909Z" transform="translate(-13.491 -316.016)"/><path class="c" d="M27.4,335.447a5.346,5.346,0,0,1,1.233-.607c.4-.161.8-.307,1.212-.432a15.18,15.18,0,0,1,2.518-.528,14.552,14.552,0,0,1,2.571-.1c.423.022.847.062,1.266.117a3.384,3.384,0,0,1,1.3.3.189.189,0,0,1-.078.354,5.18,5.18,0,0,1-1.249-.129c-.4-.044-.809-.068-1.215-.078a15.447,15.447,0,0,0-2.525.154,15.062,15.062,0,0,0-2.421.565q-.594.187-1.171.423c-.394.162-.772.383-1.179.508A.308.308,0,0,1,27.4,335.447Z" transform="translate(-11.548 -313.514)"/><path class="c" d="M24.958,321.437c-.024-.143.135-.224.25-.209a.847.847,0,0,1,.451.313c.136.135.267.275.4.416q.4.433.768.892a17.122,17.122,0,0,1,1.32,1.885,14.1,14.1,0,0,1,1.773,4.3.185.185,0,0,1-.351.113,22.326,22.326,0,0,0-1.9-4.159,16.987,16.987,0,0,0-1.3-1.848q-.366-.455-.766-.884C25.383,322.023,25.012,321.769,24.958,321.437Z" transform="translate(-11.875 -315.281)"/><path class="c" d="M34.4,328.423q.007-.681-.027-1.362a23.753,23.753,0,0,0-.318-2.841,28.357,28.357,0,0,0-1.6-5.449c-.068-.176.212-.314.3-.145a15.326,15.326,0,0,1,.928,2.033,22.468,22.468,0,0,1,.655,2.174,22.657,22.657,0,0,1,.646,4.522c.017.423.024.848.016,1.272a3.2,3.2,0,0,1-.155,1.249.226.226,0,0,1-.411-.035A4.709,4.709,0,0,1,34.4,328.423Z" transform="translate(-10.819 -315.659)"/><path class="c" d="M43.562,336.4q-.14-.568-.256-1.14-.221-1.1-.349-2.206a25.351,25.351,0,0,1-.114-4.53,18.29,18.29,0,0,1,.347-2.55c.049-.235.381-.148.357.08a31.824,31.824,0,0,0-.153,5.681,24.932,24.932,0,0,0,.358,2.773c.089.47.191.939.306,1.4.057.233.122.463.183.695a1.314,1.314,0,0,1,.07.658.219.219,0,0,1-.356.114A1.93,1.93,0,0,1,43.562,336.4Z" transform="translate(-9.361 -314.631)"/><path class="c" d="M36.723,343.567c.041-.391.539-.729.82-.958a9.843,9.843,0,0,1,1.005-.715,12.382,12.382,0,0,1,2.314-1.115,22.7,22.7,0,0,1,5.425-1.139c.262-.029.347.41.082.462a33.279,33.279,0,0,0-5.219,1.29,12.353,12.353,0,0,0-2.221,1.084,9.729,9.729,0,0,0-1,.719c-.283.232-.581.612-.958.664C36.8,343.882,36.708,343.705,36.723,343.567Z" transform="translate(-10.216 -312.686)"/><path class="c" d="M52.561,341.619q-.019-.582-.024-1.164-.007-1.142.042-2.282t.16-2.25q.053-.556.129-1.109a3.736,3.736,0,0,1,.249-1.125h0a.158.158,0,0,1,.293.065,4.1,4.1,0,0,1-.051,1.075c-.039.379-.074.76-.107,1.14q-.1,1.135-.139,2.276-.038,1.116-.017,2.233c.008.373.019.745.038,1.117.015.339.119.741-.089,1.033a.205.205,0,0,1-.289.015C52.513,342.378,52.574,341.957,52.561,341.619Z" transform="translate(-7.987 -313.535)"/><path class="c" d="M47.912,347.386a7.409,7.409,0,0,1,1.881-.687,13.943,13.943,0,0,1,2.018-.374,11.11,11.11,0,0,1,4.03.21c.2.052.2.407-.035.388a19.456,19.456,0,0,0-3.883-.009,13.95,13.95,0,0,0-1.9.365c-.637.167-1.241.437-1.875.606C47.858,347.962,47.63,347.553,47.912,347.386Z" transform="translate(-8.657 -311.756)"/><path class="c" d="M59.807,347.215c-.025-.382-.043-.764-.051-1.147a23.9,23.9,0,0,1,.076-2.426,21,21,0,0,1,.879-4.7.169.169,0,0,1,.33.074,32.358,32.358,0,0,0-.677,4.689c-.046.778-.054,1.557-.032,2.337.01.382.029.764.057,1.146a2.893,2.893,0,0,1,0,1.167.223.223,0,0,1-.382.021A2.5,2.5,0,0,1,59.807,347.215Z" transform="translate(-6.97 -312.801)"/><path class="c" d="M64.85,353c.019-.276.043-.553.071-.83q.089-.869.237-1.733a20.334,20.334,0,0,1,.885-3.339c.075-.213.418-.152.354.079a32.217,32.217,0,0,0-.722,3.329q-.135.82-.215,1.646c-.029.29-.05.58-.067.869a1.345,1.345,0,0,1-.16.769.2.2,0,0,1-.308-.024A1.24,1.24,0,0,1,64.85,353Z" transform="translate(-6.254 -311.652)"/><path class="c" d="M52.311,353.622a2.958,2.958,0,0,1,1.054-.264c.381-.05.767-.081,1.151-.1a23.293,23.293,0,0,1,6.947.676.22.22,0,0,1-.1.429,28.222,28.222,0,0,0-4.517-.509c-.739-.022-1.481-.018-2.22.017q-.577.027-1.154.07a3.688,3.688,0,0,1-1.109,0A.175.175,0,0,1,52.311,353.622Z" transform="translate(-8.029 -310.77)"/><path class="c" d="M69.586,357.64c.037-.4.087-.807.153-1.207s.139-.777.236-1.158a3.625,3.625,0,0,1,.395-1.133c.091-.136.342-.126.342.075a5.647,5.647,0,0,1-.228,1.134c-.084.386-.167.77-.229,1.16s-.108.759-.141,1.141c-.017.2-.031.406-.047.608a.834.834,0,0,1-.165.5.151.151,0,0,1-.234-.018C69.445,358.473,69.556,357.963,69.586,357.64Z" transform="translate(-5.591 -310.654)"/><path class="c" d="M62.5,359.779a.827.827,0,0,1,.485-.261,5.572,5.572,0,0,1,.624-.131,7.484,7.484,0,0,1,1.236-.106,7.121,7.121,0,0,1,2.427.413c.222.079.161.428-.082.37a9.034,9.034,0,0,0-2.361-.248,8.234,8.234,0,0,0-1.16.114c-.345.061-.778.258-1.117.129C62.429,360.013,62.438,359.862,62.5,359.779Z" transform="translate(-6.588 -309.917)"/><path class="c" d="M73.876,363.158a4.971,4.971,0,0,1,.274-1.8,14.652,14.652,0,0,1,.592-1.739,13.1,13.1,0,0,1,1.838-3.162c.137-.172.443.033.322.223a18.165,18.165,0,0,0-1.642,3.159,15.38,15.38,0,0,0-.555,1.684,12.74,12.74,0,0,1-.455,1.716C74.167,363.436,73.894,363.339,73.876,363.158Z" transform="translate(-4.98 -310.324)"/><path class="c" d="M68.06,365.333a1.356,1.356,0,0,1,.626-.357,6.225,6.225,0,0,1,.71-.22,8.263,8.263,0,0,1,1.539-.229,7.517,7.517,0,0,1,3,.468c.228.084.088.472-.146.4a8.276,8.276,0,0,0-2.831-.346,7.435,7.435,0,0,0-1.4.207c-.227.057-.453.121-.675.194a1.9,1.9,0,0,1-.685.175A.177.177,0,0,1,68.06,365.333Z" transform="translate(-5.804 -309.178)"/></g><g transform="translate(419.22 280.985)"><path class="b" d="M447.188,251.423a124.245,124.245,0,0,0-15.905,18.3,36.34,36.34,0,0,0,.678-13.038c-.179-1.4-.549-3.048-2.209-3.279a3.02,3.02,0,0,0-3.073,2.136,8.782,8.782,0,0,0-.43,2.051q-.149,1.14-.225,2.288a35.948,35.948,0,0,0-.021,4.531,39.025,39.025,0,0,0,.661,5.249,23.4,23.4,0,0,0,1.369,4.744q-.88,1.316-1.739,2.644a39.353,39.353,0,0,0-.311-4,37.45,37.45,0,0,0-1.28-6.192,39.46,39.46,0,0,0-2.322-6,12.238,12.238,0,0,0-2.9-4.211A4.1,4.1,0,0,0,414.7,256a5.408,5.408,0,0,0-2.381,5.029,18.019,18.019,0,0,0,1.464,5.692,24.525,24.525,0,0,0,2.538,4.709,26,26,0,0,0,4.038,4.628,20.24,20.24,0,0,0,4.023,2.9c0,.149,0,.3,0,.449a.963.963,0,0,0,.124.48c-.2.327-.407.654-.609.981q-3.479,5.682-6.55,11.6a29.2,29.2,0,0,0-3.079-12.446,26.879,26.879,0,0,0-1.367-2.406,13.322,13.322,0,0,0-1.634-2.188,4.463,4.463,0,0,0-4.939-1.286c-1.764.79-2.208,2.913-1.865,4.642a15.943,15.943,0,0,0,.978,2.834c.329.81.669,1.616,1.026,2.413a48.044,48.044,0,0,0,2.354,4.63,32.049,32.049,0,0,0,3.318,4.714A18.836,18.836,0,0,0,415.2,296.3c-.006.043-.01.089-.016.132a.727.727,0,0,0,.018.268q-2.8,5.708-5.253,11.58c-.041-.4-.089-.8-.141-1.187a28.238,28.238,0,0,0-1.3-5.369,35.067,35.067,0,0,0-2.121-4.993,8.145,8.145,0,0,0-3.4-3.721,4.659,4.659,0,0,0-4.613.142,4.517,4.517,0,0,0-1.6,4.636,15.12,15.12,0,0,0,2.365,5.028,34.821,34.821,0,0,0,3.142,4.225,33.392,33.392,0,0,0,4.231,4.048c.494.4,1,.808,1.537,1.163,0,.081-.008.162-.008.243a.929.929,0,0,0,.064.35q-.358.912-.71,1.828-1.83,4.785-3.435,9.652l-.042-.03c-.082-.6-.21-1.2-.339-1.786q-.3-1.391-.721-2.755a36.416,36.416,0,0,0-2.1-5.3,34.414,34.414,0,0,0-2.838-4.791c-.572-.807-1.169-1.594-1.805-2.352a18.057,18.057,0,0,0-1.9-2.042,4.327,4.327,0,0,0-2.567-1.2,2.753,2.753,0,0,0-2.5,1.213c-.9,1.393-.283,3.175.319,4.547a37.071,37.071,0,0,0,9.843,13.224c.9.766,1.832,1.532,2.816,2.217.026.115.049.232.079.346a.937.937,0,0,0,1.111.655q-1.041,3.242-1.989,6.51c-.084-.18-.168-.362-.254-.541q-.967-2-2.112-3.9c-.778-1.3-1.621-2.554-2.511-3.777a10.506,10.506,0,0,0-2.686-2.951,2.57,2.57,0,0,0-3.587.651c-.884,1.28-.459,2.88.022,4.221a25.224,25.224,0,0,0,4.306,7.584c1.343,1.623,3.247,3.408,5.408,3.809q-1.039,3.89-1.954,7.813a29.625,29.625,0,0,0-1.173-2.88,27.026,27.026,0,0,0-1.807-3.273,9.774,9.774,0,0,0-2.441-2.956,2.456,2.456,0,0,0-3.421.5,3.241,3.241,0,0,0-.113,2.838,16.167,16.167,0,0,0,1.588,3.045,29.691,29.691,0,0,0,2.113,2.967,29.018,29.018,0,0,0,4.252,4.217c-.146.675-.3,1.35-.436,2.026q-.18.868-.353,1.735-.123-.286-.257-.57a20.955,20.955,0,0,0-1.013-1.9,21.445,21.445,0,0,0-2.738-3.6,22.205,22.205,0,0,0-3.422-2.961,11.055,11.055,0,0,0-4.076-2.038,3.368,3.368,0,0,0-2.386.313,2.8,2.8,0,0,0-1.28,1.811,6.333,6.333,0,0,0,.832,4.035,14.835,14.835,0,0,0,13.327,8.048.849.849,0,0,0,.338.31,327.081,327.081,0,0,0-4.753,37.061,408.448,408.448,0,0,0-.976,42.644c.058,1.763.189,3.52.316,5.278.044.612.953.682.976.04.256-7.075.222-14.155.362-21.232.139-7.03.418-14.058.874-21.075a359.063,359.063,0,0,1,4.133-36.542,27.757,27.757,0,0,0,3.789-1.67,45.627,45.627,0,0,0,4.254-2.439,50.242,50.242,0,0,0,7.817-6.253,6.654,6.654,0,0,0,1.534-1.855,1.715,1.715,0,0,0-.507-2.255,4.123,4.123,0,0,0-2.438-.237,18.256,18.256,0,0,0-2.5.348,17.557,17.557,0,0,0-10.56,6.793q.445-2.247.92-4.489a.957.957,0,0,0,1.2-.577c.64-.146,1.271-.333,1.879-.534a22.331,22.331,0,0,0,3.652-1.565,21.952,21.952,0,0,0,6.035-4.744,4.367,4.367,0,0,0,1.355-3.615,2.812,2.812,0,0,0-2.833-2.043c-2.607-.065-4.94,1.775-6.566,3.635a44.255,44.255,0,0,0-2.676,3.57q-.512.722-1.057,1.422,1.075-4.64,2.313-9.237a.894.894,0,0,0,.633-.972.705.705,0,0,0,.22-.167l.088-.1a31.9,31.9,0,0,0,18.933-8.3c1.3-1.171,2.961-2.591,3-4.484a2.821,2.821,0,0,0-1.2-2.454,3.7,3.7,0,0,0-2.6-.372,19.294,19.294,0,0,0-5.463,1.783,28.008,28.008,0,0,0-4.955,3.117A51.582,51.582,0,0,0,403.381,333q1.84-6.3,4.024-12.5a1.072,1.072,0,0,0,.331-.232,18.741,18.741,0,0,0,5-.478,31.035,31.035,0,0,0,5.048-1.568,28.969,28.969,0,0,0,4.566-2.322c.761-.478,1.5-.994,2.217-1.535a6.47,6.47,0,0,0,1.761-1.784,2.875,2.875,0,0,0-1.075-4.179,7.728,7.728,0,0,0-4.429-.228,19.361,19.361,0,0,0-8.105,3.26,20.97,20.97,0,0,0-2.807,2.342q2.257-5.776,4.845-11.417a.541.541,0,0,0,.252.3,14.878,14.878,0,0,0,4.838,1.4,20.856,20.856,0,0,0,4.9.087,21.712,21.712,0,0,0,9.362-3.067c1.293-.8,2.831-1.823,3.19-3.409a3.691,3.691,0,0,0-2.532-4.125,11.428,11.428,0,0,0-5.272-.238,25.619,25.619,0,0,0-5.077,1.068,26.829,26.829,0,0,0-7.739,3.933c.178-.367.353-.736.533-1.1a.69.69,0,0,0,.3-.219.8.8,0,0,0,.144-.677q1.965-3.928,4.1-7.765a1.054,1.054,0,0,0,.517-.207.558.558,0,0,0,.468.283,24.984,24.984,0,0,0,5.4-.714,38.445,38.445,0,0,0,5.183-1.448,22.8,22.8,0,0,0,9.017-5.47c1.208-1.277,2.243-3.064,1.54-4.846-.632-1.607-2.422-2.247-4.017-2.368-3.78-.29-7.519,1.394-10.481,3.608a23.434,23.434,0,0,0-1.945,1.635q2.817-4.426,5.884-8.686c3.639-5.041,7.591-9.819,11.586-14.577q1.5-1.787,3.043-3.542C448.393,251.7,447.712,250.934,447.188,251.423Z" transform="translate(-380.913 -251.266)"/><path class="c" d="M432.439,275.364a7.672,7.672,0,0,0-1.96.159q-.911.14-1.807.359a21.574,21.574,0,0,0-3.483,1.2,20.863,20.863,0,0,0-3.229,1.77c-.5.338-1,.7-1.471,1.074a4.888,4.888,0,0,0-1.378,1.319.271.271,0,0,0,.356.378,7.37,7.37,0,0,0,1.441-1.076c.463-.35.944-.678,1.436-.986a22.171,22.171,0,0,1,3.216-1.665,21.632,21.632,0,0,1,3.391-1.083q.866-.205,1.748-.338c.6-.09,1.231-.1,1.822-.241A.442.442,0,0,0,432.439,275.364Z" transform="translate(-375.533 -247.872)"/><path class="c" d="M423.812,256.6c-.075-.193-.33-.177-.462-.074a1.206,1.206,0,0,0-.323.714c-.068.266-.127.535-.183.8-.114.549-.211,1.1-.289,1.659a24.366,24.366,0,0,0-.24,3.286,20.2,20.2,0,0,0,.98,6.593.264.264,0,0,0,.515-.12,31.826,31.826,0,0,1-.715-6.5,24.538,24.538,0,0,1,.234-3.222q.116-.83.293-1.649C423.719,257.633,423.989,257.049,423.812,256.6Z" transform="translate(-375.076 -250.535)"/><path class="c" d="M417.209,272.117q-.508-.832-.965-1.694a33.889,33.889,0,0,1-1.694-3.726,40.745,40.745,0,0,1-2.039-7.868c-.045-.266-.491-.229-.477.044a22.035,22.035,0,0,0,.35,3.18,32.65,32.65,0,0,0,3.316,9.184q.435.8.914,1.575a4.537,4.537,0,0,0,1.108,1.422.323.323,0,0,0,.479-.345A6.788,6.788,0,0,0,417.209,272.117Z" transform="translate(-376.526 -250.226)"/><path class="c" d="M411.864,288.617q-.241-.8-.521-1.589-.532-1.506-1.189-2.966a36.231,36.231,0,0,0-3.184-5.65,26.305,26.305,0,0,0-2.3-2.88c-.234-.253-.577.1-.381.361a45.558,45.558,0,0,1,4.356,6.869,35.57,35.57,0,0,1,1.594,3.672q.356.965.655,1.949c.1.329.189.659.285.988a1.89,1.89,0,0,0,.4.86.314.314,0,0,0,.523-.121A2.752,2.752,0,0,0,411.864,288.617Z" transform="translate(-377.625 -247.858)"/><path class="c" d="M426.9,291.941c-.338-.451-1.2-.5-1.711-.575a14,14,0,0,0-1.761-.143,17.765,17.765,0,0,0-3.661.329,32.527,32.527,0,0,0-7.505,2.581c-.342.159-.124.759.238.629a47.7,47.7,0,0,1,7.362-2.243,17.663,17.663,0,0,1,3.527-.3,14.216,14.216,0,0,1,1.761.147,3.292,3.292,0,0,0,1.666.113A.349.349,0,0,0,426.9,291.941Z" transform="translate(-376.518 -245.634)"/><path class="c" d="M404.651,301.616q-.4-.731-.825-1.448-.827-1.408-1.725-2.774-.89-1.349-1.848-2.649-.472-.644-.972-1.268a5.337,5.337,0,0,0-1.131-1.2h0a.228.228,0,0,0-.314.294,5.892,5.892,0,0,0,.852,1.284q.489.657.969,1.322.959,1.321,1.842,2.695.866,1.345,1.66,2.734.4.695.774,1.4c.229.428.4,1,.866,1.2a.293.293,0,0,0,.366-.193C405.268,302.513,404.884,302.039,404.651,301.616Z" transform="translate(-378.53 -245.488)"/><path class="c" d="M415.681,305.167a10.629,10.629,0,0,0-2.816.537,19.924,19.924,0,0,0-2.757,1.02,15.9,15.9,0,0,0-4.8,3.215c-.212.214.057.646.328.452a27.7,27.7,0,0,1,4.766-2.86,19.908,19.908,0,0,1,2.6-.946c.906-.262,1.847-.373,2.75-.631C416.17,305.836,416.151,305.166,415.681,305.167Z" transform="translate(-377.484 -243.667)"/><path class="c" d="M399.916,313.774q-.373-.731-.778-1.446a34.1,34.1,0,0,0-1.875-2.926,30.069,30.069,0,0,0-4.526-5.13c-.229-.2-.566.1-.351.333a46.269,46.269,0,0,1,4.273,5.268c.628.923,1.209,1.875,1.755,2.848q.4.715.77,1.45a4.1,4.1,0,0,0,.855,1.436c.191.156.476-.04.484-.257A3.569,3.569,0,0,0,399.916,313.774Z" transform="translate(-379.305 -243.803)"/><path class="c" d="M398.008,324.565q-.341-.489-.7-.969-.746-1-1.562-1.956a29.157,29.157,0,0,0-3.538-3.454c-.25-.208-.624.12-.378.356a46.586,46.586,0,0,1,3.332,3.562q.767.909,1.472,1.866c.248.335.487.677.721,1.02s.383.662.76.828a.28.28,0,0,0,.362-.256A1.775,1.775,0,0,0,398.008,324.565Z" transform="translate(-379.385 -241.841)"/><path class="c" d="M414.995,316.178a4.251,4.251,0,0,0-1.489.451c-.505.218-1,.463-1.489.72a33.242,33.242,0,0,0-2.9,1.718,33.724,33.724,0,0,0-5.143,4.209.315.315,0,0,0,.432.458,40.337,40.337,0,0,1,5.178-3.939c.893-.57,1.808-1.11,2.743-1.61q.729-.389,1.468-.76a5.321,5.321,0,0,0,1.36-.818A.251.251,0,0,0,414.995,316.178Z" transform="translate(-377.676 -242.115)"/><path class="c" d="M395.53,333.776q-.512-.705-1.075-1.37c-.364-.43-.74-.853-1.14-1.252a5.263,5.263,0,0,0-1.316-1.1c-.212-.1-.513.1-.365.345a8.021,8.021,0,0,0,1.111,1.227c.387.412.77.825,1.133,1.258s.691.853,1.012,1.3c.17.236.335.476.5.713a1.188,1.188,0,0,0,.573.5.214.214,0,0,0,.273-.193C396.314,334.7,395.8,334.151,395.53,333.776Z" transform="translate(-379.407 -240.163)"/><path class="c" d="M406.345,331.216a1.181,1.181,0,0,0-.788.035,7.628,7.628,0,0,0-.863.3,10.8,10.8,0,0,0-1.6.775,10.169,10.169,0,0,0-2.679,2.29c-.216.26.115.643.372.392a12.986,12.986,0,0,1,2.72-2.035,11.906,11.906,0,0,1,1.509-.711c.468-.179,1.146-.254,1.467-.662C406.6,331.453,406.479,331.275,406.345,331.216Z" transform="translate(-378.173 -240.003)"/><path class="c" d="M394.589,343.537a7.141,7.141,0,0,0-1.657-2.008,20.945,20.945,0,0,0-2-1.7,18.741,18.741,0,0,0-4.579-2.536c-.3-.112-.52.365-.233.509a26.07,26.07,0,0,1,4.337,2.679,22.147,22.147,0,0,1,1.918,1.662,18.26,18.26,0,0,0,1.818,1.774C394.435,344.094,394.7,343.773,394.589,343.537Z" transform="translate(-380.198 -239.141)"/><path class="c" d="M403.744,342.078a1.952,1.952,0,0,0-1.034.021,8.912,8.912,0,0,0-1.034.25,11.767,11.767,0,0,0-2.058.848,10.758,10.758,0,0,0-3.341,2.775c-.219.27.239.646.474.387a11.79,11.79,0,0,1,3.226-2.5,10.71,10.71,0,0,1,1.871-.774q.481-.146.971-.257a2.713,2.713,0,0,0,.971-.289A.254.254,0,0,0,403.744,342.078Z" transform="translate(-378.755 -238.473)"/></g><g transform="translate(401.468 346.759)"><path class="d" d="M453.2,340.14a56.866,56.866,0,0,0-.95-13.826,32.034,32.034,0,0,0-4.466-11.761c-2.09-3.065-5.231-5.663-9.114-5.639-4.627.03-7.934,3.775-9.982,7.537a42.763,42.763,0,0,0-2.6,6.185q-1.155,3.25-2.1,6.569a110.26,110.26,0,0,0-4.175,32.586q-.888-3.524-2.093-6.958a53.5,53.5,0,0,0-3.465-8.2,12.648,12.648,0,0,0-4.716-5.17,6.832,6.832,0,0,0-7.254.479,10.336,10.336,0,0,0-4.014,7.09,37.393,37.393,0,0,0,.2,9.059c.331,3.251.806,6.484,1.385,9.7.415,2.306.881,4.6,1.382,6.886q-.984-2.18-2.017-4.337c-.7-1.456-1.4-2.914-2.155-4.341a17.069,17.069,0,0,0-2.194-3.292,6.575,6.575,0,0,0-7.281-2.138,10.821,10.821,0,0,0-5.73,5.841,19.179,19.179,0,0,0-1.653,7.706c-.087,5.381,1.64,10.656,3.761,15.536.945,2.174,1.97,4.329,2.943,6.5a51.7,51.7,0,0,0-4.142-4.951,10.962,10.962,0,0,0-3.878-2.77,7.762,7.762,0,0,0-4.346-.357A10.933,10.933,0,0,0,368,392.8c-3.746,5.448-2.914,12.585-1.166,18.6a92.762,92.762,0,0,0,3.576,9.8q2.124,5.083,4.67,9.979a119.093,119.093,0,0,0,11.771,18.449c.572.73,1.195,1.419,1.808,2.114.541.612,1.46-.025,1.43-.711a58.543,58.543,0,0,0,15.416,3.827,36.749,36.749,0,0,0,16.566-1.8c5-1.864,9.8-5.128,12.523-9.816a12.01,12.01,0,0,0,1.751-7.069,10.7,10.7,0,0,0-3.323-6.6c.225,0,.448,0,.672,0a18.18,18.18,0,0,0,2.992-.319,20.737,20.737,0,0,0,5.546-1.935,22.256,22.256,0,0,0,8.7-7.859,17.136,17.136,0,0,0,2.763-12.052,9.07,9.07,0,0,0-3.34-5.777,8.552,8.552,0,0,0-1.094-.671,42.033,42.033,0,0,0,10.069-9.307,25.96,25.96,0,0,0,5.534-14.44,18.089,18.089,0,0,0-5.9-14.314,14.7,14.7,0,0,0-8.668-3.43q.6-2.619,1.109-5.259A98.007,98.007,0,0,0,453.2,340.14Z" transform="translate(-365.354 -308.914)"/><path class="e" d="M459.681,369.827a15.3,15.3,0,0,0-1.491,1.789c-.491.606-1,1.2-1.519,1.777a44.263,44.263,0,0,1-3.3,3.309,45.117,45.117,0,0,1-7.4,5.407,46.806,46.806,0,0,1-17.419,6.011,48.093,48.093,0,0,1-9.553.244q1.765-4.792,3.351-9.649a.583.583,0,0,0,.444-.861c-.034-.058-.073-.114-.11-.171.131-.406.266-.811.394-1.219q2.04-6.452,3.758-13a.463.463,0,0,0,.539.054,59.436,59.436,0,0,0,10.827-7.468,66.531,66.531,0,0,0,9.064-9.475c.824-1.052,1.625-2.127,2.389-3.227-.007-.317-.009-.635,0-.954a.173.173,0,0,1-.233-.159c-.007-.236-.014-.472-.015-.709A65.672,65.672,0,0,1,433,358.68c-1.911,1.4-3.9,2.672-5.93,3.888q1.655-6.391,3-12.853a223.781,223.781,0,0,0,4.119-27.283c.091-1.128.063-2.267.116-3.4.019-.427-.7-.54-.761-.1-.147,1.1-.387,2.178-.527,3.275-.145,1.131-.275,2.264-.42,3.394-.3,2.313-.593,4.623-.936,6.929q-1.008,6.808-2.334,13.566a269.843,269.843,0,0,1-6.653,26.6q-.522,1.71-1.067,3.414c-.146-.207-.291-.414-.431-.623q-.786-1.174-1.5-2.39a48.6,48.6,0,0,1-2.619-5.121,47.25,47.25,0,0,1-1.947-5.283,21.88,21.88,0,0,1-1.052-5,6.819,6.819,0,0,1,1.286-4.89.715.715,0,0,0,0-.985.7.7,0,0,0-.985,0c-2.458,2.789-1.811,6.868-.885,10.142a49.206,49.206,0,0,0,4.612,10.994q.835,1.462,1.769,2.863c.4.6.81,1.228,1.257,1.813q-2.379,7.306-5.162,14.473a41.434,41.434,0,0,1-5.916-7.236A39.762,39.762,0,0,1,405.7,375.6a38.132,38.132,0,0,1-1.777-10.245,39.537,39.537,0,0,1,5.148-20.837c.227-.4.463-.794.7-1.185.472-.766-.728-1.463-1.2-.7a39.747,39.747,0,0,0-4.521,10.219,40.873,40.873,0,0,0-1.553,11.129,39.538,39.538,0,0,0,1.491,10.748A40.544,40.544,0,0,0,414.7,392.711c.242.235.5.459.748.681q-1.03,2.613-2.113,5.205-2.073,4.958-4.347,9.832c-.791-.738-1.638-1.424-2.409-2.178a40.613,40.613,0,0,1-3.125-3.443,41.988,41.988,0,0,1-4.993-7.856,43.966,43.966,0,0,1-3.2-8.7A41.913,41.913,0,0,1,394,377.1a39.151,39.151,0,0,1,.816-9.194c.044-.21.1-.42.13-.632a2.43,2.43,0,0,0-.025-.63.562.562,0,0,0-1.038-.282,2.447,2.447,0,0,0-.324.582c-.058.187-.09.387-.131.58q-.121.58-.226,1.166c-.145.812-.264,1.628-.362,2.447a40.761,40.761,0,0,0-.282,4.777,43.554,43.554,0,0,0,1.075,9.56,44.267,44.267,0,0,0,3.1,9.064,43.589,43.589,0,0,0,5.011,8.188,36.305,36.305,0,0,0,6.723,6.812q-3.3,7-6.987,13.81-2.05,3.784-4.224,7.5c-.362-.362-.744-.706-1.115-1.057q-.767-.724-1.5-1.484-1.491-1.556-2.826-3.252a44.99,44.99,0,0,1-4.606-7.194,45.943,45.943,0,0,1-4.864-16.168,44.262,44.262,0,0,1-.246-4.778c0-1.633.135-3.251.277-4.877a.733.733,0,0,0-1.436-.194,39.378,39.378,0,0,0-.139,8.9,46.384,46.384,0,0,0,1.6,8.655,47.1,47.1,0,0,0,7.785,15.59,46.212,46.212,0,0,0,3.2,3.77q.859.9,1.766,1.755a15.463,15.463,0,0,0,1.539,1.31q-4.511,7.674-9.442,15.088c-.628.948-1.221,1.913-1.808,2.886-.266.439.39.981.729.564a104.1,104.1,0,0,0,6.411-9.055,22.632,22.632,0,0,0,3.042,1.6,40.489,40.489,0,0,0,3.936,1.548,41.954,41.954,0,0,0,24.946.4,36.807,36.807,0,0,0,8.687-3.761.736.736,0,0,0-.743-1.27,40.823,40.823,0,0,1-7.394,3.312,39.719,39.719,0,0,1-7.917,1.71,41.137,41.137,0,0,1-16.219-1.432,37.643,37.643,0,0,1-4.243-1.538c-1.158-.5-2.271-1.1-3.407-1.645q.387-.6.771-1.2,3.712-5.8,7.072-11.816,2.006-3.572,3.9-7.208a41.864,41.864,0,0,0,17.3,4.814,45.2,45.2,0,0,0,18.128-2.636,44.04,44.04,0,0,0,4.831-2.094q1.13-.573,2.221-1.214c.294-.173.585-.353.875-.533q.031-.946.04-1.9c-.16.089-.31.2-.464.3q-.493.315-.995.614-.964.575-1.954,1.1a40.475,40.475,0,0,1-3.972,1.824,44.069,44.069,0,0,1-8.714,2.429,45.839,45.839,0,0,1-17.709-.484,43.341,43.341,0,0,1-9.091-3.176q2.281-4.422,4.4-8.928a.428.428,0,0,0,.213-.452q1.681-3.594,3.261-7.235c.036-.087.073-.175.111-.261.015.006.029.013.044.017a39.275,39.275,0,0,0,6.524.969,62.228,62.228,0,0,0,6.506.21,65.768,65.768,0,0,0,13.077-1.585,64.585,64.585,0,0,0,7.081-2.024.662.662,0,0,0,.452-.8.653.653,0,0,0-.8-.452,64.862,64.862,0,0,1-25.465,3.507c-2.362-.142-4.7-.482-7.047-.735q2.511-5.881,4.746-11.871a39.457,39.457,0,0,0,8.912.1,45.75,45.75,0,0,0,9.325-1.885,48.209,48.209,0,0,0,8.762-3.745,47.193,47.193,0,0,0,7.867-5.44,43.4,43.4,0,0,0,6.516-6.926,4.831,4.831,0,0,0,.606-1A.584.584,0,0,0,459.681,369.827Z" transform="translate(-363.202 -307.541)"/><path class="f" d="M435.144,318.085c-.081-.237-.186-.468-.289-.7a9.133,9.133,0,0,0-.581-1.089,9.278,9.278,0,0,0-.768-1.066c-.283-.339-.705-.842-1.181-.844a.432.432,0,0,0-.551.229.609.609,0,0,0-.015.345,1.153,1.153,0,0,0,.338.691l.1.13.026.034c.058.075.113.152.169.228l.074.1.041.052c-.04-.054.07.094.066.09.054.072.1.144.155.217.114.165.222.333.325.505a10.152,10.152,0,0,1,.523,1.007l.015.034,0,.01c.016.042.033.083.049.124.038.094.07.187.106.281a1.892,1.892,0,0,0,.421.673.6.6,0,0,0,1-.262A1.6,1.6,0,0,0,435.144,318.085Z" transform="translate(-355.994 -308.144)"/><path class="f" d="M436.526,316.483a8.643,8.643,0,0,0-.37-1.025c-.264-.609-.542-1.214-.812-1.82a.547.547,0,0,0-1,.421c.267.649.526,1.3.8,1.949a7.99,7.99,0,0,0,.44.871,2.675,2.675,0,0,0,.65.839c.2.154.43-.063.454-.261A2.572,2.572,0,0,0,436.526,316.483Z" transform="translate(-355.631 -308.285)"/><path class="f" d="M437.446,326.338c-.064-.429-.128-.86-.2-1.287-.16-.885-.327-1.77-.492-2.654-.1-.529-1.013-.415-.95.129.1.909.2,1.819.314,2.728.057.466.122.933.2,1.4a1.759,1.759,0,0,0,.539,1.263.388.388,0,0,0,.519-.137C437.658,327.4,437.51,326.776,437.446,326.338Z" transform="translate(-355.423 -307.061)"/><path class="f" d="M439.128,328.432c-.055-.382-.1-.767-.168-1.148-.126-.744-.284-1.484-.427-2.226a.532.532,0,0,0-.648-.367.539.539,0,0,0-.367.647c.117.734.224,1.471.354,2.2a6.965,6.965,0,0,0,.6,2.144c.138.253.617.229.665-.088a3.941,3.941,0,0,0,.062-.6A4.067,4.067,0,0,0,439.128,328.432Z" transform="translate(-355.181 -306.692)"/><path class="f" d="M449.37,361.139a6.769,6.769,0,0,0-1.378-1.861,5.352,5.352,0,0,0-4.322-1.682c-.472.07-.412.785,0,.9a7.27,7.27,0,0,1,3.407,1.7,5.555,5.555,0,0,1,1.122,1.54,5.479,5.479,0,0,1,.338.859c.1.318.152.665.271.976a.6.6,0,0,0,.545.416.521.521,0,0,0,.151-.021.554.554,0,0,0,.4-.4A4.1,4.1,0,0,0,449.37,361.139Z" transform="translate(-354.36 -302.056)"/><path class="f" d="M446.1,363.337a2.328,2.328,0,0,0-.1-.361,1.954,1.954,0,0,0-.233-.4l-.43-.639c-.292-.435-.608-.853-.914-1.278a.484.484,0,0,0-.647-.169.478.478,0,0,0-.169.646c.3.439.588.885.9,1.314l.47.645a1.957,1.957,0,0,0,.293.362,2.9,2.9,0,0,0,.349.256A.333.333,0,0,0,446.1,363.337Z" transform="translate(-354.332 -301.652)"/><path class="f" d="M440.6,397.733a12.613,12.613,0,0,0-.472-2.211,12.117,12.117,0,0,0-.934-2.087.573.573,0,0,0-.774-.2.579.579,0,0,0-.2.772,13.924,13.924,0,0,1,.954,3.675,13.518,13.518,0,0,1-.089,3.783c-.079.51-.463,1.795.4,1.828.731.028.893-1.062,1.005-1.6A12.141,12.141,0,0,0,440.6,397.733Z" transform="translate(-355.091 -297.037)"/><path class="f" d="M436.506,400.25a.588.588,0,0,0-.573.573l-.153,1.578c-.025.257-.033.515-.044.774a1.341,1.341,0,0,0,.176.884.4.4,0,0,0,.621.08,1.159,1.159,0,0,0,.271-.432,2.525,2.525,0,0,0,.076-.5c.031-.258.067-.515.086-.774l.113-1.608A.575.575,0,0,0,436.506,400.25Z" transform="translate(-355.432 -296.038)"/></g><g transform="translate(25.221 374.22)"><path class="d" d="M46.049,360.95a50.877,50.877,0,0,1,.852-12.384,28.687,28.687,0,0,1,4-10.534c1.871-2.745,4.685-5.072,8.164-5.05,4.143.026,7.106,3.382,8.94,6.751a38.374,38.374,0,0,1,2.333,5.539q1.035,2.909,1.884,5.883a97.1,97.1,0,0,1,2.6,11.881,97.031,97.031,0,0,1,1.141,17.305q.8-3.156,1.873-6.232a48.192,48.192,0,0,1,3.1-7.345,11.334,11.334,0,0,1,4.224-4.63,6.12,6.12,0,0,1,6.5.429,9.255,9.255,0,0,1,3.6,6.349,33.484,33.484,0,0,1-.178,8.115c-.3,2.912-.721,5.806-1.24,8.686-.372,2.065-.788,4.12-1.237,6.167q.88-1.951,1.806-3.884c.626-1.3,1.255-2.609,1.932-3.889a15.245,15.245,0,0,1,1.964-2.948,5.889,5.889,0,0,1,6.522-1.915,9.687,9.687,0,0,1,5.131,5.23,17.173,17.173,0,0,1,1.481,6.9c.079,4.821-1.468,9.544-3.368,13.915-.845,1.946-1.765,3.876-2.636,5.826a46.5,46.5,0,0,1,3.709-4.434,9.829,9.829,0,0,1,3.474-2.482,6.95,6.95,0,0,1,3.892-.321,9.8,9.8,0,0,1,5.857,4.228c3.356,4.881,2.611,11.273,1.045,16.657a82.821,82.821,0,0,1-3.2,8.781q-1.9,4.553-4.182,8.937a106.706,106.706,0,0,1-10.544,16.524c-.511.655-1.07,1.271-1.619,1.894-.484.548-1.308-.023-1.28-.637a52.443,52.443,0,0,1-13.807,3.426,32.923,32.923,0,0,1-14.838-1.609c-4.477-1.67-8.775-4.594-11.216-8.792a10.765,10.765,0,0,1-1.569-6.332,9.59,9.59,0,0,1,2.976-5.913c-.2,0-.4,0-.6,0a16.125,16.125,0,0,1-2.679-.286,18.521,18.521,0,0,1-4.968-1.733,19.935,19.935,0,0,1-7.789-7.038A15.348,15.348,0,0,1,45.612,421.2a8.126,8.126,0,0,1,2.991-5.174,7.516,7.516,0,0,1,.98-.6,37.662,37.662,0,0,1-9.017-8.336,23.245,23.245,0,0,1-4.956-12.934,16.2,16.2,0,0,1,5.287-12.82,13.178,13.178,0,0,1,7.764-3.072q-.537-2.345-.994-4.71A87.887,87.887,0,0,1,46.049,360.95Z" transform="translate(-35.596 -332.982)"/><path class="e" d="M38.09,387.538a13.868,13.868,0,0,1,1.336,1.6c.439.543.895,1.071,1.36,1.592a39.8,39.8,0,0,0,2.955,2.964,40.439,40.439,0,0,0,6.628,4.842,41.931,41.931,0,0,0,15.6,5.384,43.065,43.065,0,0,0,8.556.218q-1.58-4.292-3-8.642a.523.523,0,0,1-.4-.772c.032-.051.066-.1.1-.153-.118-.364-.238-.727-.353-1.092q-1.828-5.78-3.366-11.645a.416.416,0,0,1-.483.047,53.179,53.179,0,0,1-9.7-6.688,59.61,59.61,0,0,1-8.118-8.485c-.738-.941-1.456-1.9-2.14-2.889.007-.285.009-.57,0-.856a.156.156,0,0,0,.21-.141c.006-.211.011-.423.013-.636a58.8,58.8,0,0,0,14.7,15.367c1.711,1.249,3.495,2.393,5.31,3.482q-1.48-5.723-2.687-11.511a200.516,200.516,0,0,1-3.689-24.436c-.082-1.011-.057-2.031-.1-3.044-.017-.383.629-.484.681-.092.133.982.348,1.951.474,2.933.13,1.013.246,2.027.375,3.041.266,2.071.532,4.141.837,6.206q.9,6.1,2.093,12.15a241.236,241.236,0,0,0,5.958,23.823q.467,1.532.955,3.058c.131-.185.261-.371.387-.559q.7-1.049,1.344-2.139a43.916,43.916,0,0,0,2.345-4.587,42.575,42.575,0,0,0,1.743-4.732,19.609,19.609,0,0,0,.942-4.477A6.1,6.1,0,0,0,77.8,372.29a.642.642,0,0,1,0-.883.63.63,0,0,1,.883,0c2.2,2.5,1.621,6.152.792,9.084a44.036,44.036,0,0,1-4.13,9.847q-.748,1.309-1.584,2.565c-.361.54-.726,1.1-1.126,1.624q2.131,6.545,4.623,12.963a37.218,37.218,0,0,0,5.3-6.481,35.665,35.665,0,0,0,3.88-8.3,34.171,34.171,0,0,0,1.591-9.175,35.419,35.419,0,0,0-4.611-18.663q-.306-.536-.631-1.061c-.423-.686.653-1.31,1.078-.63a35.6,35.6,0,0,1,4.049,9.152,36.625,36.625,0,0,1,1.39,9.968,35.438,35.438,0,0,1-1.335,9.626,36.3,36.3,0,0,1-9.592,16.109c-.217.211-.443.412-.67.61q.922,2.341,1.892,4.662,1.857,4.441,3.894,8.8c.707-.661,1.467-1.274,2.156-1.95a36.393,36.393,0,0,0,2.8-3.084,37.622,37.622,0,0,0,4.473-7.036,39.434,39.434,0,0,0,2.862-7.789,37.6,37.6,0,0,0,1.138-8.2,35.117,35.117,0,0,0-.73-8.234c-.04-.188-.089-.375-.118-.566a2.184,2.184,0,0,1,.023-.565.5.5,0,0,1,.93-.252,2.141,2.141,0,0,1,.29.521c.053.168.081.346.118.519q.11.52.2,1.044c.13.728.236,1.459.323,2.193a36.457,36.457,0,0,1,.253,4.278,39.1,39.1,0,0,1-.963,8.563,39.568,39.568,0,0,1-2.778,8.118,39.049,39.049,0,0,1-4.489,7.334,32.5,32.5,0,0,1-6.021,6.1q2.957,6.271,6.258,12.369,1.836,3.39,3.783,6.718c.324-.324.665-.632,1-.946q.686-.649,1.34-1.33,1.337-1.391,2.531-2.912A40.34,40.34,0,0,0,103,430.561a41.193,41.193,0,0,0,4.356-14.481,40,40,0,0,0,.22-4.279c0-1.463-.121-2.912-.249-4.368a.656.656,0,0,1,1.287-.175,35.238,35.238,0,0,1,.124,7.967,41.606,41.606,0,0,1-1.428,7.753,42.174,42.174,0,0,1-6.973,13.963,41,41,0,0,1-2.866,3.376q-.768.808-1.581,1.572a13.791,13.791,0,0,1-1.378,1.173q4.039,6.873,8.456,13.514c.563.849,1.093,1.714,1.62,2.584.238.394-.349.88-.653.5a92.9,92.9,0,0,1-5.743-8.109,20.415,20.415,0,0,1-2.724,1.434,36.549,36.549,0,0,1-3.527,1.387,37.577,37.577,0,0,1-22.343.361,32.958,32.958,0,0,1-7.781-3.367.659.659,0,0,1,.665-1.138,36.6,36.6,0,0,0,6.622,2.967,35.547,35.547,0,0,0,7.091,1.531,36.847,36.847,0,0,0,14.526-1.281,33.715,33.715,0,0,0,3.8-1.378c1.037-.451,2.034-.985,3.052-1.473l-.691-1.078q-3.324-5.2-6.334-10.583-1.8-3.2-3.489-6.454A37.49,37.49,0,0,1,71.569,436.8a40.491,40.491,0,0,1-16.236-2.36,39.782,39.782,0,0,1-4.327-1.876q-1.011-.514-1.99-1.087c-.265-.155-.525-.316-.784-.477q-.027-.849-.035-1.7c.143.08.277.181.415.269q.442.282.891.55.863.515,1.751.982a36.069,36.069,0,0,0,3.556,1.634,39.556,39.556,0,0,0,7.8,2.176,41.106,41.106,0,0,0,15.861-.432,38.89,38.89,0,0,0,8.143-2.846q-2.043-3.962-3.941-8a.382.382,0,0,1-.191-.405q-1.506-3.219-2.921-6.48c-.033-.078-.065-.156-.1-.234a.229.229,0,0,1-.039.015,35.169,35.169,0,0,1-5.844.868,56.111,56.111,0,0,1-5.827.188,58.987,58.987,0,0,1-11.712-1.419,57.928,57.928,0,0,1-6.343-1.813.593.593,0,0,1-.4-.712.584.584,0,0,1,.712-.405,58.237,58.237,0,0,0,11.272,2.716,58.825,58.825,0,0,0,11.536.426c2.115-.127,4.207-.431,6.311-.658q-2.247-5.266-4.251-10.632a35.292,35.292,0,0,1-7.981.089,40.958,40.958,0,0,1-8.352-1.689,43.2,43.2,0,0,1-7.848-3.353,42.284,42.284,0,0,1-7.047-4.873,38.865,38.865,0,0,1-5.835-6.2,4.291,4.291,0,0,1-.543-.891A.523.523,0,0,1,38.09,387.538Z" transform="translate(-35.367 -331.752)"/><path class="f" d="M51.593,341.2c.073-.212.168-.42.259-.624a8.135,8.135,0,0,1,.52-.974,8.327,8.327,0,0,1,.688-.954c.253-.3.631-.754,1.058-.756.2-.043.43-.006.493.205a.555.555,0,0,1,.014.309,1.034,1.034,0,0,1-.3.618l-.095.116-.024.031-.151.2c-.022.03-.044.058-.066.087-.054.068-.065.083-.037.048s-.063.083-.059.08c-.048.064-.094.129-.139.2-.1.147-.2.3-.291.452a9.009,9.009,0,0,0-.468.9l-.014.031,0,.009c-.015.038-.031.074-.046.111-.032.084-.062.169-.094.252a1.709,1.709,0,0,1-.378.6.538.538,0,0,1-.892-.236A1.425,1.425,0,0,1,51.593,341.2Z" transform="translate(-33.349 -332.293)"/><path class="f" d="M50.236,339.761a7.915,7.915,0,0,1,.331-.917c.236-.547.485-1.087.728-1.63a.49.49,0,0,1,.893.376c-.237.583-.47,1.167-.717,1.747a6.934,6.934,0,0,1-.395.779,2.388,2.388,0,0,1-.582.751c-.184.138-.386-.056-.407-.234A2.314,2.314,0,0,1,50.236,339.761Z" transform="translate(-33.554 -332.419)"/><path class="f" d="M49.343,348.588c.056-.385.113-.77.183-1.152.143-.794.293-1.585.439-2.378.088-.475.908-.372.851.115-.094.815-.183,1.629-.281,2.444-.05.416-.108.836-.177,1.251A1.577,1.577,0,0,1,49.875,350a.349.349,0,0,1-.466-.122C49.152,349.535,49.284,348.981,49.343,348.588Z" transform="translate(-33.67 -331.323)"/><path class="f" d="M47.829,350.464c.049-.343.092-.687.151-1.028.113-.667.254-1.33.382-1.994a.475.475,0,0,1,.58-.329.482.482,0,0,1,.33.58c-.106.657-.2,1.317-.317,1.972a6.218,6.218,0,0,1-.536,1.92c-.123.227-.553.205-.6-.079a3.563,3.563,0,0,1-.056-.54A3.92,3.92,0,0,1,47.829,350.464Z" transform="translate(-33.88 -330.992)"/><path class="f" d="M39.2,379.757a6.081,6.081,0,0,1,1.235-1.667,4.8,4.8,0,0,1,3.871-1.506c.422.062.369.7,0,.8a6.519,6.519,0,0,0-3.052,1.524,4.992,4.992,0,0,0-1.306,2.148c-.091.286-.136.6-.243.874a.542.542,0,0,1-.489.373.457.457,0,0,1-.135-.018.5.5,0,0,1-.354-.355A3.667,3.667,0,0,1,39.2,379.757Z" transform="translate(-35.159 -326.84)"/><path class="f" d="M41.686,381.726a2,2,0,0,1,.092-.323,1.7,1.7,0,0,1,.209-.361l.385-.574c.261-.389.545-.763.819-1.143a.423.423,0,1,1,.73.427c-.267.393-.526.793-.807,1.176q-.211.289-.42.578a1.809,1.809,0,0,1-.264.324,2.556,2.556,0,0,1-.313.228A.3.3,0,0,1,41.686,381.726Z" transform="translate(-34.738 -326.478)"/><path class="f" d="M46.607,412.533a11.173,11.173,0,0,1,.423-1.981,10.711,10.711,0,0,1,.837-1.869.512.512,0,0,1,.693-.181.52.52,0,0,1,.181.693,12.454,12.454,0,0,0-.855,3.291,12.132,12.132,0,0,0,.08,3.389c.071.456.415,1.608-.361,1.637-.655.025-.8-.952-.9-1.438A10.877,10.877,0,0,1,46.607,412.533Z" transform="translate(-34.057 -322.345)"/><path class="f" d="M50.141,414.786a.527.527,0,0,1,.512.513l.137,1.414c.023.229.03.461.04.693a1.2,1.2,0,0,1-.157.792.36.36,0,0,1-.556.072,1.049,1.049,0,0,1-.243-.387,2.275,2.275,0,0,1-.068-.451c-.029-.23-.06-.461-.076-.693l-.1-1.44A.517.517,0,0,1,50.141,414.786Z" transform="translate(-33.618 -321.449)"/></g><path class="g" d="M424.5,5V499.787H79.881V5" transform="translate(-4.132 -5)"/><rect class="h" width="72.103" height="141.652" transform="translate(348.266 219.148)"/><rect class="i" width="26.684" height="141.652" transform="translate(346.279 221.419)"/><rect class="h" width="72.103" height="141.652" transform="translate(148.705 221.419)"/><rect class="j" width="376.981" height="15.045" transform="translate(60.137 482.865)"/><path class="k" d="M443.382,5V22.032H60.724V5" transform="translate(-6.832 -5)"/><rect class="l" width="124.052" height="306.013" transform="translate(75.75 178.271)"/><path class="m" d="M444.167,195.7H63.212L81.285,75.907H429.824Z" transform="translate(-6.481 4.996)"/><g transform="translate(57.244 81.266)"><path class="n" d="M89.066,193.2Q119.925,134.42,131.15,76.225H112.475Q99.513,134.465,63.662,193.2Z" transform="translate(-63.662 -76.225)"/><g transform="translate(59.503)"><path class="n" d="M141.008,193.2A602.625,602.625,0,0,0,167.759,76.225H149.028Q140.14,134.376,115.813,193.2Z" transform="translate(-115.813 -76.225)"/></g><g transform="translate(118.602)"><path class="n" d="M192.72,193.2q8.7-58.852,11.769-116.979H185.741A845.5,845.5,0,0,1,167.61,193.2Z" transform="translate(-167.61 -76.225)"/></g><g transform="translate(177.582)"><path class="n" d="M244.462,193.2q-2.163-58.8-3.205-116.979H222.5q-.714,58.149-3.2,116.979Z" transform="translate(-219.302 -76.225)"/></g><g transform="translate(224.798)"><path class="n" d="M297.94,193.2A882.515,882.515,0,0,1,279.38,76.225h-18.7q3.431,58.238,11.949,116.979Z" transform="translate(-260.684 -76.225)"/></g><g transform="translate(268.671)"><path class="n" d="M352.449,193.2q-25.2-58.493-34.69-116.979H299.136a603.572,603.572,0,0,0,27.7,116.979Z" transform="translate(-299.136 -76.225)"/></g><g transform="translate(312.338)"><path class="n" d="M407.991,193.2Q369.8,135,355.916,76.225H337.408q12,58.635,44.487,116.979Z" transform="translate(-337.408 -76.225)"/></g></g><rect class="m" width="382.942" height="29.239" transform="translate(57.298 198.142)"/><rect class="n" width="24.697" height="29.239" transform="translate(57.298 198.142)"/><rect class="n" width="24.697" height="29.239" transform="translate(116.627 198.142)"/><rect class="n" width="24.697" height="29.239" transform="translate(175.957 198.142)"/><rect class="n" width="24.697" height="29.239" transform="translate(235.001 198.142)"/><rect class="n" width="24.697" height="29.239" transform="translate(294.047 198.142)"/><rect class="n" width="24.697" height="29.239" transform="translate(354.511 198.142)"/><rect class="n" width="24.697" height="29.239" transform="translate(415.26 198.142)"/><g transform="translate(85.969 236.749)"><rect class="o" width="97.084" height="232.206" transform="translate(3.123 3.123)"/><path class="p" d="M88.838,212.5V450.948H192.167V212.5ZM185.922,444.7H95.084V218.741h90.838Z" transform="translate(-88.838 -212.496)"/></g><rect class="q" width="382.942" height="29.239" transform="translate(57.298 198.142)"/><rect class="r" width="382.942" height="1.419" transform="translate(57.298 196.723)"/><rect class="p" width="349.729" height="4.826" transform="translate(73.763 78.064)"/><path class="p" d="M148.994,261.763a7.839,7.839,0,0,0-2.884-.6c-.96-.075-1.923-.092-2.884-.108q-2.886-.046-5.771.076a89.665,89.665,0,0,0-11.567,1.253,39.664,39.664,0,0,0-6.257,1.528c-.518.18-.484,1.1.139,1.028,3.76-.422,7.477-1.138,11.244-1.512a104.543,104.543,0,0,1,11.387-.51c1.054.01,2.106.056,3.161.082a10.174,10.174,0,0,0,3.3-.226A.558.558,0,0,0,148.994,261.763Z" transform="translate(1.421 31.096)"/><path class="s" d="M188.659,269.784v19.152c-30.561,19.429-75.079,47.813-97.084,62.236V326.978Z" transform="translate(-2.483 32.329)"/><path class="s" d="M192.167,294.676v9.115l-3.123,2.511-3.123,2.51L95.084,381.856l-3.123,2.511-3.123,2.51V365.955c.982-.712,2.026-1.464,3.123-2.251,1-.714,2.038-1.462,3.123-2.231,23.666-16.848,67.027-46.4,90.838-62.56l3.123-2.12Q190.688,295.678,192.167,294.676Z" transform="translate(-2.869 35.838)"/><path class="s" d="M188.659,331.739v8.44L91.575,402.363v-8.047C120.907,375.225,167.2,345.5,188.659,331.739Z" transform="translate(-2.483 41.063)"/><path class="p" d="M158.493,277a37.134,37.134,0,0,0-5.018,2.492c-1.625.923-3.23,1.88-4.845,2.82-3.187,1.859-6.363,3.738-9.543,5.609q-9.6,5.648-19.182,11.335-5.364,3.2-10.693,6.453a.6.6,0,0,0,.609,1.042q9.707-5.468,19.34-11.064c6.417-3.741,12.844-7.462,19.248-11.223q2.692-1.581,5.382-3.166a38.448,38.448,0,0,0,5.177-3.482A.492.492,0,0,0,158.493,277Z" transform="translate(-0.037 33.342)"/><path class="p" d="M132.24,285.509a18.4,18.4,0,0,0-2.48,1.5c-.8.511-1.605,1.017-2.431,1.486-1.666.946-3.4,1.765-5.123,2.606-.536.262-.16,1.124.4.957a26.382,26.382,0,0,0,5.414-2.377c.847-.476,1.68-.978,2.479-1.53a10.018,10.018,0,0,0,2.293-1.929A.459.459,0,0,0,132.24,285.509Z" transform="translate(1.799 34.539)"/><path class="p" d="M172.077,356.269a26.094,26.094,0,0,0-2.822,2.095c-.9.724-1.784,1.466-2.673,2.2-1.776,1.472-3.523,2.977-5.294,4.454q-5.285,4.41-10.65,8.725-5.389,4.333-10.847,8.584-5.422,4.219-10.924,8.336c-1.848,1.384-3.69,2.775-5.539,4.154s-3.777,2.725-5.565,4.2c-.432.358-.853.718-1.262,1.1-.44.418.12,1.082.629.815a50.516,50.516,0,0,0,5.76-3.794c1.877-1.335,3.756-2.669,5.61-4.036q5.54-4.084,11-8.268,5.533-4.236,10.984-8.578,5.407-4.318,10.732-8.734c3.547-2.941,7.112-5.871,10.479-9.019a12.725,12.725,0,0,0,1.152-1.239C173.286,356.742,172.74,355.869,172.077,356.269Z" transform="translate(1.009 44.507)"/><path class="p" d="M150.017,374.294a46.1,46.1,0,0,0-6.154,4.335q-2.971,2.295-5.917,4.623l-3.381,2.665c-.482.379.165,1.23.662.857,4.008-3.017,8.036-6.012,11.989-9.1a28,28,0,0,0,3.194-2.87A.325.325,0,0,0,150.017,374.294Z" transform="translate(3.554 47.057)"/><path class="p" d="M150.85,334.265a3.316,3.316,0,0,0-1.257.551,14.994,14.994,0,0,0-1.308.9c-.819.6-1.627,1.216-2.434,1.834q-2.4,1.838-4.758,3.744c-3.123,2.531-6.167,5.147-9.107,7.889q-2.5,2.324-4.913,4.729c-.4.4.209,1.008.621.622,2.936-2.753,5.966-5.391,9.019-8.011q4.515-3.875,9.242-7.493,1.314-1.006,2.646-1.991c.468-.347.942-.687,1.4-1.052a3.961,3.961,0,0,0,1.156-1.191C151.254,334.585,151.139,334.228,150.85,334.265Z" transform="translate(2.503 41.419)"/><path class="p" d="M142.842,342.716a4.431,4.431,0,0,0-.848.45c-.258.192-.512.39-.768.585q-.808.616-1.6,1.245-1.539,1.222-3.078,2.442a.588.588,0,0,0,0,.828.6.6,0,0,0,.827,0l3.057-2.379c.509-.4,1.014-.8,1.515-1.2.251-.2.505-.4.751-.608a4.511,4.511,0,0,0,.64-.719A.41.41,0,0,0,142.842,342.716Z" transform="translate(3.833 42.604)"/><path class="t" d="M425.932,220.182l-345.187-.852L65.7,204.286H446.087Z" transform="translate(-6.131 23.095)"/><rect class="u" width="127.458" height="7.665" transform="translate(220.808 264)"/><rect class="v" width="127.458" height="7.665" transform="translate(220.808 268.258)"/><rect class="u" width="127.458" height="7.665" transform="translate(220.808 292.387)"/><rect class="v" width="127.458" height="7.665" transform="translate(220.808 296.645)"/><g transform="translate(195.26 341.781)"><rect class="w" width="22.71" height="131.799" transform="translate(5.394 9.001)"/><rect class="x" width="22.71" height="131.799" transform="translate(28.103 9.001)"/><rect class="w" width="22.71" height="131.799" transform="translate(50.813 9.001)"/><rect class="x" width="22.71" height="131.799" transform="translate(73.523 9.001)"/><rect class="w" width="22.71" height="131.799" transform="translate(96.232 9.001)"/><rect class="x" width="22.71" height="131.799" transform="translate(118.942 9.001)"/><rect class="w" width="22.71" height="131.799" transform="translate(141.652 9.001)"/><rect class="x" width="22.71" height="131.799" transform="translate(164.361 9.001)"/><rect class="w" width="22.71" height="131.799" transform="translate(187.071 9.001)"/><rect class="x" width="22.71" height="131.799" transform="translate(209.781 9.001)"/><rect class="y" width="247.819" height="14.359"/><rect class="z" width="227.097" height="9.215" transform="translate(5.394 14.359)"/><rect class="aa" width="247.819" height="5.11"/></g><rect class="ab" width="402.813" height="13.342" transform="translate(48.498 492.232)"/><g transform="translate(427.684 433.856)"><path class="ac" d="M554.469,444.477a10.764,10.764,0,0,0,3.187-9.505c-.868-4.383-4.614-7.769-8.39-9.8a24.424,24.424,0,0,0-12.309-2.834,24.088,24.088,0,0,0-10.966,2.978,10.807,10.807,0,0,0-1.3-5.792c-1.859-3.37-5.284-5.706-8.795-7.095a22.494,22.494,0,0,0-10.844-1.349,21.083,21.083,0,0,0-9.968,3.785A12.534,12.534,0,0,0,495,413.2a13.551,13.551,0,0,0-4.053-8.213,11.2,11.2,0,0,0-8.294-3.009,11.863,11.863,0,0,0-4.485,1.147,24.643,24.643,0,0,0-1.442-6.211c-1.268-3.37-3.4-6.726-7.038-7.808-3.439-1.021-7.274.146-10.052,2.273a18.359,18.359,0,0,0-3.37,3.421,16.408,16.408,0,0,0-2.372-5.193c-1.929-2.77-5.136-5.194-8.679-4.079-3.341,1.051-5.447,4.357-6.933,7.317a29.953,29.953,0,0,0-2.194,5.8,11.464,11.464,0,0,0-3.045-1.858,8.847,8.847,0,0,0-6.346-.221,10.9,10.9,0,0,0-4.905,3.85,14.083,14.083,0,0,0-2.4,10.251,15.61,15.61,0,0,0,.825,3.311,11.985,11.985,0,0,0-1.92.251,12.712,12.712,0,0,0-5.617,2.909,13.322,13.322,0,0,0-4.55,11.445,10.435,10.435,0,0,0-5.093-.847,17.469,17.469,0,0,0-11.317,6.224c-2.443,2.9-3.968,6.744-3.167,10.521Z" transform="translate(-388.331 -385.249)"/><path class="ad" d="M513.515,416.27a16.316,16.316,0,0,0-7.206-6.108,22.348,22.348,0,0,0-10.7-1.576,29.137,29.137,0,0,0-10.378,2.732,13.5,13.5,0,0,0-4.26-8.058,12.951,12.951,0,0,0-10.4-3.187,12.662,12.662,0,0,0-3.116.8,11,11,0,0,0-2.734,1.617c-.29.229.084.7.392.509a13.361,13.361,0,0,1,10.163-1.719,12.052,12.052,0,0,1,7.707,6.2,12.236,12.236,0,0,1,1.305,4.338,12.967,12.967,0,0,0-3.843,3.235,7.958,7.958,0,0,0-1.919,5.241c.024.364.6.5.674.091a11.033,11.033,0,0,1,1.81-4.4,11.5,11.5,0,0,1,3.358-3.032.492.492,0,0,0,.979-.052c0-.164-.009-.329-.016-.493a22.738,22.738,0,0,1,3.992-1.578,31.226,31.226,0,0,1,5.116-1.1,22.729,22.729,0,0,1,10.219.882,15.684,15.684,0,0,1,7.386,5.3,14.341,14.341,0,0,1,2.266,4.321,13.669,13.669,0,0,1,.555,4.9.312.312,0,0,0,.61.082A12.119,12.119,0,0,0,513.515,416.27Z" transform="translate(-377.576 -383.175)"/><path class="ad" d="M436.5,400.882a8.279,8.279,0,0,0-.779-1.617,9.614,9.614,0,0,0-9.2-4.369,11.3,11.3,0,0,0-6.493,3.331,12.772,12.772,0,0,0-3.486,6.965,15.922,15.922,0,0,0,.484,7.128,10.761,10.761,0,0,0-1.794.246,12.428,12.428,0,0,0-2.266.7,13.091,13.091,0,0,0-3.989,2.58,12.525,12.525,0,0,0-3.821,8.846,10.806,10.806,0,0,0,1.294,5.471c.164.3.681.1.559-.236a13.235,13.235,0,0,1-.181-9.186,11.637,11.637,0,0,1,5.958-6.376,11.82,11.82,0,0,1,2.325-.817,15.917,15.917,0,0,1,2.231-.3,14.445,14.445,0,0,0,.648,1.473c.17.333.743.1.613-.258q-.322-.888-.582-1.795a.468.468,0,0,0-.016-.057,17.383,17.383,0,0,1-.7-6.083A12.153,12.153,0,0,1,420,399.671a10.809,10.809,0,0,1,5.643-3.632,8.644,8.644,0,0,1,8.989,3.352,7.388,7.388,0,0,1,.857,1.568,11.794,11.794,0,0,1,.537,1.795.4.4,0,0,0,.776-.1A5.357,5.357,0,0,0,436.5,400.882Z" transform="translate(-385.958 -383.899)"/><path class="ad" d="M450.924,395.189a12.508,12.508,0,0,0-3.3-7.081,8.519,8.519,0,0,0-6.509-2.762,9.706,9.706,0,0,0-6.609,3.688,22.478,22.478,0,0,0-4.019,8.918.317.317,0,0,0,.612.169c.984-2.638,1.764-5.351,3.388-7.691a9.48,9.48,0,0,1,5.829-4.1,7.284,7.284,0,0,1,6.167,1.973,11.224,11.224,0,0,1,3.384,6.307,19.665,19.665,0,0,1,.241,4.815c-.048.834-.124,1.668-.22,2.5a21.3,21.3,0,0,0-.236,2.478.343.343,0,0,0,.671.091,12.854,12.854,0,0,0,.467-2.314c.108-.784.2-1.57.259-2.358A22.357,22.357,0,0,0,450.924,395.189Z" transform="translate(-382.389 -385.237)"/><path class="ad" d="M422.94,398.783a5.044,5.044,0,0,0-3.569,3.336c-.1.343.421.577.588.248a5.376,5.376,0,0,1,3.19-2.826A.393.393,0,0,0,422.94,398.783Z" transform="translate(-383.957 -383.342)"/><g transform="translate(41.212 15.008)"><path class="ad" d="M425.994,398.485a.649.649,0,0,0-.518-.057,1.554,1.554,0,0,0-.381.124,1.527,1.527,0,0,0-.6.509.321.321,0,0,0-.032.244.33.33,0,0,0,.114.165.314.314,0,0,0,.416-.025,1.181,1.181,0,0,1,.164-.173c.013-.011.027-.022.039-.033l-.013.011,0,0c.033-.023.067-.043.1-.063s.062-.033.094-.048l.048-.017a1.271,1.271,0,0,1,.2-.044l.1-.007a.943.943,0,0,0,.139-.017.543.543,0,0,0,.129-.058.294.294,0,0,0,.146-.254A.309.309,0,0,0,425.994,398.485Z" transform="translate(-424.45 -398.402)"/><path class="ad" d="M425.095,399.146c-.018.015-.042.039,0,0Z" transform="translate(-424.363 -398.297)"/></g><path class="ad" d="M423.762,401.681a.2.2,0,0,0-.21-.072c-.1.032-.189.068-.284.108a1.842,1.842,0,0,0-.308.192l-.523.355a.3.3,0,0,0,.072.556.294.294,0,0,0,.234-.031l.517-.388a2.512,2.512,0,0,0,.3-.228,2.644,2.644,0,0,0,.221-.27A.2.2,0,0,0,423.762,401.681Z" transform="translate(-383.544 -382.944)"/><path class="ad" d="M413.047,414.136a7.866,7.866,0,0,0-3.5,3.723,8.763,8.763,0,0,0-.741,2.471,6.9,6.9,0,0,0-.084,1.3,1.829,1.829,0,0,0,.337,1.244.315.315,0,0,0,.491-.063,2.422,2.422,0,0,0,.115-1.13,9.943,9.943,0,0,1,.067-1.151,7.921,7.921,0,0,1,.655-2.241,8.47,8.47,0,0,1,3.035-3.516A.37.37,0,0,0,413.047,414.136Z" transform="translate(-385.457 -381.183)"/><path class="ad" d="M412.017,418.069a.306.306,0,0,0-.413.108,5.564,5.564,0,0,0-.525,1.3,1.948,1.948,0,0,0,.052,1.407.178.178,0,0,0,.306,0,4.442,4.442,0,0,0,.306-1.223,4.977,4.977,0,0,1,.381-1.179A.31.31,0,0,0,412.017,418.069Z" transform="translate(-385.139 -380.627)"/><path class="ad" d="M414.217,417.133a.316.316,0,0,0-.308.308l-.065.739a2.368,2.368,0,0,0-.025.37c.01.132.031.265.052.4a.208.208,0,0,0,.2.153.216.216,0,0,0,.2-.153,1.877,1.877,0,0,0,.169-.766q.043-.37.083-.739A.308.308,0,0,0,414.217,417.133Z" transform="translate(-384.738 -380.754)"/><path class="ad" d="M477.408,405.755a6.555,6.555,0,0,0-.681-.775,7,7,0,0,0-1.7-1.2,6.053,6.053,0,0,0-4-.572.352.352,0,0,0,.092.688,6.9,6.9,0,0,1,3.484.706,6.052,6.052,0,0,1,1.424,1.009,5.916,5.916,0,0,1,.6.666c.208.272.353.593.731.615a.363.363,0,0,0,.324-.185C477.842,406.338,477.631,406.051,477.408,405.755Z" transform="translate(-376.708 -382.734)"/><path class="ad" d="M474.118,406.485a.52.52,0,0,0-.154-.172,1.2,1.2,0,0,0-.154-.076,1.807,1.807,0,0,0-.382-.134l-.7-.127a.346.346,0,0,0-.254.033.33.33,0,0,0,.079.6l.682.179a1.833,1.833,0,0,0,.408.05,1.3,1.3,0,0,0,.176,0,.478.478,0,0,0,.226-.083A.2.2,0,0,0,474.118,406.485Z" transform="translate(-376.491 -382.328)"/><path class="ad" d="M476.075,407.867a.3.3,0,0,0,0,.6A.3.3,0,0,0,476.075,407.867Z" transform="translate(-376.002 -382.06)"/><path class="ad" d="M486.059,413.634a2.028,2.028,0,0,0-1.472.095,9.238,9.238,0,0,0-1.418.585,9.813,9.813,0,0,0-2.373,1.732,9.006,9.006,0,0,0-2.646,5.243c-.055.423.657.516.745.1a9.164,9.164,0,0,1,2.58-4.664,8.914,8.914,0,0,1,2.191-1.562,8.22,8.22,0,0,1,1.183-.488,3.045,3.045,0,0,0,1.277-.525A.33.33,0,0,0,486.059,413.634Z" transform="translate(-375.669 -381.262)"/><path class="ad" d="M489.255,411.881a.336.336,0,0,0-.3-.2.754.754,0,0,0-.365.068c-.08.035-.157.074-.235.111l-.468.224-.936.445a.374.374,0,0,0-.134.508.384.384,0,0,0,.508.132l.931-.416.458-.2a1.093,1.093,0,0,0,.473-.3A.339.339,0,0,0,489.255,411.881Z" transform="translate(-374.453 -381.523)"/><path class="ad" d="M487.652,415.187a.215.215,0,0,0-.2-.134,2.212,2.212,0,0,0-.274.041,1.028,1.028,0,0,0-.246.107l-.408.216c-.277.147-.548.3-.82.459a.306.306,0,1,0,.309.528c.272-.144.548-.283.816-.434l.389-.218a1.166,1.166,0,0,0,.225-.146,1.465,1.465,0,0,0,.163-.183A.223.223,0,0,0,487.652,415.187Z" transform="translate(-374.625 -381.047)"/><path class="ad" d="M493.837,412.792a.759.759,0,0,0-.589.016c-.17.051-.351.089-.517.155l-.99.4a.376.376,0,0,0-.256.45.371.371,0,0,0,.451.256c.338-.124.678-.246,1.015-.374.18-.07.351-.163.525-.246a2.32,2.32,0,0,0,.234-.112.578.578,0,0,0,.23-.285A.225.225,0,0,0,493.837,412.792Z" transform="translate(-373.791 -381.374)"/><path class="ad" d="M523.542,421.12a2.591,2.591,0,0,0-1.49-.656,13.448,13.448,0,0,0-1.666-.259,13.226,13.226,0,0,0-3.336.119,12.234,12.234,0,0,0-5.954,2.743c-.314.261.106.815.44.57a13.223,13.223,0,0,1,5.732-2.312,12.447,12.447,0,0,1,3.062-.087,11.438,11.438,0,0,1,1.5.245,3.647,3.647,0,0,0,1.56.223A.355.355,0,0,0,523.542,421.12Z" transform="translate(-371.039 -380.329)"/><path class="ad" d="M519.966,422.132a2.614,2.614,0,0,0-1.273-.03,3.246,3.246,0,0,0-1.116.434.359.359,0,0,0,.363.621c.074-.041.15-.079.227-.115l.015-.006.065-.026.1-.035c.081-.026.162-.05.244-.068.048-.011.1-.022.143-.03l.059-.01h0a3.591,3.591,0,0,1,.508-.011c.042,0,.084.007.127.01l.024,0,.065.009c.055.007.109.01.164.015.016,0,.164.021.072.007a.4.4,0,1,0,.211-.767Z" transform="translate(-370.135 -380.062)"/><path class="ad" d="M527.113,423.164a2.694,2.694,0,0,0-.788-.682,2.774,2.774,0,0,0-2.062-.3.384.384,0,0,0,.2.739,1.42,1.42,0,0,1,.351-.03,1.942,1.942,0,0,1,.216.014l.036.006c.032,0,.063.01.094.017a2.44,2.44,0,0,1,.38.118l.06.026c.034.017.069.034.1.052a2.037,2.037,0,0,1,.181.107c.027.017.054.035.08.054l.057.041c.048.038.095.075.139.116a2.437,2.437,0,0,1,.29.3h0l.01.016c.022.032.043.063.064.095.038.058.074.117.108.178.073.124.145.25.208.38a.383.383,0,0,0,.707-.192A1.959,1.959,0,0,0,527.113,423.164Z" transform="translate(-369.207 -380.054)"/><path class="ad" d="M527.28,425.822a.76.76,0,0,0-.2-.292,2.726,2.726,0,0,0-.379-.318,2.381,2.381,0,0,0-.845-.366.366.366,0,1,0-.2.705c.066.017.132.035.2.058.029.009.058.021.087.032h.006l.019.009a2.687,2.687,0,0,1,.349.2l.075.053.029.021c.048.04.1.081.143.124a.856.856,0,0,0,.209.176,1.293,1.293,0,0,0,.22.094.258.258,0,0,0,.323-.246A.746.746,0,0,0,527.28,425.822Z" transform="translate(-369.008 -379.668)"/><path class="ad" d="M437.951,389.573c-.256-.373-.9-.063-1.195.1a5.995,5.995,0,0,0-2.447,2.534,2.97,2.97,0,0,0-.35,1.317.324.324,0,0,0,.6.162c.187-.31.308-.666.484-.986a6.184,6.184,0,0,1,.564-.893,5.3,5.3,0,0,1,1.66-1.374C437.535,390.285,438.228,389.976,437.951,389.573Z" transform="translate(-381.898 -384.664)"/><path class="ad" d="M439.866,389.078a.852.852,0,0,0-.18-.081.911.911,0,0,0-.194-.027l-.345-.026c-.224-.017-.454,0-.678.006a.288.288,0,1,0,0,.576c.224,0,.454.022.678,0l.332-.025a.833.833,0,0,0,.207-.027.913.913,0,0,0,.18-.081A.186.186,0,0,0,439.866,389.078Z" transform="translate(-381.303 -384.729)"/><path class="ad" d="M438.207,392.3a2.883,2.883,0,0,0-.315.035,1.453,1.453,0,0,0-.262.1l-.52.208a.356.356,0,0,0-.185.142.3.3,0,0,0-.015.275.29.29,0,0,0,.162.162.319.319,0,0,0,.275-.015l.51-.233a1.385,1.385,0,0,0,.294-.153c.068-.055.136-.109.2-.169A.207.207,0,0,0,438.207,392.3Z" transform="translate(-381.486 -384.255)"/><path class="ad" d="M440.931,391.765a.858.858,0,0,0-.366-.192l-.327-.07c-.227-.048-.455-.088-.682-.13a.257.257,0,1,0-.137.5c.225.055.448.112.674.161l.326.072a.673.673,0,0,0,.224.023,1.963,1.963,0,0,0,.2-.034A.2.2,0,0,0,440.931,391.765Z" transform="translate(-381.155 -384.386)"/><path class="ad" d="M469.705,420.511a5.552,5.552,0,0,0-4-5.032,4.68,4.68,0,0,0-3.019.209,14.835,14.835,0,0,0,.116-1.538,11.933,11.933,0,0,0-1.3-6.028,4.673,4.673,0,0,0-1.942-1.953,4.3,4.3,0,0,0-3.071-.186,8.536,8.536,0,0,0-4.559,3.544,9.713,9.713,0,0,0-1.316,2.938,8.778,8.778,0,0,0-.289,1.783,5.231,5.231,0,0,0-7.859,1.675,4.414,4.414,0,0,0,.127,4.126c.25.412.807.051.629-.367a4.117,4.117,0,0,1,2.012-5.26,4.551,4.551,0,0,1,5.744,2.056,5.364,5.364,0,0,1,.584,1.76c.1.655-.011,1.309.066,1.958a.322.322,0,0,0,.594.161,3.43,3.43,0,0,0,.288-1.983,6.243,6.243,0,0,0-.528-2,5.632,5.632,0,0,0-.867-1.369,12.574,12.574,0,0,1,.237-2.006,8.912,8.912,0,0,1,.916-2.354,8.207,8.207,0,0,1,3.734-3.5,3.935,3.935,0,0,1,2.734-.278,3.36,3.36,0,0,1,1.781,1.535,10.6,10.6,0,0,1,1.264,5.268,13.392,13.392,0,0,1-.354,3.238c-.122.513-.276,1.014-.431,1.518-.167.536-.438,1.045-.562,1.591-.078.34.366.665.626.365a5.317,5.317,0,0,0,.764-1.411,10.074,10.074,0,0,0,.533-1.554c.058-.231.109-.464.156-.7a4.242,4.242,0,0,1,5.017,1.026,5.319,5.319,0,0,1,.731,5.449,7.262,7.262,0,0,1-.842,1.5c-.164.227-.317.458-.5.669a3.09,3.09,0,0,0-.564.676.356.356,0,0,0,.4.516,3.464,3.464,0,0,0,1.34-1.132,6.763,6.763,0,0,0,.946-1.475A6.671,6.671,0,0,0,469.705,420.511Z" transform="translate(-380.761 -382.353)"/><path class="ad" d="M441.879,427.057a5.459,5.459,0,0,0-7.8-.4l-.042-.082a5.158,5.158,0,0,0-1.455-1.66,5.043,5.043,0,0,0-4.373-.744,5.8,5.8,0,0,0-4.035,6.3,4.92,4.92,0,0,0-1.407-.339,3.863,3.863,0,0,0-2.379.541,3.252,3.252,0,0,0-1.365,4.109c.306.671,1.134,1.6,1.948,1.37a.31.31,0,0,0,.136-.511,1.947,1.947,0,0,0-.482-.38,2.144,2.144,0,0,1-.369-.321,2.195,2.195,0,0,1-.487-.85,2.169,2.169,0,0,1,.435-2.04A2.946,2.946,0,0,1,422.257,431a3.813,3.813,0,0,1,1.313.149,6.455,6.455,0,0,1,.809.313c.013.042.021.083.033.124a6.843,6.843,0,0,0,3.261,3.894.357.357,0,0,0,.361-.616,6.286,6.286,0,0,1-2.8-3.412.334.334,0,0,0-.063-.324c-.013-.014-.026-.024-.039-.037a5.272,5.272,0,0,1,.125-3.076,4.723,4.723,0,0,1,2.674-2.846,4.316,4.316,0,0,1,3.74.185,4.2,4.2,0,0,1,1.5,1.484,3.973,3.973,0,0,1,.338.736,1.776,1.776,0,0,0-.063.28.286.286,0,0,0,.224.311,2.563,2.563,0,0,0,.2.656c.145.292.529.167.629-.082a1.8,1.8,0,0,0-.025-1.145,3.419,3.419,0,0,1,.429-.443,4.117,4.117,0,0,1,1.166-.662,4.962,4.962,0,0,1,2.515-.277,3.33,3.33,0,0,1,3.011,3.152,2.884,2.884,0,0,1-.233,1.207c-.169.38-.577.717-.551,1.154a.313.313,0,0,0,.225.3c.531.1.877-.366,1.116-.779a3.621,3.621,0,0,0,.436-1.416A4.131,4.131,0,0,0,441.879,427.057Z" transform="translate(-384.043 -379.79)"/><path class="ad" d="M433.185,422.452a1.871,1.871,0,0,0-.705-.753,2.959,2.959,0,0,0-.853-.4,2.145,2.145,0,0,0-1.839.178.286.286,0,0,0-.127.31.276.276,0,0,0,.266.2c.252-.022.509-.043.762-.04a2.17,2.17,0,0,1,.71.1,2.082,2.082,0,0,1,.629.307,1.59,1.59,0,0,1,.252.211,3.622,3.622,0,0,0,.33.332.393.393,0,0,0,.4,0,.319.319,0,0,0,.08-.062A.385.385,0,0,0,433.185,422.452Z" transform="translate(-382.506 -380.184)"/><path class="ad" d="M425.3,422.424a3.795,3.795,0,0,0-2.876,2.31,3.384,3.384,0,0,0-.183.576,1.508,1.508,0,0,0-.037.756.365.365,0,0,0,.7,0,2.9,2.9,0,0,0,.1-.547,3.52,3.52,0,0,1,.157-.536,3.707,3.707,0,0,1,.527-.922,3.223,3.223,0,0,1,1.743-1.167C425.74,422.818,425.6,422.375,425.3,422.424Z" transform="translate(-383.56 -380.008)"/><path class="ad" d="M445.447,410.839A2.962,2.962,0,0,0,443.029,409a2.862,2.862,0,0,0-2.739,1.264.363.363,0,0,0,.567.438,2.442,2.442,0,0,1,2.061-.868,2.186,2.186,0,0,1,1.042.434,2.759,2.759,0,0,1,.706.9A.429.429,0,0,0,445.447,410.839Z" transform="translate(-381.013 -381.904)"/><path class="ad" d="M449.6,405.943a3.549,3.549,0,0,0-2.9.774,3.077,3.077,0,0,0-1.263,2.6.323.323,0,0,0,.276.314.317.317,0,0,0,.35-.229,3.341,3.341,0,0,1,1.169-2.045,2.759,2.759,0,0,1,2.134-.583.443.443,0,0,0,.529-.3A.434.434,0,0,0,449.6,405.943Z" transform="translate(-380.281 -382.34)"/><path class="ad" d="M456.2,390.228a2.75,2.75,0,0,0-1.368.009,4.237,4.237,0,0,0-1.261.485,3.988,3.988,0,0,0-1.7,2.021c-.125.326.418.557.567.24a3.717,3.717,0,0,1,2.549-1.957,7.5,7.5,0,0,1,1.108-.062A.376.376,0,0,0,456.2,390.228Z" transform="translate(-379.375 -384.559)"/><path class="ad" d="M456.222,392.217a.24.24,0,0,0-.169-.169,1.418,1.418,0,0,0-.277-.034.929.929,0,0,0-.3.074l-.453.147a.37.37,0,0,0-.208.161.348.348,0,0,0,.394.511l.45-.154a1.3,1.3,0,0,0,.285-.108,1.037,1.037,0,0,0,.213-.193A.25.25,0,0,0,456.222,392.217Z" transform="translate(-378.964 -384.295)"/></g></svg>