<svg xmlns="http://www.w3.org/2000/svg" width="622.65" height="747.808" viewBox="0 0 622.65 747.808"><defs><style>.a{fill:#37a879;}.a,.b{opacity:0.1;}.b{fill:#368064;}</style></defs><g transform="translate(263.153 -1957.884)"><path class="a" d="M2785.124,2835.744c65.341-44.623,33.147-55.347,163.718-206.229s226.719-13.682,273.144-181.432c.65-2.348-7.072-63.191-56-124.336s-143.629-96.694-195.166-122.347c-44.158-49.788-113.517,268.791-113.517,268.791S2719.783,2880.367,2785.124,2835.744Z" transform="translate(-3551.821 799.754) rotate(-17)"/><path class="b" d="M3755.008,3240.141s-93.341,98.66,7.1,69.645,95.975-80.351,198.645-75.887,130.954-53.279,98.591-114.1-104.966-163.457-228.045-129.184S3755.008,3240.141,3755.008,3240.141Z" transform="translate(-4603.877 368.501) rotate(-17)"/></g></svg>