<svg xmlns="http://www.w3.org/2000/svg" width="2296.318" height="246.926" viewBox="0 0 2296.318 246.926"><defs><style>.a{fill:#37a879;}.b{fill:#f1f2f4;}.c{fill:#b4ccbe;}.d{fill:#368064;}</style></defs><g transform="translate(0 3.407)"><g transform="translate(0.372)"><path class="a" d="M225.95,358.527C154.91,420.015,112.071,463.186,75.167,525.514h163.6c39.55-61.479,59.933-105.5,113.257-166.987Z" transform="translate(-75.167 -358.527)"/><path class="b" d="M282.093,358.527c-53.307,61.488-73.707,105.508-113.257,166.987H332.459c26.426-61.479,40.1-105.5,75.738-166.987Z" transform="translate(-5.233 -358.527)"/><path class="a" d="M338.254,358.527c-35.636,61.488-49.312,105.508-75.738,166.987H426.128c13.325-61.479,20.287-105.5,38.221-166.987Z" transform="translate(64.71 -358.527)"/><path class="b" d="M394.411,358.527c-17.934,61.488-24.9,105.508-38.221,166.987H519.807c.218-61.479.461-105.5.692-166.987Z" transform="translate(134.648 -358.527)"/><path class="a" d="M450.559,358.527c-.231,61.488-.473,105.508-.692,166.987H613.488c-12.913-61.479-19.358-105.5-36.843-166.987Z" transform="translate(204.589 -358.527)"/><path class="b" d="M522.452,358.527c17.485,61.488,23.93,105.508,36.843,166.987H722.909c-26-61.479-39.189-105.5-74.367-166.987Z" transform="translate(258.782 -358.527)"/><path class="a" d="M594.643,358.527c35.179,61.488,48.365,105.508,74.367,166.987H832.631c-39.122-61.479-59.016-105.5-111.9-166.987Z" transform="translate(312.68 -358.527)"/><path class="a" d="M551.563,357.884c35.179,61.488,91.446,106.15,117.447,167.63H857.02c-13.067-20.534-102.131-129.476-145.975-167.63Z" transform="translate(636.68 -358.527)"/><path class="a" d="M530.541,358.527C562.3,419.151,633.385,464.035,659.387,525.514H836.776c-25.17-78.2-58.647-109.7-124.478-166.987Z" transform="translate(969.68 -358.527)"/><path class="a" d="M551.914,358.139c35.179,61.488,91.094,105.9,117.1,167.375l168.152.049c-39.122-61.479-40.394-109.748-106.225-167.036Z" transform="translate(1294.68 -358.527)"/><path class="b" d="M778.732,525.514H942.339c-39.461-62.328-51.417-105.5-121.992-166.987H666.834C719.716,420.015,739.61,464.035,778.732,525.514Z" transform="translate(366.579 -358.527)"/><path class="b" d="M778.732,525.514H942.339c-39.461-62.328-70.011-108.906-140.586-170.394H649.976C702.858,416.607,739.61,464.035,778.732,525.514Z" transform="translate(697.579 -355.527)"/><path class="b" d="M773.881,524.022l163.353-1.733S887.552,416.607,816.977,355.12l-164.152.5c23.956,27.854,36.676,35.309,68.918,77.907S773.881,524.022,773.881,524.022Z" transform="translate(1029.579 -355.527)"/><path class="b" d="M778.732,525.514H942.339c-39.461-62.328-70.011-108.906-140.586-170.394l-134.919,3.407C719.716,420.015,739.61,464.035,778.732,525.514Z" transform="translate(1353.579 -358.527)"/></g><path class="c" d="M520.174,453.867v62.15s-42.126,13.862-83.122,13.862-80.862-13.862-80.862-13.862v-62.15" transform="translate(135.02 -287.345)"/><path class="d" d="M613.919,453.867v62.15s-39.207,13.862-80.2,13.862-83.781-13.862-83.781-13.862v-62.15" transform="translate(205.012 -287.345)"/><path class="c" d="M706.878,453.867v62.15s-42.693,13.989-83.688,13.989S542.9,516.016,542.9,516.016v-62.15" transform="translate(274.418 -287.345)"/><path class="d" d="M801.616,453.662v62.15s-40.574,12.915-81.783,12.915-83.051-12.915-83.051-12.915v-62.15" transform="translate(344.514 -287.498)"/><path class="d" d="M801.616,453.662v62.15s-40.574,12.915-81.783,12.915-83.051-12.915-83.051-12.915v-62.15" transform="translate(672.514 -287.498)"/><path class="d" d="M801.616,453.662v62.15s-40.574,12.915-81.783,12.915-83.051-12.915-83.051-12.915v-62.15" transform="translate(1001.514 -287.498)"/><path class="d" d="M801.616,453.662v62.15s-40.574,12.915-81.783,12.915-83.051-12.915-83.051-12.915v-62.15" transform="translate(1330.514 -287.498)"/><path class="c" d="M894.93,453.662v62.15s-41.385,13.63-82.525,13.63-82.035-13.63-82.035-13.63v-62.15" transform="translate(414.388 -287.498)"/><path class="c" d="M894.93,453.662v62.15s-41.385,13.63-82.525,13.63-82.035-13.63-82.035-13.63v-62.15" transform="translate(743.388 -287.498)"/><path class="c" d="M894.93,453.662v62.15s-41.385,13.63-82.525,13.63-82.035-13.63-82.035-13.63v-62.15" transform="translate(1072.388 -287.498)"/><path class="c" d="M894.93,453.662v62.15s-41.385,13.63-82.525,13.63-82.035-13.63-82.035-13.63v-62.15" transform="translate(1401.388 -287.498)"/><path class="d" d="M426.428,453.867v62.15s-43.655,14.847-84.733,14.847-79.381-15.153-79.381-15.153l-.2-61.844" transform="translate(64.783 -287.345)"/><path class="c" d="M334.1,453.867v62.15s-44.247,14.847-85.8,14.847S167.9,516.016,167.9,516.016v-62.15" transform="translate(-5.56 -287.345)"/><path class="d" d="M238.937,453.867l-.183,62.612s-43.793,14.385-84.788,14.385-79.011-14.847-79.011-14.847v-62.15" transform="translate(-74.954 -287.345)"/></g></svg>