<svg xmlns="http://www.w3.org/2000/svg" width="60.36" height="60.359" viewBox="0 0 60.36 60.359"><defs><style>.a{fill:#4d4d4d;}.b{fill:#20222b;}</style></defs><g transform="translate(-4104.95 -4893.25)"><path class="a" d="M53.893,2.25H6.467A6.467,6.467,0,0,0,0,8.717V56.143A6.467,6.467,0,0,0,6.467,62.61H24.959c-.667-.2,10.754-.8,10.442,0H53.893a6.467,6.467,0,0,0,6.467-6.467V8.717A6.467,6.467,0,0,0,53.893,2.25Z" transform="translate(4104.95 4891)"/><path class="b" d="M38.648,8.725a4.825,4.825,0,0,0-3.395-3.417c-2.995-.808-15-.808-15-.808s-12.008,0-15,.808A4.825,4.825,0,0,0,1.852,8.725c-.8,3.014-.8,9.3-.8,9.3s0,6.289.8,9.3a4.753,4.753,0,0,0,3.395,3.362c2.995.808,15,.808,15,.808s12.008,0,15-.808a4.753,4.753,0,0,0,3.395-3.362c.8-3.014.8-9.3.8-9.3s0-6.289-.8-9.3ZM16.323,23.737V12.318l10.036,5.71L16.323,23.737Z" transform="translate(4114.59 4905)"/></g></svg>